<?xml version="1.0" encoding="UTF-8"?>
<svg id="_04" data-name="04" xmlns="http://www.w3.org/2000/svg" xmlns:xlink="http://www.w3.org/1999/xlink" viewBox="0 0 512 512">
  <defs>
    <style>
      .cls-1 {
        opacity: .4;
      }

      .cls-1, .cls-2, .cls-3, .cls-4, .cls-5, .cls-6, .cls-7, .cls-8, .cls-9, .cls-10, .cls-11, .cls-12, .cls-13, .cls-14, .cls-15 {
        stroke-width: 0px;
      }

      .cls-1, .cls-10, .cls-15 {
        fill: #fff;
      }

      .cls-2, .cls-8 {
        fill: #e38372;
      }

      .cls-3 {
        fill: #edbf71;
      }

      .cls-4 {
        fill: url(#Unnamed_Pattern_3);
      }

      .cls-6 {
        fill: #e3e3e3;
      }

      .cls-7, .cls-13 {
        fill: #e88572;
      }

      .cls-8, .cls-13, .cls-15 {
        opacity: .3;
      }

      .cls-9 {
        fill: none;
      }

      .cls-11 {
        fill: #eaa471;
      }

      .cls-12 {
        fill: #efbfd9;
      }

      .cls-14 {
        fill: #91bfe2;
      }
    </style>
    <pattern id="Unnamed_Pattern_3" data-name="Unnamed Pattern 3" x="0" y="0" width="35.02" height="35.02" patternTransform="translate(-1275.71 -351.26) rotate(1.58)" patternUnits="userSpaceOnUse" viewBox="0 0 35.02 35.02">
      <g>
        <rect class="cls-9" width="35.02" height="35.02"/>
        <rect class="cls-5" width="35.02" height="35.02"/>
      </g>
    </pattern>
  </defs>
  <path class="cls-10" d="m469.15,259.22c16.58-25.49-9.54-40.68-25.2-54.05,4.2-6.95,5.75-15.29,5.49-25.37,53.07-31.75,1.61-120.05-31.13-153.54-35.05-36.83-91.84-38.17-109.72,16.84-24.03-7.22-48.14-7.52-72.15-.62-17.03-50.67-68.04-53.62-105.39-19.52-24.64-29.12-63.21-4.96-41.01,29.91-45.91-18.72-68.76,29.11-20.69,52.68-48.16,5.17-38.29,55.37,6.98,51.48,2.29,7.6,6.39,13.84,11.79,18.34-1.46,1.81-15.77,23-10.86,43.66-38.53,36.24-40.79,103.75-6.59,146.15.25,53.72,55.99,101.15,109.14,87.8,5.01,49.17,63.03,75.5,91.35,47.71,14.86,18.19,60.16,10.95,70.05-15.11,27.41-5.64,39.35-42.96,26.52-66.17,7.25-6.71,12.1-17.28,14.12-34.64,37.8-5.58,59.43-44.27,41.61-79.97,15.79-11.91,35.82-30.04,45.69-45.58Z"/>
  <g>
    <g>
      <path class="cls-3" d="m383.07,206.47c-18.8,25.57,15.09,25.39,27.44,36.15-7.73,20.14-26.38,36.98-29.55,59.12,5.29,18.83,81.34-48.73,75.81-59.81-.85-4.39-4.59-7.56-8.22-10.17-7.56-6.24-24.26-20.49-24.26-20.49,0,0,9.49-32.47,9.94-51.5-5.53-22.73-46.79,39.43-51.15,46.7Z"/>
      <g>
        <path class="cls-11" d="m63.13,79.61c8.25,9.55,51.17,32.49,57.08,19.66,5.91-12.83-33.73-30.91-45.35-32.9-11.62-1.98-19.98,3.69-11.73,13.24Z"/>
        <path class="cls-11" d="m101.23,35.59c2.32,9.48,23.81,40.38,32.39,33.63,8.58-6.76-12.35-33.16-19.66-38.62-7.3-5.46-15.06-4.49-12.74,4.99Z"/>
        <path class="cls-11" d="m59.62,125.95c8.71-4.4,46.16-8.16,46.61,2.75.45,10.91-33.23,12.17-42.12,10.17-8.89-2-13.2-8.53-4.49-12.92Z"/>
      </g>
      <path class="cls-7" d="m182.52,305.23c-44.4-12-89.34,32.96-71.33,77.24,16.51,40.6,79.91,48.47,99.22,6,7.72-16.98,3.84-35.2-10.59-47.04-14.69-12.06-38.42-15.58-51,1.31-7.1,9.54-8.17,23.73-.56,33.4,10.7,13.59,42.39,6.08,33.37-12.88-2.87-6.03-12.22-4.05-14.09-9.99-4.03-12.82,16.19-5.84,20.42-2.24,15.64,13.3,5.32,38.02-10.81,45.54-38.91,18.13-68.26-28.87-41.7-65.04,27.53-37.5,87.96-14.08,97.5,27.03,10.2,43.95-30.98,81.59-73.11,79.04-51.39-3.11-87.23-56.4-65.09-104.44,9.11-19.77,26.89-35.31,47.91-41.17,12.08-3.37,26.38-4.01,38.37.22,3.21,1.14,8.48,1.97,8.95,6.42s-3.15,7.46-7.46,6.61Z"/>
    </g>
    <g>
      <g>
        <g>
          <path class="cls-10" d="m309.81,269.98c11.47-4.5,21.42-4.41,30.49-2.68,15.71,3,31.03,9.01,43.59,18.89,12.57,9.89,22.82,23.73,25.45,39.51,1.78,10.68.25,22.23-11.43,31.2-12.54,9.63-33.62,11.96-48.92,7.98,0,0,.36-9.9-7.56-39.98-10.98-41.72-31.63-54.91-31.63-54.91Z"/>
          <path class="cls-5" d="m411.68,325.31c-2.5-15.04-11.85-29.59-26.32-40.98-12.08-9.5-27.09-16.02-44.62-19.36-11.33-2.16-21.43-1.27-31.8,2.8l1.74,4.42c9.5-3.73,18.77-4.54,29.18-2.56,16.54,3.15,31.26,9.53,42.57,18.43,13.54,10.66,22.27,24.16,24.57,38.03,2.07,12.43-1.38,21.89-10.53,28.92-2.99,2.3-6.43,4.11-10.1,5.53,2.36-14.14.36-26.27-5.99-36.1-6.37-9.86-15.63-15.14-22.01-17.79,5.84-1.38,11.94-1.69,17.94-.8,1.3.19,2.51-.7,2.7-2,.19-1.3-.7-2.51-2-2.7-4.62-.68-9.3-.71-13.9-.15l-.66-7.52c-.12-1.31-1.28-2.24-2.58-2.16-1.31.12-2.27,1.27-2.16,2.58l.7,7.89c-7.29,1.56-14.25,4.63-20.28,9.09-1.05.78-1.28,2.27-.5,3.32.47.63,1.18.96,1.91.96.49,0,.99-.15,1.41-.47,3.07-2.27,6.4-4.14,9.9-5.6,3.13.82,17.32,5.16,25.58,17.98,6.02,9.35,7.63,21.17,4.82,35.14-10.7,2.89-22.62,2.72-31.63.37l-1.2,4.6c4.75,1.24,10.25,1.91,15.99,1.91,12.24,0,25.57-3.07,34.98-10.3,10.53-8.09,14.68-19.35,12.33-33.47Z"/>
        </g>
        <g>
          <path class="cls-10" d="m195.91,328.9c-19.92-6.63-75.4-37.44-70.96-114.11l47.19-1.66c3.87,23.39,8.06,36.83,18.37,45.11,10.31,8.28,25.94,14.34,38.84,11.42,0,0-10.97,9.36-18.74,24.06-7.77,14.7-14.7,35.18-14.7,35.18Z"/>
          <path class="cls-5" d="m229.86,271.84c-8.09,1.88-16.36.56-23.82-2.12-3.73-1.35-7.34-3.07-10.74-5.11-3.39-2.08-6.65-4.34-9.56-7.34-2.17-2.22-3.98-4.74-5.51-7.37-8.97,9.7-21.78,15.68-34.89,16.99-3.25.32-6.53.36-9.78.07,2.19,5.4,4.83,10.6,7.89,15.57,6.17,9.94,13.99,18.87,23.07,26.31,4.52,3.73,9.29,7.21,14.35,10.19,5.04,3.01,10.31,5.72,15.75,7.73l.05.02c1.11.43,1.7,1.65,1.35,2.78-.38,1.18-1.63,1.83-2.82,1.47-11.87-3.78-22.62-10.12-32.29-17.78-9.6-7.75-18.01-17.08-24.43-27.66-6.44-10.56-11.12-22.22-13.56-34.31-2.64-12.05-3.01-24.45-2.21-36.63.07-1.18,1.08-2.12,2.28-2.08,1.24.02,2.22,1.04,2.19,2.28v.07c-.13,5.92-.18,11.86.41,17.74.09,1.47.23,2.94.45,4.39.18,1.47.32,2.94.54,4.39.52,2.89.97,5.81,1.69,8.66.91,4.05,2.06,8.05,3.44,11.96,16.25,1.08,32.66-5.2,44.29-16.59-1.38-3.05-2.46-6.17-3.39-9.31-2.17-7.52-3.5-15.1-4.68-22.69-.18-1.18.63-2.33,1.83-2.55.13-.02.27-.04.39-.04,1.06,0,2.01.75,2.21,1.85,1.36,7.46,2.82,14.91,4.91,22.04,2.15,7.09,5.09,13.95,10.08,18.94,2.44,2.48,5.43,4.66,8.54,6.58,3.1,1.92,6.42,3.53,9.83,4.79,6.82,2.51,14.22,3.73,21.13,2.35h.05c1.18-.23,2.35.5,2.62,1.69.29,1.2-.47,2.42-1.67,2.69Z"/>
        </g>
        <g>
          <path class="cls-10" d="m348.75,401.08h-156.07c-.91-20.7-3.01-143.89,78.04-143.89s78.94,123.19,78.03,143.89Z"/>
          <path class="cls-5" d="m319.5,275.25c-12.81-13.78-29.22-20.75-48.77-20.75s-35.98,6.98-48.79,20.75c-34.1,36.65-32.81,107.36-32.06,123.59,0,0,.31,4.9,5.27,4.9h151.04c4.79,0,5.26-4.92,5.26-4.92.75-16.23,2.13-86.92-31.96-123.57Zm-3.93,3.66c2.04,2.19,3.93,4.54,5.71,7l-9.8,23.28-18.1-5.44c-.85-.25-1.77-.03-2.4.6-.63.62-.87,1.54-.63,2.39l5.81,20.24-22.82,20.49v-87.53c16.84.6,31.04,6.96,42.23,18.97Zm-89.7,0c11.15-11.99,25.33-18.35,42.14-18.97v87.43l-22.72-20.39,5.81-20.24c.25-.85,0-1.77-.63-2.39-.63-.62-1.55-.85-2.4-.6l-18.1,5.44-9.81-23.3c1.78-2.46,3.66-4.8,5.69-6.99Zm-30.67,115.85c-.33-20.43,1.16-71.01,21.75-104.05l9.42,22.37c.48,1.14,1.75,1.73,2.93,1.38l15.94-4.79-5.01,17.44c-.26.89.02,1.85.71,2.47l27.08,24.31v44.53h-69.09c-2.03,0-3.7-1.62-3.73-3.65Zm151.05-.28c-.03,2.19-1.82,3.93-4.01,3.93h-68.9v-44.44l27.18-24.4c.69-.62.97-1.58.71-2.47l-5.01-17.44,15.94,4.79c1.18.35,2.45-.24,2.93-1.38l9.41-22.35c20.48,32.89,22.05,83.15,21.74,103.76Z"/>
        </g>
        <g>
          <g>
            <g>
              <path class="cls-10" d="m451.13,121.7c-4.34-19.87-21.51-59.52-46.85-82.02-25.34-22.51-44.35-24.05-57.35-17.95-12.31,5.78-21.48,27.15-25.11,47.8-15.16-7.9-32.38-12.39-50.66-12.39-17.22,0-33.51,3.97-48.01,11.03-.66-3.9-2.48-32.43-26.34-46.3-4.33-2.52-9.59-3.03-14.59-2.67-4.99.36-10.35,1.43-14.89,3.55-15.22,7.13-30.18,19.58-40.5,32.84-9.54,12.26-15.05,25.64-21.59,39.73-6.54,14.09-10.81,29.38-11.1,44.92-.15,8.13,1.37,17.32,8.03,21.99,5.2,3.65,12.37,3.45,18.2.93,5.82-2.52,10.53-7.05,14.78-11.77,19.17-21.24,30.97-47.95,42.74-74.04,3.2,5.78,6.81,10.91,10.61,16.68-17.94,19.55-27.19,44.33-27.19,72.96,0,60.67,49.19,109.86,109.86,109.86s109.86-49.19,109.86-109.86c0-27.92-10.43-53.39-27.59-72.77,4.35-3.95,10.32-10.17,13.84-17.21,0,0,8,21.79,20.67,41.57,12.67,19.78,23.01,43.29,44.18,45.12,21.17,1.83,23.34-22.14,19.01-42.01Z"/>
              <path class="cls-6" d="m317.68,89.47c.69,5.74-1.43,11.75-5.58,15.77-4.14,4.03-10.21,5.98-15.93,5.12-1.04-.16-2.13-.39-3.11-.01-1.01.39-1.67,1.35-2.33,2.22-3.14,4.08-7.7,6.95-12.62,8.5-4.91,1.55-10.16,1.82-15.29,1.34-6.18-.59-12.69-2.57-16.44-7.52-.56-.74-1.07-1.56-1.85-2.08-1.55-1.04-3.6-.61-5.46-.48-5.61.37-11.17-2.71-14.39-7.32-3.23-4.61-4.26-10.54-3.46-16.11-1.16,6.71-1.85,13.95,1.06,20.11,2.91,6.16,9.33,11,16.12,10.44,1.04-.09,2.1-.29,3.12-.06,1.68.39,2.85,1.86,3.98,3.17,5.32,6.12,12.95,10.28,21.03,11,8.07.72,16.49-2.13,22.17-7.91,2.04-2.08,3.75-4.52,6.16-6.16,3.25-2.22,7.36-2.69,11.03-4.12,9.06-3.54,15.05-13.66,13.8-23.31-.21-1.57-.43-2.81-1.99-2.56Z"/>
              <path class="cls-8" d="m177.89,77.36s13.66,29.31,28.07,19.75c14.41-9.55-13.63-36.18-19.89-39.78l-8.18,20.03Z"/>
              <path class="cls-8" d="m367.28,77.02l-7.22-20.46s-17.03,12.11-22.67,26.03c-5.64,13.91,3.12,15.95,8.52,15.47,5.4-.48,17.8-12.34,21.38-21.04Z"/>
              <path class="cls-6" d="m380.66,158.02c.25,2.96.38,5.96.38,8.97,0,60.68-49.2,109.86-109.86,109.86s-109.86-49.18-109.86-109.86c0-3.03.13-6.03.38-8.99,4.54,56.5,51.82,100.91,109.49,100.91s104.95-44.41,109.49-100.9Z"/>
            </g>
            <g>
              <path class="cls-5" d="m367.09,80.75c-2.53,4.41-4.94,8.35-8.03,11.86-1.65,1.87-.84,3.58.61,5.47,19.75,25.67,27.46,54.66,22.56,86.64-4.74,30.87-19.97,55.73-45.27,74.06-37.48,27.15-86.52,28.76-125.55,4.24-18.42-11.57-32.64-27.13-41.62-47.02-17.66-39.12-14.54-76.7,9.3-112.45,2.03-3.04,4.55-5.76,6.87-8.61.58-.72,1.25-1.27.27-2.23-1.63-1.61-2.93-3.5-4.15-5.45-1.16-1.85-2.29-3.73-3.43-5.61-.76.14-.74.84-.94,1.31-7.46,17.83-16.95,34.61-26.91,51.1-5.82,9.63-13.5,17.82-22.18,25-4.08,3.38-8.54,5.96-13.92,6.69-10.99,1.49-18.97-3.72-21.9-14.49-2.14-7.87-1.88-15.86-.79-23.84,2.83-20.78,11.75-39.07,23.04-56.4,8.12-12.47,16.42-24.77,27.46-34.97,10.69-9.88,23.08-16.16,37.47-18.23,9.41-1.36,17.94.91,25.22,7.33,7.59,6.7,12.01,15.35,15.45,24.64,1.62,4.37,2.86,8.85,3.65,13.45.25,1.48.72,1.89,2.24,1.23,29.84-12.86,59.74-12.67,89.65-.23,4.47,1.86,4.32,1.87,5.35-2.88,2.41-11.03,6.13-21.57,13.15-30.56,9.3-11.92,21.34-16.17,36.19-12.57,13.55,3.29,25.29,9.76,34.77,19.89,19.06,20.35,34.11,43.34,43.46,69.75,3.8,10.74,5.71,21.93,5.15,33.42-.16,3.28-.63,6.51-1.51,9.66-3.14,11.19-12.41,16.59-23.75,13.96-4.67-1.08-8.59-3.49-12.19-6.5-10.89-9.11-19.77-19.9-26.6-32.36-8.08-14.74-16.63-29.24-23.09-45.34Zm-8.26-21.33c-.45.36-.67.48-.83.66-7.57,8.04-14.55,16.55-20.07,26.18-.32.56-.64,1.17-1.1,1.6-.62.57-1.45.85-2.24.33-.66-.43-.93-1.18-.76-1.94.16-.7.5-1.38.81-2.04,2.73-5.8,6.32-11.06,10.36-15.98,3-3.66,6.14-7.27,9.91-10.14,1.9-1.44,3.21-2.52,2.14-5.19-.48-1.2-.41-3.33,1.25-3.74,1.61-.4,1.86,1.55,2.25,2.69,8.69,25.36,20.49,49.24,33.86,72.42,5.77,10,12.76,18.95,21.1,26.87,2.96,2.81,6.03,5.56,9.7,7.42,8.12,4.1,19.2,3.83,22.88-8.37,1.05-3.46,1.51-7.03,1.59-10.63.26-11.67-2.13-22.89-6.2-33.74-7.86-20.98-20.19-39.34-34.07-56.65-9.61-11.99-21.31-21.36-36.55-25.46-6.54-1.76-13.09-2.94-19.75-.88-8.49,2.62-13.97,8.81-18.24,16.18-4.88,8.42-7.67,17.61-9.53,27.13-.69,3.55-.26,7.16-.96,10.7-.25,1.26-.77,2.29-2.04,2.4-1.43.12-1.89-1-2.01-2.25-.1-.97-.36-1.96-.26-2.91.18-1.67-.54-2.48-1.98-3.18-5.82-2.81-11.79-5.22-18.01-6.97-24.83-6.97-49.07-5.23-72.76,4.88-1.53.65-2.13,1.43-1.92,3.12.22,1.77.21,3.58-.14,5.37-.23,1.2-.48,2.46-1.88,2.45-1.54,0-2.31-1.24-2.32-2.67-.03-3.04-.54-6.01-.93-9.01-1.53-11.86-5.33-22.92-12.19-32.72-7.25-10.36-17.07-14.99-29.88-12.44-13.64,2.72-25.24,9.12-34.88,19.05-15.34,15.8-26.98,34.2-36.69,53.82-6.88,13.9-10.93,28.66-10.63,44.34.1,5.08.75,10.12,3.36,14.65,2.34,4.06,5.86,6.22,10.53,6.54,6.37.44,11.57-2.19,16.26-6.17,8.47-7.18,15.92-15.3,21.68-24.8,14.74-24.36,27.5-49.69,36.79-76.69.4-1.15.79-2.35,1.44-3.36.81-1.25,1.79-1.07,2.31.32.56,1.5.53,3.07-.08,4.54-.43,1.03-.25,1.6.74,2.16,2.15,1.22,3.85,3,5.57,4.76,3.84,3.91,7.14,8.26,10.6,12.5,2.75,3.36,4.58,7.06,6.34,10.9.54,1.18.73,2.57-.61,3.24-1.33.66-2.25-.29-2.92-1.46-2.97-5.18-6.36-10.08-9.98-14.8-3.36-4.38-7.08-8.48-11.11-12.7-2.41,5.53-3.65,11.13-6.2,16.21-.32.65-.05,1.27.32,1.84,4.13,6.43,7.79,13.27,14.73,17.31.99.57,1.91,1.25,2.88,1.86,1.02.63,2.09,1.39,1.44,2.7-.63,1.27-1.96.99-3.05.6-2.02-.72-3.76-1.97-5.44-3.26-1.17-.9-1.89-.78-2.78.4-2.52,3.32-4.96,6.69-7.23,10.18-30.44,46.83-20.23,108.93,23.59,143.39,55.5,43.64,138.28,21.9,164.41-43.74,15.18-38.14,9.49-74.02-15.01-106.93-1.36-1.82-2.6-2.84-4.65-1.02-.35.31-.87.47-1.34.56-1.11.23-2.42.58-2.9-.88-.41-1.24.49-1.94,1.54-2.41,3.71-1.68,6.79-4.43,9.36-7.32,3.15-3.55,5.86-7.62,8.19-11.84.37-.67.68-1.34.3-2.08-2.54-5.02-3.74-10.55-6.09-15.89Z"/>
              <path class="cls-5" d="m315.29,90.94c.02-.79.01-1.85.07-2.91.04-.74.14-1.53,1.03-1.74.87-.2,1.41.43,1.76,1.06,1.47,2.66,2,5.49,1.3,8.5-2.27,9.87-11.87,17.07-22.2,16.49-1.71-.1-2.72.43-3.97,1.58-13.96,12.84-27.83,14.71-44.29,5.88-2.1-1.13-3.84-2.78-5.32-4.64-.8-1.01-1.62-1.35-2.92-1.19-2.68.31-5.39.27-8.04-.31-7.12-1.57-11.05-6.18-12.29-13.24-.61-3.47-.95-6.96-.55-10.48.1-.88.2-1.96,1.38-1.96,1.09,0,1.11,1.04,1.24,1.82.53,3.05.91,6.14,1.54,9.16,1.61,7.68,6.28,11.26,14.08,11.09,1.55-.03,2.01-.32,1.38-1.93-1.38-3.49-1.83-7.08-.82-10.79,1.43-5.3,6.11-8.37,10.82-7.03,4.8,1.37,7.57,6.62,6.15,11.71-1.08,3.86-3.32,6.99-6.74,8.98-2.1,1.22-1.47,1.91-.14,3.06,4.43,3.88,9.87,5.18,15.43,6.27,9.79,1.91,17.3-2.93,24.69-8.2,1.2-.86,1-1.4-.17-2.29-4.07-3.09-7-6.86-6.42-12.41.32-3.02,1.52-5.54,4.37-6.89,2.77-1.31,5.27-.29,7.55,1.34,4.38,3.13,5.98,8.21,4.11,13.72-.68,2-.18,2.22,1.68,2.32,6.39.34,16.68-8.74,15.29-16.98Zm-72.97,9.8c.14,2.44.63,4.64,1.58,6.76.43.96.89,1.22,1.84.7,3.18-1.73,5.37-4.26,6.06-7.84.53-2.72-1.19-5.41-3.54-5.9-2.51-.52-4.72,1.08-5.49,4.01-.21.79-.32,1.6-.45,2.27Zm52.33.99c0-3.08-1.44-5.26-4.03-6.75-1.64-.94-2.77-.39-3.53,1.22-1.41,2.99-.04,5.36,1.79,7.55,1.06,1.28,2.38,3.3,3.92,2.71,1.54-.59,1.64-2.97,1.86-4.74Z"/>
              <path class="cls-5" d="m413.42,110.82c.93-3.22,2.7-6.46,5.09-9.37.43-.52,1.14-.59,1.79-.2.64.38.94,1.04.78,1.66-.95,3.65-2.67,6.93-5.14,9.78-.43.49-1.12.65-1.79.29-.67-.37-.69-1.04-.73-2.16Z"/>
              <path class="cls-5" d="m132.1,111.24c0,1.11.01,1.88-.78,2.27-.77.37-1.53.06-1.98-.51-2.2-2.83-3.94-5.94-4.88-9.42-.19-.71.09-1.46.85-1.86.67-.36,1.38-.24,1.79.28,2.28,2.88,4.07,6.03,5.01,9.25Z"/>
              <path class="cls-5" d="m428.22,109.23c-.98,2.93-2.72,6.03-5.09,8.76-.48.56-1.26.84-2,.34-.85-.58-.66-1.36-.33-2.18,1.28-3.12,3.31-5.79,5.14-8.58.36-.54.94-.98,1.67-.59.68.36.71,1.03.61,2.26Z"/>
              <path class="cls-5" d="m377.73,56.86c-1.19-3.13-1.72-6.79-1.56-10.54.03-.67.56-1.15,1.31-1.24.74-.08,1.38.27,1.62.86,1.44,3.49,2.03,7.14,1.77,10.9-.05.65-.51,1.2-1.26,1.3-.76.11-1.18-.41-1.88-1.28Z"/>
              <path class="cls-5" d="m388.61,46.7c.98,2.93,1.45,6.45,1.19,10.06-.05.74-.51,1.43-1.39,1.47-1.03.05-1.35-.69-1.57-1.54-.85-3.26-.83-6.62-1.05-9.95-.04-.65.16-1.35.98-1.48.76-.12,1.19.39,1.84,1.44Z"/>
              <path class="cls-5" d="m282.12,82.92c-3.32-.47-6.77-1.77-9.99-3.73-.57-.35-.74-1.05-.45-1.75.28-.68.9-1.08,1.54-1.01,3.75.43,7.23,1.67,10.4,3.72.55.36.8,1.02.53,1.73-.28.72-.93.83-2.03,1.03Z"/>
              <path class="cls-5" d="m278.48,68.49c3.04.56,6.35,1.85,9.38,3.82.62.4,1.01,1.13.61,1.93-.46.92-1.25.85-2.11.63-3.27-.83-6.2-2.47-9.21-3.89-.59-.28-1.1-.79-.82-1.57.26-.73.92-.85,2.15-.92Z"/>
              <path class="cls-5" d="m118.23,107.34c.75-.01,1.18.38,1.49.86,1.72,2.67,3.64,5.22,4.91,8.15.36.82.81,1.76-.18,2.42-1.05.7-1.94.03-2.53-.76-1.85-2.49-3.52-5.11-4.51-8.07-.32-.96-.52-2.14.81-2.6Z"/>
            </g>
          </g>
          <g>
            <g>
              <g>
                <path class="cls-2" d="m336.13,191.7c-2.6,1.29-5.53,3.79-6.45,7.14-.9,3.27.52,5.79,2.17,7.38,3.72,3.59,8.89,4.98,14.49,3.91,2.91-.56,6.4-2.21,8.31-5.82,3.97-7.51-1.78-11.04-5.12-12.91-3.67-2.06-8.58-2.08-13.4.3Z"/>
                <path class="cls-5" d="m344.62,205c-.13,1.22-1.06,1.97-2.19,1.78-1.22-.2-2-1.24-1.84-2.45.14-1.07.99-1.73,2.11-1.65,1.26.09,2.06,1.06,1.92,2.32Z"/>
                <path class="cls-5" d="m349.06,197.7c-.05,1.19-.89,2.05-2,2.06-1.18.01-2.02-.94-1.99-2.27.03-1.3.76-2.05,1.95-2.02,1.24.03,2.09.95,2.04,2.22Z"/>
                <path class="cls-5" d="m336.17,196.99c.07-1.25.9-2.12,1.99-2.07,1.05.05,1.9,1.07,1.84,2.23-.06,1.18-.98,2.1-2.04,2.06-1.12-.05-1.86-.97-1.79-2.22Z"/>
              </g>
              <g>
                <path class="cls-2" d="m195.15,198.03c-2.2,1.69-4.38,4.59-4.31,7.9.07,3.25,2.23,5.35,4.34,6.55,4.76,2.69,10.32,3.05,15.57,1.01,2.73-1.06,5.71-3.26,6.55-7,1.73-7.8-5.03-10.06-8.91-11.21-4.26-1.26-9.15-.38-13.24,2.76Z"/>
                <path class="cls-5" d="m202.16,208.12c.11-1.24.93-2,2.08-1.92,1.29.08,2.13,1.14,1.98,2.52-.12,1.13-1.09,1.93-2.2,1.81-1.19-.12-1.98-1.14-1.86-2.41Z"/>
                <path class="cls-5" d="m198.11,201.69c.1-1.12.95-1.86,1.98-1.74,1.05.13,1.98,1.36,1.88,2.47-.09,1.01-1.25,2-2.21,1.88-.99-.13-1.78-1.36-1.66-2.62Z"/>
                <path class="cls-5" d="m209.69,200.2c1.05.13,1.72,1.02,1.63,2.16-.08,1.02-.9,1.78-1.84,1.71-1.09-.08-1.84-1.11-1.69-2.32.14-1.12.82-1.68,1.9-1.55Z"/>
              </g>
            </g>
            <g>
              <g>
                <path class="cls-10" d="m203.64,123.85c.1,8.32,25.22,13.09,27.03.66,1.81-12.43-27.14-9.84-27.03-.66Z"/>
                <path class="cls-5" d="m215.11,114.56c12.72-.97,16.41,4.22,17.48,5.88,1.5,2.32.89,5.31-.52,7.22-.99,1.34-2.26,2.38-3.68,3.27-2.36,1.49-5,2.03-7.7,2.22-4.71.34-9.35-.02-13.76-1.84-2.98-1.23-5.6-3.99-5.18-7.77.71-6.51,10.13-8.53,13.37-8.99Zm14.2,8.11c-1.35-2.63-3.73-3.93-6.46-4.37-2.82-.45-5.71-.21-8.58.11-1.52.17-8.44,1.25-8.73,5.46-.13,1.82,1.25,3.02,2.89,3.62,3.91,1.44,7.99,2.1,12.13,1.55,9.42-1.26,9.19-5.52,8.75-6.38Z"/>
              </g>
              <g>
                <path class="cls-10" d="m305.82,122.11c-.12,8.32,24.86,13.76,27,1.38,2.14-12.38-26.87-10.56-27-1.38Z"/>
                <path class="cls-5" d="m317.54,113.13c2.38-.27,11.99-1.59,17.32,6.34,1.43,2.36.75,5.33-.71,7.21-1.02,1.32-2.33,2.32-3.77,3.17-2.4,1.43-5.05,1.89-7.76,2.02-4.71.21-9.35-.27-13.7-2.21-2.95-1.31-5.49-4.14-4.97-7.9.89-6.49,10.35-8.26,13.6-8.63Zm13.98,8.48c-.78-2.89-3.63-4.03-6.35-4.54-2.81-.53-5.71-.36-8.58-.11-1.52.13-8.47,1.02-8.88,5.23-.17,1.82,1.17,3.05,2.79,3.7,3.87,1.55,7.92,2.14,12.09,1.87,2.24-.15,9.58-.64,8.92-6.14Z"/>
              </g>
            </g>
            <g>
              <g>
                <path class="cls-10" d="m218.05,137.39c-15-1.49-27.85,12.92-27.33,27.87.51,14.95,13.12,26.74,28.33,25.88,15.21-.86,25.59-15.46,24.85-27.24-.74-11.78-6.2-24.56-25.85-26.51Z"/>
                <path class="cls-5" d="m209.08,191.93c-11.89-3.73-20.23-14.99-19.91-27.5.33-13.15,8.89-24.7,21.92-27.73,12.02-2.8,24.89,2.7,31.08,13.38,4.59,7.92,4.81,18.44,1.21,26.84-5.53,12.89-21.3,19.09-34.3,15.01Zm-3.97-48.18c-4.82,2.81-8.28,7.09-10.44,12.2-1.07,2.52-1.62,5.01-1.49,7.75.06,1.31-.1,2.66,1.34,2.05,1.88-.79,3.6-2.99,5.38-4.08,3.34-2.04,7.08-3.3,10.93-3.91,8.96-1.43,18.47.2,25.77,5.77.73.56,2.84,3.25,3.72,3.36,1.49.19,1.02-4.15.93-5.04-.32-3.14-1.37-6.26-2.88-9.03-6.4-11.7-21.82-15.74-33.27-9.06Zm-.97,32.46c7.26.67,6.92-11.32-.21-10.08-5.12.89-5.24,9.57.21,10.08Z"/>
              </g>
              <g>
                <path class="cls-10" d="m323.08,137.39c-15-1.49-27.85,12.92-27.33,27.87.51,14.95,13.12,26.74,28.33,25.88,15.21-.86,25.59-15.46,24.85-27.24-.74-11.78-6.2-24.56-25.85-26.51Z"/>
                <path class="cls-5" d="m314.1,191.93c-11.89-3.73-20.23-14.99-19.91-27.5.33-13.15,8.89-24.7,21.92-27.73,12.02-2.8,24.89,2.7,31.08,13.38,4.59,7.92,4.81,18.44,1.21,26.84-5.53,12.89-21.3,19.09-34.3,15.01Zm-3.97-48.18c-4.82,2.81-8.28,7.09-10.44,12.2-1.07,2.52-1.62,5.01-1.49,7.75.06,1.31-.1,2.66,1.34,2.05,1.88-.79,3.6-2.99,5.38-4.08,3.34-2.04,7.08-3.3,10.93-3.91,8.96-1.43,18.47.2,25.77,5.77.73.56,2.84,3.25,3.72,3.36,1.49.19,1.02-4.15.93-5.04-.32-3.14-1.37-6.26-2.88-9.03-6.4-11.7-21.82-15.74-33.27-9.06Zm-.97,32.46c7.26.67,6.92-11.32-.21-10.08-5.12.89-5.24,9.57.21,10.08Z"/>
              </g>
            </g>
            <g>
              <g>
                <g>
                  <path class="cls-7" d="m257.49,188.8c2.71,2.15,5.49,4.26,8.66,5.63,3.17,1.37,6.8,1.96,10.11.96,4.27-1.29,7.37-4.95,9.76-8.71.84-1.32,1.64-2.71,1.97-4.25.32-1.54.11-3.26-.91-4.46-.78-.92-1.94-1.43-3.09-1.8-6.02-1.94-13.28-1.66-19.47-.37-3.51.73-6.36,2.59-9.13,5.01-3.06,2.67-.35,6.04,2.1,7.99Z"/>
                  <path class="cls-13" d="m259.62,161.1c4.56-5.21,12.69-7.33,18.81-4.1,3.52,1.86,6.09,5.23,7.56,8.93,1.47,3.7,1.91,7.74,1.94,11.72-.01-1.28-12.6-1.29-13.87-1.21-4.96.31-9.32,2.4-14.09,3.08-9.69,1.39-3.46-14.87-.35-18.43Z"/>
                  <path class="cls-1" d="m264.99,180.24c-1.39.48-2.85,1.05-3.76,2.2-.92,1.15-1.04,3.07.13,3.97.54.42,1.25.54,1.93.62,2.07.24,4.17.17,6.22-.21,1.42-.26,2.88-.71,3.91-1.72,1.03-1.02,1.49-2.74.69-3.95-.64-.97-1.86-1.37-3.01-1.55-1.85-.29-4.36.03-6.12.64Z"/>
                </g>
                <g>
                  <path class="cls-4" d="m312.21,206.56c-1.7,4.47-5.63,14.83-8.35,21.73-1.31,3.32-2.33,5.84-2.69,6.51-8.35,15.81-19.83,18.1-35.88,16.45-9.57-.98-19.19-11.35-26.07-22.79-4.36-7.23-7.63-14.89-9.1-20.89.64-1.13,2.3-.87,3.55-.51,8.38,2.42,17.67,1.98,25.72-1.35,3.61-1.5,6.97-3.58,9.88-6.24.5-.47,1.03-.96,1.7-1.12,1.32-.32,2.51.8,3.47,1.78,2.69,2.77,5.85,5.11,9.3,6.86,2.69,1.35,5.57,2.34,8.53,2.89,6.77,1.26,14.01.17,19.94-3.33Z"/>
                  <path class="cls-10" d="m283.74,207c-.41,1.75-1.12,3.43-1.99,5.01-.68,1.2-1.45,2.38-2.53,3.23-1.21.95-2.73,1.43-4.26,1.69-2.54.43-5.16.29-7.63-.43-1-.28-1.96-.65-2.8-1.24-1.65-1.18-2.64-3.05-3.43-4.92-.66-1.51-1.23-3.05-1.7-4.62,3.61-1.5,6.97-3.58,9.88-6.24.5-.47,1.03-.96,1.7-1.12,1.32-.32,2.51.8,3.47,1.78,2.69,2.77,5.85,5.11,9.3,6.86Z"/>
                  <path class="cls-7" d="m303.86,228.29c-1.31,3.32-2.33,5.84-2.69,6.51-8.35,15.81-19.83,18.1-35.88,16.45-9.57-.98-19.19-11.35-26.07-22.79.65-.68,1.38-1.31,2.19-1.84,1.76-1.19,3.79-1.94,5.85-2.48,7.37-1.9,15.52-.68,22.03,3.3,5.47-4.98,13.21-7.33,20.52-6.25,5.29.77,10.26,3.35,14.05,7.1Z"/>
                  <path class="cls-1" d="m251.47,233.83c.47,2.27,2.07,4.14,3.74,5.76,2.8,2.72,6.49,5.18,10.33,4.5,1.11-.2,2.2-.68,2.92-1.55,1.46-1.77.92-4.44-.09-6.49-1.44-2.91-3.7-5.42-6.45-7.16-4.1-2.59-11.79-1.53-10.44,4.95Z"/>
                </g>
              </g>
              <g>
                <path class="cls-5" d="m275.85,197.18c-.11.61.17.86.42,1.11,4.36,4.43,9.46,7.47,15.72,8.26,3.41.43,6.81,1.15,10.29.58,5.62-.91,10.58-3.12,14.67-7.15.82-.81,1.63-1.63,2.74-2.04.81-.3,1.24.01,1.36.82.13.9-.18,1.69-.57,2.47-1.29,2.61-3.35,4.51-5.81,5.91-1.98,1.13-2.97,2.46-3.52,4.84-2.32,9.98-6.11,19.42-11.49,28.18-3.38,5.52-8.02,9.39-14.24,11.54-7.66,2.65-15.28,3.12-23.07.88-5.27-1.51-9.6-4.48-13.29-8.44-5.07-5.43-9.46-11.36-13.01-17.9-2.62-4.82-4.46-9.95-6.02-15.18-.44-1.46-1.05-2.51-2.47-3.25-2.62-1.37-4.92-3.23-7.07-5.26-.62-.59-1.19-1.25-1.69-1.94-.44-.62-.59-1.37-.05-2,.55-.64,1.31-.52,2-.24,1.01.4,1.83,1.12,2.69,1.76,3.18,2.37,6.45,4.61,10.35,5.62,8.08,2.1,16.17,2.58,24.17-.32,3.7-1.35,6.79-3.72,9.48-6.58,1.34-1.43,1.28-1.63-.52-2.19-4.86-1.53-8.85-4.43-12.32-8.05-3.49-3.63-3.05-7.65,1.02-10.67,3.06-2.28,6.55-3.66,10.27-4.21,5.65-.83,11.32-.69,16.94.43,1.48.29,2.92.75,4.29,1.39,2.12.99,3.12,2.63,3,4.99-.08,1.54-.52,2.97-1.13,4.35-1.86,4.16-4.75,7.49-8.39,10.19-1.44,1.08-3.18,1.54-4.75,2.08Zm-3.88,52.33c1.95-.04,3.97-.09,5.93-.58,3.48-.87,7.04-1.6,10.19-3.4,5.8-3.32,8.71-8.98,11.61-14.63.27-.53.09-.96-.24-1.38-1.16-1.5-2.49-2.77-4.27-3.54-3.81-1.65-7.81-2.45-11.95-2.49-3.06-.03-6.03.39-8.61,2.26-2.16,1.57-2.05,1.62-.3,3.3,2.01,1.93,3.38,4.27,4.16,6.95.21.71.34,1.45-.34,1.98-.74.58-1.51.32-2.19-.15-.9-.62-1.59-1.46-2.21-2.34-1.16-1.66-2.57-3.08-3.96-4.54-6.07-6.36-17.39-8.25-26.04-2.76-1.27.81-1.32.88-.44,2.15,2.96,4.25,6.24,8.24,9.99,11.84,2.63,2.53,5.61,4.44,9.09,5.62,3.1,1.04,6.28,1.5,9.59,1.71Zm35.56-38.84c-3.21.83-5.98,1.34-8.79,1.14-4.37-.31-8.75-.64-12.93-2.1-1.05-.37-1.59-.16-1.86.97-.48,1.99-1.48,3.74-2.83,5.26-1.68,1.89-3.71,3.18-6.34,3.2-2.59.02-5.16-.19-7.7-.78-3.61-.83-5.9-3.11-7.14-6.5-.68-1.85-.62-1.81-2.64-1.34-6.35,1.49-12.74,2.12-19.21.71-1.6-.35-3.21-.63-5.01-.98.47,1.9,1.28,3.42,1.92,4.99,1.2,2.92,2.58,5.76,4.1,8.53,1.08,1.96,1.09,1.94,2.84.76,1.78-1.21,3.62-2.36,5.73-2.92,7.09-1.9,13.93-1.37,20.41,2.25q1.61.9,2.79-.38c2.4-2.6,5.4-4.03,8.87-4.38,2.57-.26,5.16-.22,7.74.08,5.31.6,10.29,1.98,14.3,5.78.13.13.39.13.64.2,2-4.6,3.58-9.31,5.1-14.49Zm-33.09-33.23c-1.87.07-3.73.12-5.6.2-3.76.16-7.16,1.39-10.29,3.43-2.57,1.68-2.69,3.26-.45,5.32,1.8,1.66,3.76,3.15,5.84,4.4,3,1.8,6.26,2.75,9.87,2.29,2.32-.29,4.15-1.26,5.89-2.79,2.54-2.24,4.48-4.85,5.76-7.94.97-2.34.56-3.06-1.85-3.71-3-.81-6.06-1.17-9.17-1.21Zm-.62,24.32c-.48,1.04-.33,1.84-.38,2.61-.08,1.22-.01,2.47-.4,3.63-.27.82-.27,2.13-1.53,2.02-1.17-.1-1.16-1.3-1.27-2.2-.18-1.53-.31-3.07-.49-5.04-2.52,2.25-4.78,4.21-7.4,5.69-.45.25-.42.72-.16,1.13,1.45,2.26,2.95,4.48,5.89,4.96,1.77.29,3.54.6,5.33.78,1.82.18,3.43-.44,4.64-1.82,1.29-1.48,2.11-3.24,2.6-5.14.14-.54.14-1.02-.37-1.33-2.33-1.44-4.24-3.39-6.45-5.28Z"/>
                <path class="cls-5" d="m269.49,164.93c2.74-.1,5.44.08,7.96,1.3.51.25,1.03.52,1.48.86.98.72,1.35,1.8.93,2.59-.45.84-1.45,1.18-2.64.76-1.55-.54-3.02-1.23-4.7-1.42-2.35-.27-4.56-.05-6.68,1.06-.63.33-1.32.56-1.97.85-.87.39-1.73.46-2.27-.45-.53-.9-.03-1.69.61-2.29,1.65-1.53,3.52-2.7,5.77-3.14.49-.1,1-.08,1.5-.12Z"/>
              </g>
            </g>
          </g>
          <path class="cls-3" d="m361.88,163.61c-1-16-8.34-35.68-37.6-38.59-9.71-.97-19.33,2.49-27.06,9.74-6.92,6.49-11.44,15.26-12.73,24.36-1.06-2.06-4.53-6.24-13.88-6.24s-13.99,5.15-14.03,5.19c-2.34-14.7-11.04-30.47-36.99-33.05-9.7-.97-19.33,2.49-27.06,9.74-8.59,8.05-13.49,19.63-13.1,30.97.37,10.66,4.89,20.49,12.75,27.66,7.26,6.63,16.55,10.22,26.36,10.21.76,0,1.52-.02,2.28-.06,9.93-.56,19.25-5.21,26.24-13.08,6.9-7.78,10.69-17.81,10.12-26.84-.02-.33-.05-.66-.07-.99,1.59-1.38,7.17-3.62,13.61-3.62,9.24,0,11.61,3.07,13.39,4.74-.01.66-.01,1.32.01,1.98.37,10.66,4.89,20.49,12.75,27.66,7.26,6.63,16.55,10.22,26.36,10.21.76,0,1.52-.02,2.28-.06,9.93-.56,19.25-5.21,26.24-13.08,6.9-7.78,10.69-17.81,10.12-26.85Zm-118.83,23.27c-6.03,6.79-14.03,10.8-22.52,11.28-9.2.53-17.97-2.59-24.71-8.75-6.78-6.19-10.69-14.67-11-23.88-.34-9.81,3.93-19.85,11.4-26.85,5.87-5.5,12.95-8.44,20.19-8.44.88,0,1.77.04,2.65.13,20.47,2.03,31.49,13.33,32.76,33.57.48,7.63-2.8,16.21-8.77,22.94Zm104.68,0c-6.03,6.8-14.03,10.8-22.51,11.28-9.2.53-17.97-2.59-24.71-8.75-6.78-6.19-10.69-14.67-11-23.88-.34-9.81,3.92-19.85,11.4-26.85,5.87-5.5,12.95-8.44,20.19-8.44.88,0,1.77.04,2.65.13,20.47,2.03,31.49,13.33,32.76,33.57.48,7.63-2.8,16.21-8.77,22.94Z"/>
          <g>
            <g>
              <path class="cls-5" d="m118.29,228.6c12.69-7.34,26.11-12.97,40.4-16.24,6.69-1.53,13.56-2.31,20.35-3.38,1.03-.16,3.83-.76,4.35.81.51,1.58-5.75,2.88-8.25,3.28-19.38,3.11-37.37,10.35-55.21,18.13-1.7.74-5.15,1.87-5.55,1.14-.39-.74,2.37-2.85,3.9-3.73Z"/>
              <path class="cls-5" d="m112.6,189.73c-.26-1.66,5.25-2.76,7.82-3.21,16.77-2.96,33.59-3.87,50.46-.75,2.31.43,4.57,1.16,6.84,1.8,1.91.61,3.38,1.7,3.12,2.72s-1.31.95-1.91.89c-2.8-.28-5.59-.68-8.37-1.16-12.31-2.14-24.69-1.95-37.09-1.18-5.63.35-11.24.88-16.87,1.24-1.16.08-3.88.44-4-.35Z"/>
              <path class="cls-5" d="m119.51,206.94c6.64-3.45,13.85-5.25,21.08-6.86,12.63-2.82,25.38-4.09,38.31-2.63,1.3.15,3.24.02,3.24,1.79,0,1.73-1.89,1.47-3.12,1.52-3.93.16-7.87.22-11.81.31-15.54.36-30.56,3.67-45.39,8.05-1.98.58-5.54,2.25-6.06,1.35s2.29-2.78,3.74-3.53Z"/>
            </g>
            <g>
              <path class="cls-5" d="m422.81,228.77c-12.5-7.65-25.78-13.6-40-17.22-6.65-1.69-13.5-2.64-20.26-3.88-1.02-.19-3.81-.86-4.36.71-.55,1.56,5.68,3.02,8.17,3.48,19.29,3.58,37.11,11.26,54.75,19.47,1.68.78,5.11,2,5.52,1.27.41-.73-2.3-2.91-3.81-3.83Z"/>
              <path class="cls-5" d="m429.44,190.06c.3-1.66-5.18-2.89-7.74-3.4-16.69-3.37-33.49-4.69-50.42-1.98-2.32.37-4.6,1.05-6.88,1.63-1.93.56-3.42,1.62-3.19,2.64.23,1.03,1.28.98,1.89.94,2.81-.21,5.61-.54,8.39-.95,12.36-1.84,24.73-1.34,37.11-.28,5.62.49,11.22,1.15,16.84,1.65,1.16.1,3.87.53,4.01-.26Z"/>
              <path class="cls-5" d="m422.11,207.1c-6.56-3.61-13.72-5.58-20.91-7.37-12.55-3.12-25.28-4.71-38.24-3.56-1.31.12-3.24-.06-3.28,1.71-.04,1.73,1.85,1.52,3.08,1.6,3.93.26,7.87.41,11.8.6,15.53.74,30.46,4.42,45.18,9.15,1.96.63,5.48,2.38,6.02,1.5s-2.22-2.83-3.66-3.62Z"/>
            </g>
          </g>
        </g>
      </g>
      <g>
        <g>
          <path class="cls-12" d="m221.24,486.43c-13.73-6.61-13.25-20.05-10.35-29.74,0,0-12.65.58-19.28-11.99-8.21-15.5,7.61-25.52,7.61-25.52h.02c-5.19-5.04-9.92-12.85-9.92-24.61,0-16.93,10.18-27,22.98-22.83,0,0,3.89-21.08,25.93-24.26,16.05-2.33,27.49,9.6,27.49,9.6,5.26-4.73,13.23-7.22,24.37,1.16,0,0,13.38-15.63,30.64-7.31,13.73,6.61,13.25,20.05,10.33,29.76,0,0,12.66-.58,19.3,11.97,8.19,15.52-8.32,26.02-8.32,26.02l-.09-.06c6.01,4.83,12.44,13.19,10.95,26.29-1.9,16.82-14.15,24.9-26.92,20.72,0,0-.19,21.06-22.23,24.26-16.05,2.33-27.51-9.6-27.51-9.6-5.26,4.75-13.21,7.22-24.37-1.18,0,0-13.36,15.63-30.63,7.31Z"/>
          <g>
            <path class="cls-15" d="m218.3,422.76c-3.57-.73-7.56.39-9.91,3.18s-2.71,7.2-.52,10.1c2.68,3.56,8,4.09,10.99,7.39,3.43,3.79,2.63,9.63,3.79,14.61,1.56,6.66,7.45,12.21,14.26,12.9,6.8.68,13.9-3.91,15.63-10.53,1.73-6.62-2.58-14.35-9.23-15.94-3.09-.74-6.48-.29-9.36-1.65-2.52-1.19-4.27-3.65-5.22-6.28-1.01-2.81-.64-6.01-2.32-8.46-1.79-2.61-5.06-4.69-8.13-5.32Z"/>
            <path class="cls-15" d="m199.74,396.75c-.06,6.2,2.67,12.8,8.17,15.66,2.88,1.5,7.05,1.52,8.78-1.23,1.05-1.68.86-3.86.31-5.76-.55-1.91-1.41-3.74-1.6-5.71-.31-3.22,1.2-6.3,2.58-9.23,1.63-3.46,3.45-7.95.98-11.47-1.76-2.51-4.93-3.92-7.83-2.78-7.23,2.84-11.33,13.43-11.39,20.52Z"/>
            <path class="cls-15" d="m325.42,421.78c-7.53.58-14.18,6.78-15.55,14.2s2.5,15.45,9.02,19.24c6.47,3.76,15.39,3.13,20.84-2,11.3-10.62.82-32.61-14.32-31.44Z"/>
          </g>
        </g>
        <g>
          <path class="cls-5" d="m270.69,486.32c2-.62,3.78-1.59,5.37-2.75,8.74,8.34,21.81,12.15,33.43,8.25,10.4-2.9,17.65-12.58,18.74-23.12,23.56,4.62,34.72-27.27,21.91-44.83-1.29-1.81-2.74-3.46-4.3-4.97,6.1-5.06,13.07-15.24,6.66-27.35-5.21-9.87-13.73-12.42-18.34-13.06,3.13-13.64-1.29-24.38-12.38-29.72-15.19-7.32-27.69,2.32-31.96,6.32-6.58-4.46-12.82-5.81-18.56-4.02-2.03.63-3.85,1.62-5.46,2.81-3.88-3.33-14.28-10.78-27.94-8.8-18.77,2.72-25.36,17.68-27.28,23.71-5.14-1.04-10.07-.05-14.11,2.88-6.1,4.42-9.59,12.77-9.59,22.91,0,11.02,3.97,18.83,8.73,24.24-4.18,3.45-8.79,9.48-8.79,17.07,0,3.08.76,6.42,2.62,9.94,5.21,9.87,13.73,12.42,18.34,13.06-3.13,13.65,1.29,24.38,12.38,29.72,15.19,7.32,27.69-2.32,31.96-6.32,6.58,4.46,12.82,5.81,18.56,4.02Zm-48.41-2.06c-12.36-5.95-11.76-17.91-9.07-26.88.22-.75.07-1.56-.41-2.18-.48-.62-1.23-.97-2.01-.94-.46.02-11.24.29-17.05-10.69-5.72-10.82,1.99-18.59,5.36-21.3,6.22,5.41,12.51,7.35,12.64,7.39,1.28.38,2.62-.35,3-1.63.38-1.28-.35-2.63-1.63-3.01-.87-.26-21.37-6.67-21.37-30.44,0-8.57,2.77-15.49,7.59-18.99,3.44-2.49,7.66-3.03,12.21-1.54.66.22,1.39.13,1.98-.22.6-.35,1.02-.95,1.15-1.64.15-.79,3.89-19.41,23.89-22.31,11.15-1.61,20.03,4.38,23.64,7.33-4.58,5.11-6.69,11.26-6.82,11.64-.08.25-.12.51-.12.76,0,1.01.64,1.96,1.66,2.29,1.27.42,2.64-.26,3.06-1.53.04-.12,4.12-12.01,12.74-14.69,4.66-1.45,10.02.07,15.91,4.51,1.02.77,2.46.61,3.29-.36.5-.58,12.41-14.1,27.75-6.71,12.35,5.95,11.75,17.9,9.07,26.88-.22.75-.07,1.56.41,2.18.48.62,1.23.97,2.01.94.46-.02,11.24-.3,17.05,10.69,5.82,11.02-2.72,19.18-6.16,21.88-2.65-1.96-5.57-3.58-8.73-4.86-2.98-1.13-4.71,3.32-1.77,4.5,5.61,2.22,11.11,6.29,14.6,11.31,10.88,14.82,1.22,43.73-20.1,36.58-1.37-.06-2.51,1.03-2.52,2.4-.9,8.99-6.91,17.8-15.93,20.14-7.81,2.45-16.29,1.11-23.36-2.91-1.51-.8-3.02-1.78-4.4-2.79,4.51-5.09,6.59-11.14,6.72-11.52.42-1.28-.27-2.64-1.53-3.06-1.27-.42-2.64.26-3.06,1.53-.04.12-4.12,12.01-12.74,14.69-4.66,1.45-10.02-.07-15.91-4.51-1.02-.77-2.46-.61-3.29.36-.5.58-12.41,14.1-27.75,6.71Z"/>
          <g>
            <path class="cls-5" d="m277.96,434.67c-8.96-8.59-24.46-5.45-30.93,4.71-.43.68-.8,1.4-1.14,2.14-8.63-8.04-24.79-6.67-30.57,4.27-.81,1.45,1.08,3.03,2.37,1.97,8.11-6.39,19.57-6.4,27.39.39.54.45,1.14.97,1.91.96,1.24.05,2.28-.92,2.33-2.16,1.51-6.74,9.01-11.71,15.76-11.92,7.11-.3,14.09,5.31,15.84,12.27.2.77.93,1.32,1.76,1.25.92-.07,1.61-.88,1.54-1.81-.37-4.63-2.79-8.96-6.24-12.07Z"/>
            <path class="cls-5" d="m296.04,444.44c-1.13,1.54,1.01,3.47,2.43,2.17,8.88-7.83,22.53-5.2,27.82,5.34.38.78,1.27,1.21,2.14.98,4-1.32-2.24-9.58-4.2-11.08-7.83-7.51-21.95-6.33-28.19,2.59Z"/>
            <path class="cls-5" d="m239.13,380.79c-3.7,2.5-6.4,6.35-7.7,10.85-1.91-.77-3.99-1.11-6.04-.95-3.27.25-6.44,1.77-8.69,4.17-.92.98-.87,2.51.11,3.42.47.44,1.06.66,1.66.66.64,0,1.29-.26,1.77-.76,1.43-1.53,3.45-2.49,5.53-2.66,2.09-.16,4.23.48,5.88,1.77.69.53,1.61.66,2.42.33.8-.33,1.37-1.08,1.47-1.94.57-4.64,2.81-8.5,6.32-10.87,3.57-2.42,8.46-2.39,11.36.06,1.02.86,2.55.74,3.41-.29.86-1.02.73-2.55-.29-3.41-4.58-3.87-11.81-4.02-17.2-.37Z"/>
          </g>
        </g>
      </g>
      <g>
        <g>
          <g>
            <circle class="cls-3" cx="292.36" cy="398.42" r="30.21"/>
            <path class="cls-5" d="m292.36,431.01c-8.71,0-16.89-3.39-23.05-9.54-6.16-6.16-9.54-14.34-9.54-23.05,0-17.97,14.62-32.59,32.59-32.59s32.59,14.62,32.59,32.59-14.62,32.59-32.59,32.59Zm0-60.43c-15.35,0-27.84,12.49-27.84,27.84,0,7.44,2.89,14.43,8.15,19.69,5.26,5.26,12.25,8.15,19.69,8.15,15.35,0,27.84-12.49,27.84-27.84s-12.49-27.84-27.84-27.84Z"/>
          </g>
          <g>
            <g>
              <path class="cls-14" d="m298.73,407.09c-1.92,1.42-4.16,2.08-6.37,2.08-3.3,0-6.57-1.51-8.68-4.39-19.01-25.92-44.68-39.35-74.19-38.76-12.56.25-22.19,3.95-32.39,7.87-15.43,5.94-31.37,12.05-54.24,4.34-44.48-15-61.49-61.08-55.28-98.83,2.53-15.39,8.41-28.66,16.93-39.12,13.17-16.25,32.66-25.69,55.53-25.69h34.87c5.94,0,10.76,4.83,10.76,10.76s-4.82,10.76-10.76,10.76h-34.87c-17.79,0-30.48,7.43-38.85,17.9-6.74,8.43-10.71,18.82-12.38,28.88-4.74,28.79,7.82,63.77,40.93,74.94,15.52,5.24,25.63,1.35,39.62-4.04,10.96-4.22,23.37-8.99,39.69-9.31,36.75-.68,68.65,15.73,91.98,47.57,3.52,4.79,2.48,11.52-2.31,15.03Z"/>
              <path class="cls-1" d="m226.82,359.38c4.14,1.47,8.38,2.62,12.53,4.06,14.5,5.04,27.71,13.72,38.09,25.03,2.59,2.82,5.01,5.81,7.72,8.52,1.2,1.2,2.73,2.43,4.39,2.1,1.24-.25,2.18-1.39,2.49-2.62.32-1.23.11-2.54-.23-3.76-1.3-4.59-4.53-8.36-7.89-11.74-14.56-14.66-33.51-24.9-53.75-29.06-2.57-.53-6.49-.7-7.88,2.19-1.35,2.81,2.47,4.56,4.53,5.29Z"/>
              <path class="cls-3" d="m185.67,225.35c0,5.96-4.82,10.76-10.76,10.76h-34.87c-17.79,0-30.48,7.43-38.85,17.9l-16.68-13.74c13.17-16.25,32.66-25.69,55.53-25.69h34.87c5.94,0,10.76,4.83,10.76,10.76Z"/>
              <path class="cls-1" d="m74.93,271.6c-5.77,17.59-5.43,37.12.94,54.51.66,1.8,1.41,3.62,2.76,4.97,1.35,1.35,3.45,2.13,5.23,1.42,1.65-.66,2.63-2.44,2.87-4.2s-.15-3.54-.5-5.28c-2.94-14.52-3.84-29.63-.82-44.13,3.02-14.51,10.16-28.4,21.43-38.02,2.09-1.78,8.27-6.34,5.67-9.72-1.93-2.51-7.09-.58-9.19.61-8.58,4.86-15.83,14.96-20.79,23.24-3.13,5.24-5.69,10.81-7.59,16.61Z"/>
            </g>
            <path class="cls-5" d="m302.96,390.65c-23.79-32.46-56.24-49.22-93.93-48.53-16.75.32-29.37,5.18-40.52,9.46-14.03,5.4-23.31,8.96-38.01,4-31.86-10.75-43.9-44.51-39.34-72.31,3.55-21.65,18.26-44.78,48.88-44.78h34.87c7.24,0,13.14-5.89,13.14-13.14s-5.89-13.14-13.14-13.14h-34.87c-38.79,0-68.15,26.22-74.81,66.8-6.36,38.74,11.13,86.04,56.87,101.47,23.69,7.98,40.04,1.7,55.87-4.39,9.99-3.84,19.43-7.47,31.56-7.7,28.71-.57,53.69,12.49,72.23,37.79,2.46,3.36,6.43,5.37,10.6,5.37,2.81,0,5.49-.88,7.76-2.54,5.84-4.28,7.11-12.52,2.83-18.36Zm-162.92-173.68h34.87c4.62,0,8.39,3.76,8.39,8.39s-3.76,8.39-8.39,8.39h-34.87c-17.62,0-30.42,6.93-39.18,16.92l-12.97-10.68c12.73-14.59,30.93-23.01,52.14-23.01Zm157.28,188.21c-1.45,1.06-3.16,1.62-4.95,1.62-2.67,0-5.2-1.28-6.77-3.43-19.09-26.04-44.72-39.75-74.23-39.75-.64,0-1.29,0-1.93.02-12.96.25-22.78,4.03-33.19,8.03-15.02,5.78-30.56,11.76-52.63,4.31-43.23-14.58-59.74-59.43-53.7-96.19,2.31-14.06,7.51-26.28,14.97-36.12l13,10.71c-6.14,8.4-9.83,18.4-11.42,28.13-4.89,29.78,8.15,65.99,42.51,77.59,16.33,5.51,27.32,1.28,41.25-4.08,10.77-4.14,22.97-8.83,38.89-9.14,36-.7,67.17,15.43,90.01,46.58,2.73,3.73,1.92,8.99-1.8,11.72Z"/>
          </g>
        </g>
        <g>
          <path class="cls-10" d="m173.2,207.31c.1.94.17,1.93.2,2.97.06,2.17-1.71,3.95-3.88,3.96l-6.63.02-.02-.04c.72,7.08-.09,13.79-.74,17.57-.51,2.96-1.87,5.7-3.92,7.89-.09.1-.15.15-.15.15-3.51,4.54-9.15,8.36-14.92,10.61h0s0,0,0,0c-2,.78-4.02,1.38-5.97,1.75-6.87,1.3-14.75.5-21.15-2.62-13.67-6.66-19.73-25.96-20.05-37.17-.21-7.46.94-15.16,4.74-21.59,3.43-5.81,8.89-10.29,15.02-13.13,6.12-2.84,12.9-4.1,19.64-4.35,23.41-.87,36.56,22.01,37.84,33.98Z"/>
          <g>
            <path class="cls-5" d="m135.29,171.54c-7.64.28-14.48,1.8-20.33,4.52-6.77,3.14-12.39,8.06-15.81,13.85-1.54,2.61-2.73,5.51-3.56,8.69-1.09,4.16-1.57,8.8-1.42,13.87.32,11.17,6.4,33.35,21.14,40.53,6.46,3.15,14.79,4.18,22.27,2.77,8.32-1.58,17.11-6.78,21.92-12.96,0,0,7.51-8.79,5.33-26.75l4.7-.02c1.55,0,3-.62,4.08-1.73,1.07-1.1,1.63-2.55,1.59-4.07-.03-1.07-.1-2.11-.21-3.11-1.34-12.47-14.75-36.51-39.69-35.58Zm36.12,35.97c.1.89.16,1.84.19,2.82.01.55-.19,1.07-.58,1.47-.4.41-.94.64-1.51.64h-3.51c-.86-6.41-4.56-13.01-9.2-18.09-.67-.73-1.8-.78-2.53-.12-.73.67-.78,1.8-.12,2.53,4.39,4.8,6.28,11.26,6.93,17.48,0,0,0,0,0,0,0,.12.01.24.04.36.66,6.77-.14,13.21-.77,16.86-.07.39-.15.77-.25,1.15-.57,2.18-1.67,4.17-3.21,5.81-.05.05-.22.23-.26.29-2.84,3.69-7.47,7.04-12.44,9.29-.61-5.42-1.34-10.79-1.84-16.12-.26-3-.49-5.99-.64-8.98-.11-2.99-.14-5.95-.11-9v-.06c0-.75-.6-1.37-1.35-1.38-.57,0-1.07.35-1.27.85-1.24,3.03-1.86,6.27-2.14,9.49-.23,3.22-.15,6.44.19,9.61.36,3.17.58,9.11,2.69,17.29-1.45.5-1.45.43-2.88.7-3.62.69-7.44.72-11.11.19-.63-5.7-1.41-11.34-1.94-16.95-.26-3-.49-5.99-.64-8.98-.11-2.99-.14-5.95-.11-9v-.06c0-.75-.6-1.37-1.35-1.38-.57,0-1.07.35-1.27.85-1.24,3.03-1.86,6.27-2.14,9.49-.23,3.22-.77,7.5,2.44,24.89-1.88-.49-2.24-.71-3.9-1.52-12.6-6.14-18.72-24.52-19.04-35.61-.24-8.24,1.27-15.19,4.49-20.63,3.05-5.17,8.11-9.58,14.23-12.42,5.42-2.51,11.8-3.92,18.95-4.19,21.57-.8,34.7,20.33,35.99,32.38Z"/>
            <path class="cls-5" d="m139.46,200.82c1.24,1.49.39,3.03-1.75,3.3-3.15.4-6.32.64-9.49.97-1.94.2-3.88.49-5.83.64-.81.06-1.79-.14-2.01-1.05-.22-.87.47-1.47,1.24-1.86,5.29-2.66,10.94-2.95,16.69-2.51.45.03.87.38,1.14.51Z"/>
            <path class="cls-5" d="m119.93,192.85c4.09-1.62,8.97-2.63,14.1-1.71.86.15,1.46.75,1.41,1.72-.04.77-.59,1.14-1.29,1.25-4.5.67-8.96,1.68-13.53,1.82-.85.03-1.93-.1-2.23-1.09-.18-.6.31-1.23,1.54-1.98Z"/>
          </g>
        </g>
      </g>
      <g>
        <path class="cls-10" d="m311.13,321.35c-3.63,3.11-7.72,7.97-9.13,12.54-1.49,4.81-1.56,9.67-.29,13.84h0c-11.76,14.85-20.39,32.44-14.41,37.31,4.82,3.92,13.37-.32,20.81-5.77h0c3.34,3.69,8.27,7.49,13.07,9.58l-.12.11s.06-.04.16-.09c.77.33,1.54.63,2.3.87,14.19,4.42,31.43-5.26,39.17-13.02,5.15-5.17,9.49-11.42,11.09-18.54,1.45-6.44.57-13.28-1.89-19.4-2.46-6.12-6.43-11.56-11.06-16.26-16.07-16.3-40.75-8.82-49.69-1.16Z"/>
        <g>
          <path class="cls-5" d="m337.63,340.54c-2.14.6-2.33,2.61-.49,4.25,2.72,2.42,5.56,4.71,8.33,7.07,1.7,1.45,3.34,2.98,5.09,4.38.73.58,1.78,1.02,2.58.32.77-.68.51-1.69.03-2.56-3.27-5.94-8.42-9.88-14.14-13.2-.45-.26-1.07-.2-1.4-.26Z"/>
          <path class="cls-5" d="m358.26,342.77c-3.42-3.71-7.94-7.19-13.69-8.8-.96-.27-1.88.05-2.31,1.07-.34.81.04,1.47.71,1.93,4.31,2.94,8.41,6.2,13.05,8.63.86.45,2.04.86,2.85,0,.49-.53.3-1.42-.6-2.81Z"/>
          <path class="cls-5" d="m373.05,366.65c-2.06,3.99-5.01,7.92-8.76,11.68-7.79,7.82-25.94,18.42-41.47,13.59-6.97-2.17-12.96-7.62-15-9.64-3.02,2.12-5.74,3.7-8.54,4.95-1.94.83-4.29,1.7-7.03,1.81-1.88.08-5.38-.24-7.8-3.27-.86-1.13-1.39-2.49-1.62-4.19-.16-1.17-.14-2.4.05-3.85.35-2.64,1.14-4.98,1.78-6.73.75-2.02,1.66-4.06,2.78-6.24.89-1.72,1.89-3.5,3.17-5.6,2.51-4.07,5.39-8.15,8.55-12.13-1.01-4.31-.78-9.2.64-13.81.32-1.03.77-2.11,1.33-3.2,1.81-3.51,4.99-7.4,8.5-10.4,9.43-8.09,35.43-16.32,52.8,1.29,5.3,5.37,9.18,11.09,11.56,17.01,2.76,6.87,3.46,14.24,2,20.76-.6,2.66-1.58,5.33-2.93,7.94v.03Zm-47.41,21.51c12.41,2.09,28.59-6.21,35.41-13.05,3.42-3.43,6.09-6.98,7.94-10.55,1.17-2.27,2.03-4.58,2.54-6.87,1.27-5.62.63-12.03-1.78-18.05-2.15-5.35-5.7-10.57-10.57-15.5-14.57-14.78-37.71-8.63-46.57-1.03-2.38,2.05-5.58,5.49-7.41,9.04-.44.85-.78,1.67-1.02,2.44-.78,2.53-1.14,5.17-1.05,7.69,1.18-1.34,2.3-2.56,3.4-3.7,3.56-3.67,6.65-6.46,9.74-8.78,3.7-2.68,7.4-5.15,12.15-6.07.48-.09.97,0,1.37.28s.68.69.77,1.17c.08.4.02.82-.17,1.19-.25.47-.68.82-1.2.94-3.83.9-7.36,3.46-10.3,5.84-3.06,2.54-6.07,5.44-8.95,8.62-5.82,6.49-10.83,13.24-14.89,20.08-.86,1.45-1.66,2.9-2.39,4.31-1.18,2.28-2.2,4.54-3.04,6.71-.8,2.14-1.3,3.97-1.52,5.58-.27,1.92-.1,3.51.47,4.27.23.33.77.78,1.41,1.03.6.26,1.33.38,2.18.38,1.47,0,3.21-.41,5.31-1.24,4.07-1.65,9.18-4.46,16.25-12.7l1.1-1.29c1.59-1.86,3.17-3.71,4.81-5.51,1.34-1.5,2.63-3.05,3.92-4.61.62-.75,1.24-1.49,1.87-2.24,1.91-2.39,3.74-4.77,5.42-7.07.61-.84,1.76-1.02,2.57-.42.72.52.96,1.49.56,2.29l-.42.83c-1.17,2.27-2.59,4.63-4.33,7.21-1.68,2.51-3.58,4.91-5.41,7.23l-.15.18c-1.84,2.32-3.93,4.63-6.21,6.86l-5.98,5.81c2.98,2.86,6.53,5.37,9.83,6.94,1.8-1.56,3.62-3.08,5.43-4.61,2.34-1.97,4.67-3.92,6.93-5.92,1.93-1.73,4.22-3.79,6.46-5.93,1.9-1.86,3.85-3.85,6.12-6.26.38-.4.84-.61,1.33-.62.49-.01.96.16,1.32.5.54.51.72,1.29.46,1.99-.35.93-.77,1.88-1.25,2.82-.94,1.82-4.23,5.85-11.58,12.3-2.48,2.17-5.06,4-7.57,5.57-1.13.71-2.22,1.35-3.3,1.93Z"/>
        </g>
      </g>
    </g>
  </g>
</svg>