<?xml version="1.0" encoding="UTF-8"?>
<svg id="_01" data-name="01" xmlns="http://www.w3.org/2000/svg" viewBox="0 0 512 512">
  <defs>
    <style>
      .cls-1 {
        opacity: .4;
      }

      .cls-1, .cls-2, .cls-3, .cls-4, .cls-5, .cls-6, .cls-7, .cls-8, .cls-9, .cls-10, .cls-11 {
        stroke-width: 0px;
      }

      .cls-1, .cls-9 {
        fill: #fff;
      }

      .cls-2, .cls-8 {
        fill: #e38372;
      }

      .cls-3 {
        fill: #edbf71;
      }

      .cls-4 {
        fill: #e1777f;
      }

      .cls-4, .cls-8 {
        opacity: .3;
      }

      .cls-6 {
        fill: #e3e3e3;
      }

      .cls-7 {
        fill: #e88572;
      }

      .cls-10, .cls-11 {
        fill: #91bfe2;
      }

      .cls-11 {
        opacity: .5;
      }
    </style>
  </defs>
  <path class="cls-9" d="m482.53,406.94c-3.34,8.37-10.74,14.49-19.8,16.81,16.54,23.08-6.64,51.05-32.96,43.82-5.62,14.19-22.52,24.95-37.57,19.81,2.45,15.75-14.14,32.17-30.82,20.89-10.94-7.72-24.87-9.65-41.8-9.85-14.29,0-25.73,2.05-34.98,6.27-5.91,2.99-10.74,7.37-17.39,6.99-9.99.07-17.17-9.51-29.82-11-15.1-3.34-32.23-3.26-47.2.3-11.15,1.52-17.98,10.65-28.56,10.88-35.56-1.7-12.59-66.13-11.36-87.31-10.58,23.16-41.47,41.82-59.23,17.45-14.47-17.96,8.03-69.65,9.91-80.82-20.01-2.02-62.18-6.53-71.22-28.19-7.3-16.24,4.28-36.65,21.83-38.78-25.57-37.5-2.04-85.75,42.47-90.24-5.5-5.1-3.74-20.2-1.67-24.01-56.06-29.31-1-125.18,33.09-156.77,37.1-34.22,88.21-31.52,105.22,19.09,23.87-6.86,47.87-6.56,71.77.62,59.07-147.08,291.32,120.8,118.16,251.16,4.47,11.46,6.36,23.74,5.53,36.06,24.11-11.56,47.62,15.88,37.93,37.68,14.78,6.03,24.87,24.48,18.47,39.14Z"/>
  <g>
    <g>
      <path class="cls-7" d="m468.46,172.4c-.22-11.27-4.31-22.65-11.69-31.17-9.13-10.57-23.57-15.42-37.54-15.49-10.74-.04-21.72,2.62-30.34,9-15.12,11.18-20.38,31.37-21.92,50.11-2.01,24.05,16.21,96.59,31.9,99.56,15.69,2.98,70.55-61.51,69.58-112.02Zm-38.92,32.55c-27.82,13.71-50.82-29.62-26.54-47.21,29.71-21.49,59.19,31.08,26.54,47.21Z"/>
      <path class="cls-10" d="m176.99,295.16c3.43-4.98,2.18-11.8-2.81-15.23-4.98-3.43-11.8-2.18-15.23,2.81-8.38,12.17-20.42,22.1-33.97,28.26-1.34-4.28-2.65-8.47-3.91-12.49,0,0,.01,0,.02,0h0c16.15-8.76,25.08-28.81,20.76-46.65-3.29-13.61-12.45-24.01-25.14-28.55-14.38-5.14-31.34-2.28-44.25,7.46-8.93,6.75-14.07,17.39-14.09,29.19-.02,13.49,6.51,26.83,17.04,34.83,7.04,5.34,15.6,8.24,24.22,8.58,1.38,4.41,2.83,9.05,4.32,13.8-14.74,2.22-30.26.52-43.94-5.13-5.59-2.31-12,.35-14.3,5.94-2.31,5.59.35,12,5.94,14.3,17.97,7.42,37.73,9.61,56.8,6.45.71-.12,1.42-.29,2.13-.42,3.1,9.91,6.16,19.64,8.87,28.33-7.78,18.26-13.3,37.42-16.38,57.04-.94,5.98,3.15,11.58,9.12,12.52,1.19.19,2.37.17,3.49-.01,4.53-.75,8.27-4.32,9.03-9.11,2.21-14.04,5.77-27.84,10.64-41.17l31.37,28.58c4.47,4.07,11.4,3.75,15.47-.72,4.07-4.47,3.75-11.4-.72-15.47l-40.8-37.16c-2.77-8.87-5.91-18.88-9.11-29.1,18.26-7.68,34.13-20.48,45.42-36.87Zm-96.71-35.17c0-3.51.94-8.39,5.38-11.74,3.61-2.73,7.84-4.5,12.1-5.2,3.98-.66,8-.4,11.57.88,4.03,1.44,9.25,4.88,11.23,13.07,2.02,8.36-2.33,18.13-9.91,22.24-6.59,3.57-15.83,2.77-21.98-1.9-5.1-3.88-8.39-10.69-8.39-17.35Z"/>
      <path class="cls-3" d="m450.23,444.28c1.86-4.64-.44-10.11-4.16-13.43-3.73-3.33-8.61-4.99-13.35-6.56-1.52-.51-3.39-1.14-5.54-1.86,2.34-6.82,4.8-14.02,7.2-21.01,2.52.97,4.73,1.82,6.51,2.53,4.47,1.77,9.08,3.58,13.89,3.51,4.81-.07,9.91-2.47,11.69-6.94,1.86-4.64-.44-10.11-4.16-13.43-3.73-3.33-8.61-4.99-13.35-6.56-1.77-.59-4.05-1.36-6.67-2.24,1.9-5.58,3.48-10.26,4.54-13.42,1.25-3.76,2.52-7.74,1.7-11.62-.91-4.29-5.95-7.96-10.27-8.44-5.48-.61-8.66,4.22-10.43,8.69-1.6,4.03-3.96,10.23-6.72,17.57-8.57-2.93-17.89-6.13-26.74-9.16,2.15-6.31,3.94-11.59,5.09-15.05,1.25-3.76,2.52-7.74,1.7-11.62-.91-4.29-5.95-7.96-10.27-8.44-5.48-.61-8.66,4.22-10.43,8.69-1.72,4.33-4.3,11.13-7.32,19.17-5.17-1.76-9.5-3.23-12.49-4.22-3.76-1.25-7.74-2.52-11.62-1.7-4.29.91-7.96,5.95-8.44,10.27-.61,5.48,4.22,8.66,8.69,10.43,3.75,1.49,9.37,3.64,16.04,6.15-2.86,7.67-5.77,15.51-8.5,22.82-5.13-1.75-9.44-3.2-12.4-4.19-3.76-1.25-7.74-2.52-11.62-1.7-4.29.91-7.96,5.95-8.44,10.27-.61,5.48,4.22,8.66,8.69,10.43,3.73,1.48,9.3,3.61,15.91,6.1-1.17,3.07-2.2,5.72-3.02,7.79-1.77,4.47-3.58,9.08-3.51,13.89.07,4.81,2.47,9.91,6.94,11.69,4.64,1.86,10.11-.44,13.43-4.16,3.33-3.73,4.99-8.61,6.56-13.35.64-1.92,1.48-4.41,2.46-7.31,8.25,3.07,16.74,6.23,24.61,9.17-1.22,3.2-2.28,5.95-3.13,8.09-1.77,4.47-3.58,9.08-3.51,13.89.07,4.81,2.47,9.91,6.94,11.69,4.64,1.86,10.11-.44,13.43-4.16,3.33-3.73,4.99-8.61,6.56-13.35.66-1.97,1.52-4.54,2.54-7.54,2.06.79,3.88,1.5,5.39,2.1,4.47,1.77,9.08,3.58,13.89,3.51,4.81-.07,9.91-2.47,11.69-6.94Zm-70.97-38.24c2.47-7.22,5.11-14.92,7.67-22.4,8.65,3.22,17.61,6.55,25.87,9.64-2.68,7.21-5.42,14.57-8.01,21.51-8.18-2.8-17.05-5.84-25.53-8.74Z"/>
    </g>
    <g>
      <g>
        <g>
          <path class="cls-9" d="m227.59,266.97c-20.81,4.95-41.71,15.03-55.37,31.49-.84-9.09-.91-16.44-3.91-25.06-3-8.62-8.15-16.75-15.75-21.81-7.24-4.82-16.53-6.51-24.94-4.32-8.41,2.19-15.77,8.3-19.25,16.26-3.43,7.86-3.08,16.83-1.82,25.31,1.74,11.78,5.08,23.31,9.92,34.19,2.77,6.23,6.05,12.3,10.46,17.49,4.41,5.2,10.02,9.52,16.49,11.66,7.95,2.63,16.73,1.84,24.69-.77,7.96-2.61,15.24-6.92,22.34-11.37"/>
          <path class="cls-5" d="m153.91,356c-3.61,0-7.4-.48-11.18-1.74-6.39-2.12-12.43-6.38-17.47-12.32-3.99-4.71-7.42-10.43-10.79-18.02-4.92-11.07-8.31-22.77-10.08-34.76-1.13-7.65-1.92-17.57,1.98-26.51,3.74-8.56,11.48-15.1,20.7-17.5,8.89-2.32,18.88-.59,26.7,4.61,9.27,6.17,14.15,15.86,16.6,22.91,2.52,7.22,3.05,13.7,3.6,20.54,12.61-13.18,31.25-23.17,53.12-28.37,1.18-.29,2.35.45,2.63,1.62.28,1.17-.45,2.35-1.62,2.63-23.03,5.48-42.28,16.41-54.2,30.76-.57.68-1.49.95-2.33.69-.85-.26-1.45-1.01-1.53-1.89-.16-1.67-.28-3.29-.41-4.87-.55-6.92-1.03-12.9-3.39-19.68-2.23-6.41-6.63-15.21-14.9-20.71-6.81-4.53-15.47-6.03-23.18-4.02-7.82,2.03-14.64,7.79-17.8,15.02-3.46,7.92-2.71,17.05-1.66,24.12,1.71,11.6,4.99,22.91,9.75,33.62,3.2,7.2,6.42,12.59,10.13,16.96,4.53,5.33,9.89,9.14,15.52,11,8.61,2.85,17.44,1.16,23.32-.77,7.87-2.58,15.11-6.92,21.85-11.14,1.02-.64,2.37-.33,3.01.69.64,1.02.33,2.37-.69,3.01-6.97,4.37-14.48,8.86-22.82,11.59-3.98,1.3-9.2,2.51-14.87,2.51Z"/>
        </g>
        <g>
          <path class="cls-9" d="m390.5,365.12c2.98-1.48,5.37-3.92,6.96-6.83,8.78-16.1,11.42-35.27,5.9-52.79-5.94-18.86-20.73-34.81-39.23-41.77-18.5-6.96-40.33-4.65-56.75,6.37,0,0,20.85,21,28.89,55.75,8.05,34.75,21.19,40.11,30.56,41.8,11.28,2.04,19.11-.25,23.67-2.52Z"/>
          <path class="cls-5" d="m327.04,258.83c-7.48,1.83-14.63,4.93-21,9.26-1.08.73-1.39,2.19-.69,3.3.72,1.14,2.25,1.46,3.37.7,8.92-5.8,19.41-8.95,30.01-9.54,32.41-2.33,62.43,25.2,64.6,57.29.34,4.45.2,8.92-.38,13.33-4.15-8.86-11.49-16.29-20.4-20.29-9.59-4.3-20.94-4.59-30.84-1.04,3.98-7.46,8.2-14.67,10.28-16.72.95-.93.96-2.46.02-3.41-.93-.95-2.46-.96-3.41-.03-1.21,1.2-3,3.8-5.02,7.11-1.51-1.67-3.43-2.97-5.58-3.66-.67-.22-1.39-.38-2.08-.25-1.22.22-2.11,1.58-1.79,2.8.15.57.51,1.07.89,1.53,1.08,1.34,2.35,2.53,3.76,3.53.58.41,1.21.79,1.87,1.05-5.3,9.35-11.08,21.04-12.44,24.98-.43,1.26.23,2.63,1.49,3.06.41.14.83.17,1.23.09.82-.15,1.54-.74,1.83-1.58.71-2.06,2.93-6.81,5.66-12.2,9.78-5.29,22.15-5.75,32.3-1.21,10.1,4.53,17.95,14.01,20.55,24.76-1.73,6.64-4.43,13.03-7.96,18.9-.69,1.12-.35,2.61.77,3.31,1.13.7,2.61.36,3.32-.77,4.08-6.47,7.2-13.52,9.21-20.9,13.23-48.5-30.24-95.1-79.58-83.44Z"/>
        </g>
        <g>
          <path class="cls-9" d="m342.4,399.03h-155.26c-.91-20.59-3-143.15,77.64-143.15s78.53,122.56,77.62,143.15Z"/>
          <path class="cls-5" d="m313.29,273.85c-12.74-13.7-29.07-20.65-48.52-20.65s-35.8,6.94-48.54,20.65c-33.92,36.46-32.64,106.81-31.89,122.96,0,0,.31,4.87,5.25,4.87h150.26c4.76,0,5.24-4.9,5.24-4.9.75-16.15,2.12-86.47-31.8-122.93Zm-3.91,3.64c2.03,2.18,3.91,4.52,5.68,6.96l-9.75,23.16-18.01-5.42c-.85-.25-1.76-.03-2.39.59-.63.62-.87,1.53-.62,2.38l5.78,20.14-22.7,20.38v-87.08c16.75.59,30.88,6.93,42.01,18.87Zm-89.24,0c11.09-11.92,25.2-18.26,41.93-18.87v86.98l-22.6-20.29,5.78-20.14c.24-.85,0-1.76-.62-2.38-.63-.62-1.54-.84-2.39-.59l-18.01,5.42-9.76-23.18c1.77-2.44,3.64-4.78,5.67-6.95Zm-30.52,115.25c-.33-20.33,1.16-70.64,21.64-103.51l9.37,22.25c.48,1.13,1.74,1.73,2.91,1.37l15.85-4.77-4.98,17.35c-.26.89.02,1.84.71,2.46l26.94,24.18v44.3h-68.73c-2.02,0-3.68-1.61-3.71-3.63Zm150.27-.28c-.03,2.18-1.81,3.91-3.99,3.91h-68.54v-44.21l27.04-24.28c.69-.62.96-1.57.71-2.46l-4.98-17.35,15.85,4.77c1.17.35,2.44-.24,2.91-1.37l9.36-22.24c20.38,32.72,21.93,82.72,21.63,103.22Z"/>
        </g>
        <g>
          <g>
            <g>
              <path class="cls-9" d="m444.25,121.09c-4.32-19.77-21.4-59.21-46.6-81.6-25.21-22.39-44.12-23.93-57.05-17.85-12.24,5.75-21.36,27.01-24.98,47.55-15.08-7.86-32.22-12.32-50.4-12.32-17.13,0-33.33,3.95-47.76,10.97-.66-3.88-2.46-32.26-26.2-46.06-4.31-2.5-9.54-3.02-14.51-2.65-4.97.36-10.3,1.42-14.81,3.53-15.14,7.09-30.03,19.47-40.29,32.67-9.49,12.2-14.97,25.51-21.47,39.53-6.5,14.02-10.76,29.23-11.04,44.68-.15,8.09,1.36,17.23,7.98,21.88,5.17,3.63,12.31,3.44,18.1.93,5.79-2.51,10.47-7.02,14.7-11.71,19.07-21.13,30.81-47.71,42.51-73.66,3.18,5.75,6.77,10.86,10.55,16.59-17.85,19.45-27.05,44.1-27.05,72.58,0,60.36,48.93,109.29,109.29,109.29s109.29-48.93,109.29-109.29c0-27.77-10.38-53.11-27.45-72.39,4.33-3.93,10.27-10.12,13.77-17.12,0,0,7.96,21.67,20.57,41.35,12.6,19.68,22.89,43.07,43.95,44.89,21.06,1.82,23.22-22.03,18.91-41.79Z"/>
              <path class="cls-6" d="m311.48,91.14c.69,5.71-1.43,11.69-5.55,15.69s-10.16,5.95-15.85,5.09c-1.03-.16-2.12-.39-3.1-.01-1.01.39-1.66,1.35-2.32,2.2-3.12,4.06-7.66,6.91-12.55,8.45-4.89,1.54-10.11,1.82-15.21,1.33-6.15-.59-12.63-2.56-16.36-7.48-.56-.74-1.07-1.55-1.84-2.07-1.54-1.04-3.58-.6-5.43-.48-5.58.37-11.11-2.69-14.32-7.28-3.21-4.58-4.23-10.49-3.44-16.03-1.16,6.68-1.84,13.88,1.06,20,2.9,6.13,9.28,10.94,16.03,10.38,1.04-.09,2.09-.29,3.1-.05,1.67.39,2.84,1.85,3.96,3.15,5.29,6.08,12.89,10.22,20.92,10.94,8.03.72,16.4-2.11,22.05-7.87,2.03-2.07,3.73-4.5,6.13-6.13,3.24-2.21,7.32-2.68,10.97-4.1,9.01-3.52,14.98-13.59,13.73-23.19-.2-1.57-.42-2.8-1.98-2.55Z"/>
              <path class="cls-8" d="m172.41,76.98s13.59,29.16,27.92,19.65c14.34-9.51-13.56-35.99-19.79-39.58l-8.13,19.93Z"/>
              <path class="cls-8" d="m360.82,76.64l-7.19-20.35s-16.94,12.05-22.55,25.89c-5.61,13.84,3.1,15.87,8.47,15.39,5.37-.48,17.71-12.28,21.27-20.93Z"/>
              <path class="cls-6" d="m374.14,157.22c.25,2.94.37,5.92.37,8.92,0,60.37-48.95,109.3-109.3,109.3s-109.3-48.93-109.3-109.3c0-3.02.12-6,.37-8.94,4.51,56.21,51.55,100.39,108.92,100.39s104.41-44.18,108.92-100.37Z"/>
              <path class="cls-6" d="m290.71,234.97c1.1.26,2.25.18,3.36-.01,1.21-.21,2.43-.56,3.42-1.3,4.58-3.45-1.59-8.16-5.48-7.59-4.46.65-6.61,7.67-1.3,8.91Z"/>
            </g>
            <g>
              <path class="cls-5" d="m360.64,80.35c-2.52,4.39-4.91,8.31-7.98,11.8-1.64,1.86-.84,3.56.61,5.44,19.65,25.53,27.32,54.38,22.44,86.19-4.71,30.71-19.86,55.45-45.04,73.68-37.29,27.01-86.07,28.61-124.91,4.22-18.32-11.51-32.47-26.99-41.41-46.78-17.57-38.91-14.47-76.31,9.25-111.87,2.02-3.03,4.53-5.73,6.84-8.56.58-.71,1.24-1.26.27-2.22-1.62-1.6-2.92-3.49-4.13-5.42-1.16-1.85-2.28-3.71-3.42-5.58-.76.14-.74.84-.93,1.31-7.43,17.74-16.86,34.43-26.77,50.84-5.79,9.58-13.43,17.73-22.07,24.87-4.06,3.36-8.49,5.93-13.85,6.66-10.93,1.48-18.88-3.7-21.79-14.41-2.13-7.83-1.87-15.78-.79-23.72,2.82-20.67,11.69-38.87,22.92-56.1,8.08-12.4,16.33-24.64,27.32-34.79,10.64-9.83,22.97-16.07,37.27-18.13,9.37-1.35,17.84.9,25.08,7.29,7.55,6.66,11.94,15.27,15.37,24.51,1.61,4.35,2.85,8.81,3.63,13.38.25,1.48.72,1.88,2.23,1.23,29.69-12.79,59.43-12.6,89.18-.22,4.44,1.85,4.3,1.86,5.33-2.86,2.39-10.97,6.09-21.46,13.08-30.4,9.25-11.85,21.22-16.09,36-12.5,13.48,3.27,25.16,9.71,34.59,19.79,18.96,20.25,33.93,43.11,43.23,69.39,3.78,10.69,5.68,21.82,5.13,33.25-.16,3.26-.62,6.47-1.5,9.61-3.13,11.13-12.34,16.5-23.63,13.89-4.64-1.07-8.54-3.47-12.12-6.47-10.84-9.06-19.67-19.8-26.46-32.2-8.03-14.67-16.55-29.09-22.97-45.11Zm-8.22-21.22c-.45.35-.66.48-.83.65-7.54,8-14.48,16.46-19.96,26.04-.32.56-.63,1.16-1.1,1.59-.62.57-1.44.85-2.23.33-.65-.43-.92-1.18-.75-1.93.16-.7.49-1.37.8-2.03,2.72-5.77,6.29-11,10.31-15.9,2.99-3.64,6.11-7.23,9.86-10.08,1.89-1.44,3.2-2.5,2.12-5.16-.48-1.19-.41-3.31,1.25-3.72,1.6-.39,1.85,1.54,2.24,2.68,8.65,25.23,20.39,48.99,33.68,72.04,5.74,9.95,12.69,18.85,20.99,26.73,2.95,2.8,6,5.54,9.65,7.38,8.08,4.08,19.1,3.81,22.77-8.33,1.04-3.44,1.51-6.99,1.58-10.58.25-11.61-2.12-22.77-6.17-33.57-7.82-20.87-20.08-39.14-33.9-56.36-9.56-11.93-21.2-21.25-36.36-25.33-6.51-1.75-13.02-2.92-19.65-.88-8.45,2.61-13.9,8.77-18.14,16.1-4.85,8.37-7.63,17.52-9.48,26.99-.69,3.53-.26,7.13-.95,10.64-.25,1.25-.76,2.28-2.03,2.39-1.43.12-1.88-1-2-2.24-.1-.97-.36-1.95-.26-2.9.18-1.66-.53-2.47-1.97-3.16-5.79-2.79-11.73-5.2-17.92-6.93-24.7-6.94-48.81-5.2-72.39,4.85-1.52.65-2.12,1.42-1.91,3.1.22,1.76.21,3.56-.14,5.34-.23,1.19-.48,2.45-1.87,2.44-1.53,0-2.29-1.24-2.31-2.66-.03-3.02-.54-5.98-.92-8.96-1.52-11.8-5.3-22.8-12.12-32.55-7.22-10.31-16.98-14.92-29.72-12.37-13.57,2.71-25.11,9.07-34.7,18.95-15.26,15.72-26.84,34.03-36.5,53.55-6.85,13.83-10.87,28.51-10.57,44.11.1,5.05.75,10.06,3.34,14.58,2.33,4.04,5.83,6.19,10.48,6.51,6.34.44,11.51-2.18,16.17-6.14,8.43-7.14,15.84-15.22,21.56-24.67,14.67-24.23,27.35-49.44,36.6-76.29.39-1.15.78-2.34,1.43-3.34.81-1.24,1.78-1.06,2.29.32.56,1.49.53,3.05-.08,4.52-.43,1.03-.25,1.59.74,2.15,2.14,1.21,3.83,2.99,5.54,4.73,3.82,3.89,7.1,8.22,10.54,12.44,2.73,3.35,4.56,7.03,6.3,10.84.54,1.17.73,2.56-.6,3.22-1.32.66-2.24-.29-2.91-1.46-2.95-5.15-6.33-10.03-9.93-14.72-3.35-4.36-7.04-8.43-11.06-12.64-2.4,5.5-3.63,11.07-6.17,16.13-.32.64-.05,1.26.32,1.83,4.11,6.4,7.75,13.2,14.65,17.22.98.57,1.9,1.25,2.86,1.85,1.01.63,2.08,1.39,1.44,2.69-.62,1.26-1.95.98-3.03.59-2.01-.72-3.74-1.96-5.41-3.24-1.17-.89-1.88-.77-2.77.4-2.51,3.3-4.94,6.65-7.2,10.13-30.29,46.59-20.12,108.36,23.47,142.65,55.21,43.42,137.56,21.79,163.56-43.51,15.11-37.94,9.44-73.64-14.93-106.38-1.35-1.81-2.58-2.83-4.63-1.02-.34.31-.87.47-1.34.56-1.11.23-2.4.58-2.89-.88-.41-1.23.49-1.93,1.53-2.4,3.69-1.67,6.76-4.4,9.31-7.28,3.13-3.53,5.83-7.58,8.15-11.78.37-.67.68-1.33.3-2.07-2.53-4.99-3.72-10.5-6.06-15.81Z"/>
              <path class="cls-5" d="m309.1,92.61c.02-.79.01-1.84.07-2.89.04-.73.14-1.53,1.03-1.73.86-.2,1.4.43,1.75,1.06,1.46,2.65,1.99,5.46,1.3,8.46-2.26,9.82-11.81,16.98-22.09,16.41-1.7-.09-2.71.43-3.95,1.57-13.89,12.77-27.69,14.64-44.06,5.85-2.09-1.12-3.82-2.76-5.3-4.62-.79-1-1.61-1.34-2.9-1.19-2.67.31-5.36.27-7.99-.31-7.08-1.57-11-6.14-12.23-13.17-.6-3.45-.94-6.92-.54-10.43.1-.88.2-1.95,1.37-1.95,1.08,0,1.1,1.03,1.24,1.81.52,3.04.9,6.1,1.53,9.12,1.61,7.64,6.24,11.2,14.01,11.03,1.54-.03,2-.32,1.37-1.92-1.37-3.47-1.82-7.04-.82-10.74,1.42-5.28,6.07-8.33,10.76-6.99,4.78,1.36,7.54,6.58,6.12,11.65-1.07,3.84-3.3,6.95-6.71,8.94-2.09,1.22-1.46,1.9-.14,3.05,4.41,3.86,9.82,5.16,15.35,6.24,9.74,1.9,17.21-2.91,24.56-8.16,1.19-.85,1-1.4-.16-2.28-4.05-3.07-6.97-6.82-6.39-12.34.32-3.01,1.51-5.52,4.35-6.86,2.76-1.3,5.24-.29,7.51,1.33,4.36,3.12,5.95,8.17,4.09,13.65-.68,1.99-.18,2.21,1.67,2.3,6.36.34,16.6-8.7,15.21-16.89Zm-72.59,9.75c.14,2.42.63,4.62,1.57,6.72.42.96.88,1.21,1.83.7,3.16-1.72,5.34-4.23,6.03-7.8.53-2.71-1.18-5.38-3.52-5.87-2.5-.52-4.7,1.08-5.46,3.99-.2.78-.32,1.59-.45,2.25Zm52.06.98c0-3.06-1.43-5.23-4.01-6.72-1.63-.94-2.76-.39-3.52,1.21-1.4,2.97-.04,5.33,1.78,7.51,1.06,1.27,2.37,3.29,3.9,2.7,1.53-.59,1.63-2.95,1.85-4.71Z"/>
              <path class="cls-5" d="m406.73,110.26c.92-3.2,2.69-6.43,5.06-9.32.42-.52,1.14-.58,1.78-.2.63.37.94,1.04.78,1.65-.94,3.63-2.65,6.89-5.11,9.73-.43.49-1.12.65-1.78.28-.67-.37-.69-1.03-.73-2.14Z"/>
              <path class="cls-5" d="m126.86,110.68c0,1.1.01,1.87-.78,2.25-.77.37-1.52.06-1.96-.51-2.19-2.82-3.92-5.9-4.86-9.37-.19-.7.09-1.45.84-1.85.66-.36,1.37-.24,1.78.28,2.27,2.86,4.05,6,4.98,9.2Z"/>
              <path class="cls-5" d="m421.45,108.68c-.97,2.92-2.7,6-5.06,8.71-.48.55-1.26.84-1.99.34-.84-.58-.66-1.35-.33-2.17,1.27-3.11,3.3-5.76,5.11-8.54.35-.54.93-.98,1.66-.59.68.36.71,1.02.6,2.24Z"/>
              <path class="cls-5" d="m371.23,56.58c-1.19-3.11-1.71-6.75-1.55-10.49.03-.67.56-1.15,1.3-1.23.73-.08,1.37.26,1.61.86,1.43,3.47,2.02,7.1,1.76,10.85-.05.65-.5,1.19-1.25,1.29-.76.11-1.17-.41-1.87-1.28Z"/>
              <path class="cls-5" d="m382.04,46.47c.98,2.92,1.44,6.42,1.19,10.01-.05.73-.5,1.42-1.38,1.46-1.02.05-1.34-.69-1.56-1.54-.85-3.25-.82-6.58-1.04-9.9-.04-.64.16-1.34.97-1.47.76-.12,1.18.39,1.83,1.43Z"/>
              <path class="cls-5" d="m274.3,80.94c-3.3-.47-6.74-1.76-9.93-3.71-.57-.35-.74-1.05-.45-1.74.28-.68.89-1.07,1.53-1,3.73.42,7.2,1.66,10.35,3.7.55.35.8,1.02.53,1.72-.27.72-.93.83-2.02,1.02Z"/>
              <path class="cls-5" d="m270.68,66.59c3.02.55,6.32,1.84,9.33,3.8.62.4,1,1.13.61,1.92-.45.92-1.25.84-2.1.63-3.25-.83-6.16-2.46-9.17-3.87-.59-.27-1.1-.78-.82-1.56.26-.72.92-.85,2.14-.91Z"/>
              <path class="cls-5" d="m113.06,106.8c.74-.01,1.17.38,1.48.86,1.71,2.65,3.62,5.19,4.89,8.11.35.81.81,1.75-.18,2.41-1.05.69-1.93.03-2.51-.76-1.84-2.48-3.5-5.08-4.48-8.03-.32-.96-.52-2.13.81-2.59Z"/>
            </g>
          </g>
          <g>
            <g>
              <g>
                <path class="cls-2" d="m325.64,197.32c-2.42,1.94-4.82,5.26-4.77,9.04.05,3.7,2.4,6.09,4.7,7.44,5.18,3.03,11.26,3.4,17.02,1.04,3-1.23,6.27-3.76,7.21-8.04,1.95-8.91-5.43-11.44-9.66-12.72-4.65-1.4-10.01-.37-14.5,3.24Z"/>
                <path class="cls-5" d="m338.28,209.48c-.13,1.21-1.06,1.96-2.18,1.77-1.22-.2-1.99-1.23-1.83-2.44.14-1.06.98-1.72,2.1-1.64,1.25.09,2.05,1.05,1.91,2.31Z"/>
                <path class="cls-5" d="m342.7,202.22c-.05,1.18-.88,2.04-1.99,2.05-1.18.01-2.01-.94-1.98-2.26.03-1.29.75-2.04,1.94-2.01,1.24.03,2.08.95,2.03,2.21Z"/>
                <path class="cls-5" d="m329.87,201.51c.07-1.24.9-2.11,1.98-2.06,1.05.05,1.89,1.07,1.83,2.22-.06,1.17-.98,2.09-2.03,2.05-1.11-.05-1.85-.96-1.78-2.21Z"/>
              </g>
              <g>
                <path class="cls-2" d="m187.4,199.05c-2.64,1.86-5.22,5.08-5.1,8.79.12,3.63,2.76,6.02,5.33,7.38,5.78,3.07,12.5,3.55,18.81,1.33,3.29-1.15,6.86-3.57,7.81-7.75,1.99-8.71-6.21-11.33-10.9-12.66-5.16-1.46-11.06-.54-15.95,2.91Z"/>
                <path class="cls-5" d="m196.56,210.18c.11-1.23.92-1.99,2.07-1.92,1.29.08,2.12,1.14,1.97,2.5-.12,1.12-1.08,1.92-2.19,1.8-1.19-.12-1.97-1.13-1.85-2.39Z"/>
                <path class="cls-5" d="m192.52,203.78c.1-1.11.95-1.85,1.97-1.73,1.04.13,1.97,1.35,1.87,2.46-.09,1.01-1.24,1.99-2.19,1.87-.99-.13-1.77-1.35-1.65-2.6Z"/>
                <path class="cls-5" d="m204.05,202.3c1.04.13,1.71,1.01,1.62,2.14-.08,1.01-.89,1.77-1.83,1.7-1.09-.08-1.83-1.1-1.68-2.31.14-1.12.82-1.67,1.89-1.54Z"/>
              </g>
            </g>
            <g>
              <g>
                <path class="cls-9" d="m200.74,124.19c-.49,8.27,24.09,14.79,26.77,2.58,2.68-12.21-26.23-11.7-26.77-2.58Z"/>
                <path class="cls-5" d="m212.78,115.79c2.38-.16,4.78-.05,7.16.2,2.27.24,4.23,1.34,6.05,2.62,1.56,1.1,2.78,2.54,3.72,4.26,1.32,2.41.5,5.33-1.03,7.13-1.08,1.26-2.42,2.2-3.89,2.98-2.45,1.31-5.1,1.66-7.8,1.65-4.69,0-9.28-.69-13.52-2.81-2.87-1.44-5.27-4.36-4.59-8.08,1.17-6.41,10.66-7.74,13.91-7.96Zm10.78,13.3c.54-.36,1.1-.69,1.61-1.08.97-.74,1.5-2.28,1.12-3.16-1.15-2.71-3.43-4.17-6.1-4.8-2.77-.65-5.65-.62-8.52-.5-1.52.06-8.46.63-9.06,4.8-.26,1.8,1.03,3.08,2.61,3.8,3.78,1.71,7.77,2.48,11.93,2.4,2.23-.04,4.45-.16,6.41-1.46Z"/>
              </g>
              <g>
                <path class="cls-9" d="m304.34,122.83c.42,8.27,25.56,12.06,26.89-.37,1.33-12.43-27.35-8.76-26.89.37Z"/>
                <path class="cls-5" d="m315.39,113.16c2.35-.42,4.75-.57,7.14-.59,2.28-.01,4.35.87,6.3,1.94,1.67.92,3.04,2.22,4.16,3.83,1.58,2.25,1.08,5.25-.25,7.2-.93,1.37-2.16,2.45-3.54,3.39-2.29,1.57-4.89,2.2-7.58,2.5-4.67.51-9.3.33-13.74-1.31-3.01-1.11-5.71-3.76-5.44-7.53.46-6.5,9.75-8.86,12.95-9.44Zm12.17,12.04c.5-.41,1.02-.8,1.48-1.25.88-.84,1.24-2.43.77-3.26-1.44-2.56-3.86-3.77-6.59-4.1-2.82-.34-5.69,0-8.52.44-1.51.23-8.34,1.56-8.48,5.76-.06,1.82,1.36,2.95,3.01,3.49,3.94,1.29,8,1.62,12.12,1.08,2.22-.29,4.41-.65,6.21-2.15Z"/>
              </g>
            </g>
            <g>
              <g>
                <path class="cls-9" d="m212.4,139.31c-14.92-1.48-27.7,12.86-27.19,27.73.51,14.87,13.05,26.6,28.18,25.75,15.13-.85,25.46-15.38,24.72-27.1-.74-11.72-6.17-24.43-25.72-26.38Z"/>
                <path class="cls-5" d="m203.47,193.57c-2.1-.66-4.08-1.52-5.95-2.62-5.09-2.99-8.83-7.19-11.37-12.56-1.29-2.72-2.17-5.56-2.39-8.49-.4-5.24.26-10.38,2.33-15.28,1.73-4.09,4.43-7.45,7.79-10.26,2.67-2.22,5.73-3.78,9.02-4.98,2.54-.92,5.16-1.3,7.8-1.46,2.09-.13,4.17.13,6.27.46,3.5.56,6.73,1.79,9.65,3.61,5.94,3.71,10.12,8.9,12.31,15.69,3.81,13.5-2.07,23.17-6.36,28.2-4.18,4.52-9.34,7.23-15.28,8.53-2.09.46-4.24.66-6.18.38-2.76.01-5.2-.45-7.65-1.22Zm-3.95-47.93c-4.09,2.39-7.18,5.67-9.29,9.81-1.55,3.06-2.86,6.28-2.59,9.87.05.68-.05,3.05.95,2.47,2.02-1.18,7.76-8.7,23-8.7s22.46,9.25,23,9.59c.63.39.93-1.38.98-2.26.13-2.82-.42-5.53-1.34-8.15-1.52-4.3-4.05-7.9-7.67-10.7-2.34-1.81-4.84-3.27-7.72-4.12-2.1-.62-4.19-1.07-6.39-1.07-4.61-.11-8.88.91-12.93,3.27Zm-.96,32.29c2.9.27,5.11-1.57,5.33-4.24.23-2.86-1.05-5.57-3.86-5.83-4.51-.42-5.5,3.05-5.44,5.28-.2,3.11,1.51,4.56,3.98,4.79Z"/>
              </g>
              <g>
                <path class="cls-9" d="m316.89,139.31c-14.92-1.48-27.7,12.86-27.19,27.73.51,14.87,13.05,26.6,28.18,25.75,15.13-.85,25.46-15.38,24.72-27.1-.74-11.72-6.17-24.43-25.72-26.38Z"/>
                <path class="cls-5" d="m307.96,193.57c-2.1-.66-4.08-1.52-5.95-2.62-5.09-2.99-8.83-7.19-11.37-12.56-1.29-2.72-2.17-5.56-2.39-8.49-.4-5.24.26-10.38,2.33-15.28,1.73-4.09,4.43-7.45,7.79-10.26,2.67-2.22,5.73-3.78,9.02-4.98,2.54-.92,5.16-1.3,7.8-1.46,2.09-.13,4.17.13,6.27.46,3.5.56,6.73,1.79,9.65,3.61,5.94,3.71,10.12,8.9,12.31,15.69,3.82,13.84-4.14,25.81-6.36,28.2-4.18,4.52-9.34,7.23-15.28,8.53-2.09.46-4.24.66-6.18.38-2.76.01-5.2-.45-7.65-1.22Zm-3.95-47.93c-4.09,2.39-7.18,5.67-9.29,9.81-1.55,3.06-2.86,6.28-2.59,9.87.05.68-.05,3.05.95,2.47,2.02-1.18,7.76-8.7,23-8.7s22.46,9.25,23,9.59c.63.39.93-1.38.98-2.26.13-2.82-.42-5.53-1.34-8.15-1.52-4.3-4.05-7.9-7.67-10.7-2.34-1.81-4.84-3.27-7.72-4.12-2.1-.62-4.19-1.07-6.39-1.07-4.61-.11-8.88.91-12.93,3.27Zm-.96,32.29c2.9.27,5.11-1.57,5.33-4.24.23-2.86-1.05-5.57-3.86-5.83-4.51-.42-5.5,3.05-5.44,5.28-.2,3.11,1.51,4.56,3.98,4.79Z"/>
              </g>
            </g>
            <g>
              <g>
                <path class="cls-7" d="m250.25,197.87c2.66,2.17,5.41,4.31,8.54,5.71,3.14,1.41,6.74,2.04,10.04,1.09,4.26-1.22,7.39-4.83,9.82-8.54.86-1.31,1.67-2.68,2.01-4.2.34-1.52.15-3.24-.85-4.44-.77-.92-1.91-1.45-3.05-1.83-5.96-2.01-13.19-1.82-19.36-.63-3.5.68-6.36,2.5-9.15,4.87-3.08,2.62-.43,6.01,1.98,7.97Z"/>
                <path class="cls-4" d="m248.84,176.41c1.86-4.84,5.06-9.35,9.63-11.8,4.57-2.45,10.61-2.49,14.68.72,1.65,1.3,2.9,3.04,3.88,4.89,1.63,3.09,2.53,6.54,2.85,10.02.22,2.42.17,4.86-.15,7.26-7.66-2.95-16.23-3.47-24.18-1.48-1.89.48-7.63,4.06-8.53,1.65-1.13-3.04.73-8.43,1.82-11.27Z"/>
                <path class="cls-1" d="m257.82,189.46c-1.39.46-2.84,1.01-3.77,2.14s-1.07,3.04.08,3.95c.54.42,1.24.55,1.91.64,2.05.27,4.15.22,6.19-.12,1.42-.24,2.88-.67,3.92-1.66,1.04-1,1.51-2.7.74-3.92-.62-.98-1.83-1.39-2.97-1.58-1.83-.32-4.34-.02-6.1.56Z"/>
              </g>
              <path class="cls-5" d="m277.62,184.17c5.19,1.55,6.07,4.52,4.37,9-1.86,4.88-5.12,8.75-9.53,11.53-3.45,2.17-7.34,2.29-11.21,1.51-5.93-1.2-10.54-4.72-14.43-9.11-2.93-3.31-2.3-7.23,1.26-9.85,4.3-3.16,9.19-4.52,14.46-4.65,5.87-.2,11.7.56,15.08,1.57Zm-10.68,2.66c-2.07-.14-4.15-.1-6.21.09-3.69.34-7.14,1.42-10.1,3.72-1.8,1.4-1.85,2.63-.31,4.3,1.56,1.7,3.47,2.96,5.3,4.31,2.42,1.78,5.14,2.85,8.09,3.11,2.59.23,5.15-.1,7.3-1.81,1-.8,2.02-1.61,2.9-2.54,1.82-1.93,3.37-4.08,4.26-6.6.72-2.04.36-2.66-1.72-3.27-3.1-.92-6.28-1.32-9.51-1.31Z"/>
              <path class="cls-5" d="m264.02,174.81c1.71-.04,3.58.45,5.45.86.48.11.95.3,1.4.52,1.33.64,1.87,1.58,1.57,2.68-.27.99-1.02,1.39-2.62,1.2-1.55-.19-3.1-.46-4.63-.77-2.06-.42-4.09-.39-6.13.11-.83.2-1.69.29-2.54.08-1.1-.28-1.47-1.12-.93-2.11.35-.64.92-1.05,1.57-1.4,1.84-.97,3.68-1.31,6.86-1.17Z"/>
            </g>
            <path class="cls-5" d="m269.2,216.12c12.69,4.65,26.71-.04,34.05-11.4,1.07-1.69,3.78-.5,3.27,1.42-3.99,16.34-26.06,23.73-39.08,13.08-1.57-1.25-.1-3.81,1.76-3.1h0Z"/>
          </g>
          <g>
            <g>
              <path class="cls-5" d="m113.12,227.43c12.62-7.31,25.97-12.9,40.19-16.16,6.66-1.52,13.49-2.3,20.25-3.37,1.02-.16,3.81-.76,4.32.81.51,1.57-5.72,2.86-8.21,3.26-19.28,3.09-37.18,10.3-54.92,18.04-1.69.74-5.13,1.87-5.52,1.13s2.36-2.84,3.88-3.71Z"/>
              <path class="cls-5" d="m107.46,188.76c-.26-1.66,5.23-2.74,7.78-3.19,16.68-2.94,33.42-3.85,50.2-.75,2.3.42,4.55,1.15,6.8,1.79,1.9.61,3.36,1.69,3.11,2.71s-1.3.95-1.9.89c-2.79-.28-5.57-.67-8.33-1.15-12.25-2.13-24.57-1.94-36.9-1.17-5.6.35-11.19.87-16.78,1.24-1.16.08-3.86.44-3.98-.35Z"/>
              <path class="cls-5" d="m114.34,205.89c6.61-3.43,13.78-5.22,20.97-6.83,12.56-2.8,25.25-4.07,38.11-2.61,1.3.15,3.22.02,3.23,1.78,0,1.72-1.88,1.46-3.1,1.51-3.91.16-7.83.22-11.75.31-15.46.36-30.4,3.65-45.16,8.01-1.97.58-5.51,2.24-6.03,1.35-.52-.89,2.28-2.76,3.72-3.51Z"/>
            </g>
            <g>
              <path class="cls-5" d="m416.06,227.61c-12.44-7.61-25.65-13.53-39.79-17.13-6.62-1.69-13.43-2.63-20.16-3.86-1.02-.19-3.79-.85-4.34.7-.55,1.55,5.65,3,8.12,3.46,19.2,3.56,36.92,11.2,54.47,19.37,1.67.78,5.08,1.99,5.49,1.27s-2.29-2.89-3.79-3.81Z"/>
              <path class="cls-5" d="m422.66,189.09c.3-1.65-5.16-2.87-7.7-3.38-16.61-3.35-33.32-4.66-50.16-1.97-2.31.37-4.57,1.04-6.84,1.62-1.92.56-3.4,1.61-3.17,2.63.23,1.02,1.28.98,1.88.93,2.79-.21,5.58-.54,8.35-.95,12.29-1.83,24.61-1.34,36.92-.27,5.59.48,11.16,1.14,16.75,1.65,1.15.1,3.85.53,3.99-.26Z"/>
              <path class="cls-5" d="m415.37,206.04c-6.52-3.59-13.65-5.55-20.8-7.34-12.49-3.11-25.15-4.69-38.04-3.54-1.3.12-3.22-.06-3.27,1.7-.04,1.72,1.84,1.51,3.06,1.59,3.91.25,7.82.41,11.74.6,15.45.74,30.3,4.39,44.95,9.1,1.95.63,5.45,2.37,5.99,1.49s-2.21-2.82-3.64-3.6Z"/>
            </g>
          </g>
        </g>
      </g>
      <g>
        <g>
          <g>
            <g>
              <path class="cls-3" d="m372.63,474.52v17.84s-14.77-13.47-52.66-13.47-52.66,13.47-52.66,13.47h-.14s-14.77-13.47-52.66-13.47-52.66,13.47-52.66,13.47v-17.84l11.13-18.75h185.97l13.66,18.75Z"/>
              <path class="cls-9" d="m355.87,372.48s-12.42-13.47-44.28-13.47-44.28,13.47-44.28,13.47h-.11s-12.42-13.47-44.28-13.47-44.28,13.47-44.28,13.47l-16.76,102.04s14.77-13.47,52.66-13.47,52.66,13.47,52.66,13.47h.14s14.77-13.47,52.66-13.47,52.66,13.47,52.66,13.47l-16.76-102.04Z"/>
              <circle class="cls-3" cx="315.6" cy="407.63" r="19.89"/>
            </g>
            <g>
              <path class="cls-5" d="m374.82,474.34c-.35-4.43-1.43-8.91-2.16-13.29-1.66-10.04-3.32-20.09-4.98-30.13-3.11-18.83-6.22-37.67-9.33-56.5-.26-1.58-.21-2.76-1.34-3.94-6.44-6.7-17.18-10.01-26-11.81-10.6-2.17-21.69-2.47-32.41-1.07-10.62,1.38-21.72,4.5-30.33,11.12-1.06.81-.58.7-1.71.26-.4-.15-1.07-.81-1.38-1.03-.95-.68-1.93-1.32-2.93-1.91-2.35-1.4-4.81-2.6-7.34-3.62-5.22-2.12-10.7-3.52-16.25-4.41-10.67-1.72-21.78-1.68-32.42.15-5.55.96-11.02,2.43-16.21,4.62-4.33,1.83-9.54,4.31-12.73,7.89-1.11,1.24-1.11,2.87-1.37,4.47-3.1,18.86-6.2,37.72-9.29,56.58-1.65,10.04-3.3,20.07-4.95,30.11-.69,4.18-1.76,8.48-2.06,12.71-.3,4.35,0,8.84,0,13.2,0,2.63-.51,9.08,4.06,6.01,6.91-4.65,14.38-7.67,22.52-9.6,17.69-4.19,37.14-4.25,54.88-.38,8.42,1.84,17.03,4.7,24.07,9.82,1.61,1.17,2.87.94,4.36-.14,2.47-1.78,5.13-3.25,7.9-4.51,14.17-6.46,30.39-8.12,45.79-7.79,14.14.3,29,2.42,41.73,8.95,2.13,1.1,4.03,2.43,6.01,3.75,4.8,3.19,3.92-4.86,3.92-7.26,0-4.05.3-8.23-.04-12.26Zm-101.66-103.63c9.72-6.46,22.12-8.83,33.6-9.36,11.69-.55,23.8.69,34.74,5.03,2.53,1,4.99,2.18,7.32,3.59,1.38.84,4.27,2.2,5.08,3.71.16.29.13.84.19,1.16.49,2.78.91,5.58,1.37,8.36,3.63,22.22,7.26,44.44,10.89,66.67,1.07,6.54,2.14,13.09,3.21,19.63-14.52-9.49-33.54-11.93-50.52-11.8-16.69.12-35.4,2.72-49.48,12.36,0-11.19,0-22.39,0-33.58v-60.53c0-3.13.37-3.15,3.62-5.24Zm-92.47,2.88c8.27-7.62,20.77-10.61,31.62-11.79,11.92-1.3,24.45-.6,35.94,2.98,5.31,1.65,10.59,3.93,15.04,7.32,1.38,1.05,1.59,1.03,1.78,2.32.37,2.48,0,5.29,0,7.79v67.82c0,6.67,0,13.34,0,20-14.24-9.67-32.76-10.63-49.62-10.76-17.17-.13-35.74.73-50.49,10.08,1.77-10.8,3.55-21.59,5.32-32.39,2.82-17.2,5.65-34.39,8.47-51.59.65-3.93,1.29-7.86,1.94-11.78Zm-16.61,114.44v-9.84c0-.58-.27-1.92,0-2.44.69-1.33,4.25-2.5,5.62-3.13,2.86-1.32,5.84-2.39,8.85-3.3,5.48-1.66,11.12-2.76,16.79-3.51,11.56-1.53,23.42-1.63,35.01-.4,11.14,1.19,22.9,3.5,32.72,9.13,1.59.91,1.85.82,2,2.33.13,1.34,0,2.76,0,4.1v7.14c-9.9-6.2-21.85-9.06-33.32-10.46-17.56-2.14-36.31-1.42-53.26,3.97-5.01,1.59-9.94,3.63-14.41,6.4Zm155.88-11.37c-16.94,0-35.7,2.23-50.43,11.37v-9.85c0-.62-.25-1.88,0-2.45.56-1.25,4.37-2.6,5.59-3.17,2.71-1.27,5.53-2.33,8.38-3.24,5.46-1.74,11.11-2.86,16.78-3.64,11.57-1.59,23.44-1.74,35.06-.52,11.19,1.17,22.88,3.48,32.76,9.1,1.63.92,2.07.93,2.29,2.51.18,1.31,0,2.78,0,4.1v7.15c-14.72-9.14-33.48-11.37-50.43-11.37Z"/>
              <path class="cls-5" d="m223.61,437.06c-13.29-.26-26.67.2-39.68,2.9-1.14.24-2.58.38-3.23-.57-.44-.64-.28-1.56.19-2.19.47-.63,1.18-1.02,1.89-1.36,3.86-1.85,8.18-2.54,12.44-3,5.07-.55,10.16-.79,15.26-.96,11.15-.37,22.44-.35,33.43,1.85,1.79.36,12.07,1.98,10.88,4.32-1.8,3.55-9.05,1.03-11.55.59-6.47-1.14-13.06-1.45-19.63-1.58Z"/>
              <path class="cls-5" d="m225.6,414.34c-13.29-.26-26.67.2-39.68,2.9-1.14.24-2.58.38-3.23-.57-.44-.64-.28-1.56.19-2.19.47-.63,1.18-1.02,1.89-1.36,3.86-1.85,8.18-2.54,12.44-3,5.07-.55,10.16-.79,15.26-.96,11.15-.37,22.44-.35,33.43,1.85,1.79.36,12.07,1.98,10.88,4.32-1.8,3.55-9.05,1.03-11.55.59-6.47-1.14-13.06-1.45-19.63-1.58Z"/>
              <path class="cls-5" d="m227.07,391.64c-12.11-.31-24.3.12-36.15,2.78-1.04.23-2.35.37-2.95-.58-.41-.65-.26-1.56.16-2.19.42-.63,1.07-1.02,1.72-1.36,3.51-1.84,7.44-2.52,11.33-2.96,4.62-.53,9.26-.76,13.9-.91,10.16-.34,20.45-.28,30.47,1.96,1.64.37,11.01,2.02,9.93,4.36-1.63,3.55-8.24,1-10.52.55-5.9-1.16-11.91-1.49-17.89-1.65Z"/>
              <path class="cls-5" d="m311.65,437.06c13.29-.26,26.67.2,39.68,2.9,1.14.24,2.58.38,3.23-.57.44-.64.28-1.56-.19-2.19-.47-.63-1.18-1.02-1.89-1.36-3.86-1.85-8.18-2.54-12.44-3-5.07-.55-10.16-.79-15.26-.96-11.15-.37-22.44-.35-33.43,1.85-1.79.36-12.07,1.98-10.88,4.32,1.8,3.55,9.05,1.03,11.55.59,6.47-1.14,13.06-1.45,19.63-1.58Z"/>
              <path class="cls-5" d="m309.65,414.34c13.29-.26,26.67.2,39.68,2.9,1.14.24,2.58.38,3.23-.57.44-.64.28-1.56-.19-2.19s-1.18-1.02-1.89-1.36c-3.86-1.85-8.18-2.54-12.44-3-5.07-.55-10.16-.79-15.26-.96-11.15-.37-22.44-.35-33.43,1.85-1.79.36-12.07,1.98-10.88,4.32,1.8,3.55,9.05,1.03,11.55.59,6.47-1.14,13.06-1.45,19.63-1.58Z"/>
              <path class="cls-5" d="m308.19,391.64c12.11-.31,24.3.12,36.15,2.78,1.04.23,2.35.37,2.95-.58.41-.65.26-1.56-.16-2.19-.42-.63-1.07-1.02-1.72-1.36-3.51-1.84-7.44-2.52-11.33-2.96-4.62-.53-9.26-.76-13.9-.91-10.16-.34-20.45-.28-30.47,1.96-1.64.37-11.01,2.02-9.93,4.36,1.63,3.55,8.24,1,10.52.55,5.9-1.16,11.91-1.49,17.89-1.65Z"/>
            </g>
          </g>
          <g>
            <path class="cls-9" d="m329.02,340.97c-3.17,3.55-6.57,8.87-7.37,13.56-.84,4.94-.28,9.74,1.52,13.69h0c-9.66,16.18-15.87,34.66-9.34,38.68,5.27,3.24,13.15-2.07,19.77-8.41h0c3.78,3.2,9.13,6.31,14.14,7.74l-.1.12s.06-.04.14-.11c.81.23,1.61.42,2.39.56,14.57,2.5,30.31-9.3,36.92-17.96,4.41-5.77,7.87-12.5,8.52-19.73.59-6.54-1.18-13.17-4.4-18.89-3.22-5.72-7.85-10.56-13.03-14.59-17.98-13.97-41.35-3.38-49.16,5.35Z"/>
            <g>
              <path class="cls-5" d="m357.66,356.42c-2.03.87-1.96,2.88.07,4.26,3,2.03,6.1,3.92,9.14,5.88,1.87,1.21,3.69,2.51,5.59,3.66.79.48,1.89.78,2.59-.03.67-.77.28-1.74-.3-2.53-4-5.43-9.6-8.65-15.67-11.17-.47-.2-1.08-.06-1.42-.07Z"/>
              <path class="cls-5" d="m378.31,355.93c-3.85-3.21-8.77-6.05-14.65-6.89-.98-.14-1.85.29-2.14,1.36-.23.84.23,1.45.95,1.81,4.63,2.34,9.1,5.02,14,6.8.91.33,2.12.58,2.81-.38.41-.58.11-1.44-.96-2.7Z"/>
              <path class="cls-5" d="m396.01,377.54c-1.51,4.21-3.91,8.47-7.11,12.67-6.67,8.73-23.18,21.56-39.12,18.82-7.16-1.23-13.78-5.83-16.06-7.55-2.7,2.49-5.18,4.4-7.77,5.99-1.81,1.08-4.01,2.24-6.69,2.7-1.84.32-5.34.47-8.12-2.21-1-1-1.7-2.28-2.15-3.92-.31-1.13-.45-2.34-.46-3.8,0-2.65.47-5.06.88-6.87.47-2.09,1.1-4.22,1.93-6.51.65-1.81,1.41-3.7,2.39-5.93,1.94-4.34,4.25-8.74,6.85-13.08-1.56-4.11-1.97-8.97-1.17-13.71.18-1.06.48-2.18.89-3.33,1.33-3.7,3.95-7.95,7.02-11.37,8.24-9.21,32.81-20.73,52.25-5.63,5.92,4.6,10.51,9.74,13.62,15.26,3.62,6.42,5.28,13.59,4.68,20.21-.24,2.7-.87,5.47-1.85,8.21v.03Zm-43.94,27.41c12.52.44,27.38-9.86,33.21-17.5,2.93-3.83,5.1-7.68,6.45-11.44.86-2.39,1.4-4.78,1.61-7.11.51-5.71-.95-11.95-4.12-17.57-2.82-5-7-9.68-12.45-13.91-16.31-12.67-38.32-3.58-46.07,5.07-2.08,2.33-4.79,6.15-6.13,9.88-.32.89-.55,1.75-.69,2.54-.44,2.6-.45,5.24-.03,7.72.99-1.47,1.93-2.82,2.87-4.1,3.03-4.09,5.72-7.24,8.46-9.93,3.3-3.12,6.63-6.05,11.19-7.58.46-.15.95-.12,1.39.1s.76.59.91,1.05c.13.39.12.81-.01,1.19-.18.5-.57.89-1.06,1.08-3.66,1.39-6.8,4.37-9.4,7.1-2.69,2.91-5.28,6.16-7.7,9.67-4.89,7.16-8.95,14.48-12.06,21.75-.66,1.55-1.26,3.08-1.8,4.57-.86,2.41-1.58,4.76-2.12,7.01-.51,2.22-.77,4.08-.77,5.7-.02,1.93.37,3.48,1.02,4.15.27.29.86.67,1.53.84.63.17,1.36.2,2.19.09,1.45-.19,3.11-.82,5.07-1.92,3.8-2.16,8.47-5.6,14.36-14.64l.92-1.42c1.32-2.04,2.64-4.07,4.02-6.07,1.13-1.66,2.2-3.36,3.26-5.05.51-.82,1.03-1.64,1.55-2.45,1.57-2.61,3.07-5.19,4.42-7.69.49-.91,1.6-1.23,2.48-.75.78.42,1.14,1.34.85,2.19l-.31.88c-.86,2.39-1.95,4.9-3.33,7.67-1.33,2.7-2.89,5.31-4.39,7.83l-.12.2c-1.52,2.53-3.27,5.08-5.23,7.58l-5.14,6.51c3.31,2.43,7.14,4.44,10.6,5.56,1.58-1.77,3.17-3.52,4.76-5.25,2.05-2.25,4.09-4.48,6.07-6.74,1.68-1.96,3.66-4.29,5.59-6.69,1.63-2.08,3.29-4.3,5.22-6.98.32-.45.75-.71,1.23-.79.49-.08.97.04,1.37.32.6.43.88,1.18.72,1.9-.22.97-.51,1.96-.87,2.94-.69,1.92-3.41,6.33-9.81,13.64-2.16,2.47-4.47,4.6-6.74,6.48-1.03.85-2.01,1.62-3,2.34Z"/>
            </g>
          </g>
        </g>
        <g>
          <g>
            <g>
              <g>
                <path class="cls-2" d="m194.98,224.98l-29.88,92.28c-3.67,11.35-15.85,17.57-27.2,13.89-13.35-4.1-19.18-20.63-11.5-32.23,0,0,52.51-81.55,52.51-81.55,5.82-8.71,19.13-2.32,16.07,7.62h0Z"/>
                <path class="cls-1" d="m131.19,315.09c2.54,4.46,8.35,6.76,13.25,5.22,4.9-1.53,8.37-6.73,7.92-11.84-.72-8-8.79-11.73-15.81-9.35-6.2,2.1-8.53,10.37-5.35,15.97Z"/>
              </g>
              <path class="cls-5" d="m144.54,334.4c-2.42,0-4.88-.37-7.31-1.16-6.97-2.14-12.45-7.47-15.01-14.6-2.56-7.16-1.71-14.79,2.35-20.92l52.5-81.53c3.73-5.59,9.94-5.98,14.13-3.98,4.2,2,7.82,7.05,5.86,13.42,0,.01,0,.02,0,.03l-29.88,92.28c-3.25,10.05-12.61,16.46-22.64,16.46Zm41.71-118.95c-1.92,0-3.97.82-5.52,3.13l-52.49,81.52c-3.31,5-3.99,11.21-1.9,17.06,2.08,5.82,6.53,10.16,12.21,11.91,10.21,3.31,21.18-2.3,24.47-12.48l29.87-92.27c1.28-4.17-1.12-7.01-3.57-8.17-.9-.43-1.97-.71-3.08-.71Zm8.73,9.53h.02-.02Z"/>
            </g>
            <g>
              <g>
                <path class="cls-11" d="m265.79,194.52c-14.13,29.82-49.88,42.56-79.69,28.44-29.82-14.13-42.56-49.88-28.44-79.69,14.13-29.82,49.88-42.56,79.69-28.44,29.82,14.13,42.56,49.88,28.44,79.69Z"/>
                <path class="cls-3" d="m241.1,106.92c-34.17-16.18-75.14-1.57-91.33,32.6-16.2,34.17-1.57,75.14,32.58,91.33,34.17,16.2,75.14,1.57,91.35-32.58,16.18-34.17,1.57-75.14-32.6-91.35Zm13.24,82.17c-11.13,23.5-39.31,33.55-62.81,22.41-23.5-11.14-33.55-39.31-22.41-62.81,11.14-23.5,39.31-33.55,62.81-22.41,23.5,11.13,33.55,39.31,22.41,62.81Z"/>
                <path class="cls-1" d="m168.42,142.87c6.99-10.94,17.42-19.5,29.18-24.99,2.26-1.06,4.95-2.53,4.99-5.03.04-2.5-2.68-4.1-5.13-4.58-6.17-1.21-12.49,1.2-17.93,4.35-18.8,10.88-31.56,31.56-32.83,53.25-.3,5.12.04,10.45,2.39,15.01,1.5,2.93,4.54,6.09,8.16,4.98,3.35-1.03,3.57-3.46,2.91-6.3-1.79-7.71-.44-16.12,2.03-23.57,1.53-4.6,3.63-9.02,6.24-13.1Z"/>
                <path class="cls-1" d="m206.48,111.06c.24,2.13,1.71,4.05,3.66,4.96,1.94.91,4.29.84,6.24-.05,1.64-.76,3.06-2.16,3.51-3.91.47-1.85-.21-3.89-1.54-5.26-3.91-4.04-12.62-2.42-11.86,4.26Z"/>
              </g>
              <path class="cls-5" d="m211.62,239.64c-10.14,0-20.43-2.19-30.19-6.81h0c-35.26-16.71-50.35-58.99-33.64-94.25,8.08-17.05,22.35-29.95,40.17-36.31,17.82-6.36,37.03-5.41,54.08,2.67,17.05,8.08,29.95,22.35,36.31,40.17,6.36,17.82,5.41,37.03-2.67,54.08-12.09,25.5-37.55,40.45-64.05,40.45Zm-28.32-10.76c33.08,15.68,72.74,1.52,88.42-31.56,15.68-33.08,1.52-72.74-31.56-88.42-33.08-15.68-72.74-1.52-88.42,31.56-15.68,33.08-1.52,72.74,31.56,88.42h0Zm28.36-10.63c-7.2,0-14.37-1.6-21.06-4.77-11.89-5.64-20.88-15.59-25.32-28.01-4.43-12.43-3.77-25.82,1.86-37.71,5.64-11.89,15.58-20.88,28.01-25.32,12.43-4.43,25.82-3.77,37.71,1.86h0c11.89,5.64,20.88,15.58,25.32,28.01,4.43,12.43,3.77,25.82-1.86,37.71-5.64,11.89-15.58,20.89-28.01,25.32-5.44,1.94-11.06,2.9-16.65,2.9Zm.15-94.34c-5.1,0-10.23.88-15.18,2.65-11.33,4.04-20.39,12.24-25.53,23.07-10.62,22.41-1.03,49.28,21.38,59.9,10.84,5.14,23.04,5.74,34.37,1.7,11.33-4.04,20.39-12.24,25.53-23.08,5.14-10.84,5.74-23.04,1.7-34.37-4.04-11.33-12.24-20.39-23.07-25.53h0c-6.09-2.89-12.63-4.34-19.19-4.34Z"/>
            </g>
          </g>
          <g>
            <path class="cls-9" d="m159.61,235.3c.83.44,1.69.94,2.56,1.49,1.82,1.16,2.31,3.61,1.11,5.4l-3.67,5.49h-.04c6.24,3.33,11.33,7.73,14.09,10.37,2.16,2.07,3.67,4.71,4.32,7.62.03.13.05.21.05.21,1.8,5.42,1.81,12.2.46,18.21h0s0,0,0,0c-.47,2.09-1.09,4.09-1.87,5.9-2.75,6.39-7.79,12.45-13.92,15.99-13.1,7.57-32.39,1.84-41.82-4.13-6.28-3.97-11.99-9.2-15.18-15.91-2.89-6.06-3.55-13.06-2.49-19.69,1.06-6.63,3.78-12.92,7.33-18.63,12.29-19.79,38.48-17.92,49.07-12.33Z"/>
            <g>
              <path class="cls-5" d="m109.02,246.68c-4.01,6.46-6.56,12.95-7.57,19.29-1.17,7.34-.24,14.7,2.64,20.74,1.3,2.72,3.03,5.32,5.19,7.77,2.83,3.22,6.39,6.19,10.65,8.89,9.39,5.94,31.07,13.25,45.19,5.09,6.19-3.58,11.67-9.87,14.66-16.83,3.32-7.74,3.92-17.88,1.5-25.29,0,0-3.07-11.08-19.1-19.27l2.6-3.89c.86-1.28,1.15-2.82.84-4.33-.32-1.49-1.2-2.76-2.47-3.57-.9-.57-1.8-1.09-2.68-1.56-11.03-5.83-38.32-8.13-51.42,12.96Zm49.75-9.81c.79.42,1.61.89,2.43,1.42.46.29.78.75.89,1.3.12.56,0,1.13-.31,1.61l-1.94,2.9c-5.77-2.86-13.27-3.48-20.04-2.47-.98.14-1.65,1.05-1.5,2.03.14.98,1.05,1.65,2.03,1.5,6.4-.95,12.78,1.08,18.27,4,0,0,0,0,0,0,.1.07.21.12.32.17,5.95,3.22,10.82,7.46,13.48,10.01.28.27.55.55.81.85,1.48,1.69,2.52,3.7,3.01,5.88.01.07.07.31.09.37,1.46,4.4,1.66,10.07.75,15.43-4.81-2.51-9.65-4.89-14.32-7.44-2.62-1.46-5.21-2.93-7.76-4.46-2.53-1.57-4.98-3.19-7.49-4.91l-.05-.03c-.62-.42-1.46-.27-1.89.35-.32.47-.31,1.07,0,1.52,1.81,2.71,4.14,5.02,6.63,7.04,2.53,1.98,5.23,3.7,8.04,5.19,2.82,1.47,7.84,4.59,15.76,7.39-.39,1.47-.45,1.44-1.02,2.76-1.45,3.37-3.54,6.54-6.02,9.27-5.05-2.65-10.14-5.15-15.06-7.82-2.62-1.46-5.21-2.93-7.76-4.46-2.53-1.57-4.98-3.19-7.49-4.91l-.05-.03c-.62-.42-1.46-.27-1.89.35-.32.47-.31,1.07,0,1.52,1.81,2.71,4.14,5.02,6.63,7.04,2.53,1.98,5.76,4.8,21.89,11.82-1.45,1.28-1.84,1.45-3.42,2.37-12.07,6.98-30.64,1.81-39.97-4.09-6.93-4.39-11.82-9.49-14.52-15.17-2.57-5.39-3.4-12.01-2.33-18.64.94-5.87,3.32-11.91,7.08-17.97,11.33-18.24,36.06-17.32,46.72-11.69Z"/>
              <path class="cls-5" d="m135.5,259.53c1.92-.2,2.72,1.36,1.75,3.28-1.43,2.82-2.99,5.57-4.47,8.37-.91,1.72-1.75,3.48-2.71,5.16-.4.7-1.11,1.4-1.98,1.08-.84-.31-.95-1.2-.84-2.06.75-5.84,3.65-10.67,7.21-15.17.28-.35.8-.51,1.05-.66Z"/>
              <path class="cls-5" d="m118.06,271.2c.94-4.28,2.82-8.86,6.43-12.59.6-.62,1.44-.79,2.2-.21.61.46.61,1.12.31,1.76-1.95,4.09-3.6,8.33-6.02,12.18-.45.71-1.15,1.53-2.14,1.24-.6-.18-.85-.94-.78-2.38Z"/>
            </g>
          </g>
        </g>
      </g>
    </g>
  </g>
</svg>