<?xml version="1.0" encoding="UTF-8"?>
<svg id="_03" data-name="03" xmlns="http://www.w3.org/2000/svg" viewBox="0 0 512 512">
  <defs>
    <style>
      .cls-1 {
        opacity: .4;
      }

      .cls-1, .cls-2, .cls-3, .cls-4, .cls-5, .cls-6, .cls-7, .cls-8, .cls-9, .cls-10, .cls-11, .cls-12 {
        stroke-width: 0px;
      }

      .cls-1, .cls-10 {
        fill: #fff;
      }

      .cls-2 {
        fill: #e38372;
      }

      .cls-3 {
        fill: #ed777f;
      }

      .cls-3, .cls-5 {
        opacity: .3;
      }

      .cls-4 {
        fill: #edbf71;
      }

      .cls-5 {
        fill: #e1777f;
      }

      .cls-6 {
        fill: #8e8e8e;
      }

      .cls-8 {
        fill: #e3e3e3;
      }

      .cls-9 {
        fill: #e88572;
      }

      .cls-11 {
        fill: #eaa471;
      }

      .cls-12 {
        fill: #91bfe2;
      }
    </style>
  </defs>
  <path class="cls-10" d="m509.5,257.18c-3.03,8.63-13.02,13.01-22.22,13.73-1.47,3.86-3.02,7.7-4.64,11.47,33.56,35.49,10.2,104.95-39.77,106.24,0,0-12.09,88.77-13.31,95.92-3.45,20.18-21.53,20.17-28.41,20.17H113.26c-10.23.01-18.58-8.17-18.87-18.33-.44-9.65-.73-36.35,2.5-58.88-52.5-1.09-95.44-51.82-88.01-103.82-33.48-16.99,36.84-107.66,60.66-76.26,3.59-1.3,7.25-2.38,10.95-3.22,2.2-16.79,8.01-32.78,17.41-47.82-25.36-37.29-59.68-81.73-61.43-127.14-.69-30.62,28.33-54.47,60.52-39.5,18.66,8.28,31.89,26.3,42.14,43.6-2.82-21.35-.1-46.02,17.5-58.82,40.26-27.8,85.32,32.73,85.62,39.8,21.13-34.89,70.12-41.43,85.47,8.47,13.19-32.13,82.19-46.1,88.7,9.9l18.6,15.39c63.73-14.44,80.5,82.37,15.97,90.44l-16.84,40.11c21.39-25.77,91.93-5.8,75.36,38.55Z"/>
  <g>
    <g>
      <g>
        <path class="cls-9" d="m32.83,369.34c-7.53-14.86-9.75-31.03-7.34-46.31l84.68,18.16-38.95-76.84c36.7-15.61,79.74-.29,98.04,35.83,19.09,37.67,4.03,83.69-33.63,102.78-37.67,19.09-83.7,4.04-102.8-33.63Z"/>
        <path class="cls-9" d="m15.88,308.91c4.69-21.77,18.79-41.32,40.2-52.17l34.57,68.2-74.77-16.03Z"/>
      </g>
      <path class="cls-11" d="m474.85,351.86c6.97-11.46,9.12-25.77,5.81-38.76-2.71-10.61-9.06-20.18-17.59-27.02,5.03-10.71,9.43-21.71,13.19-32.92,3.47,1.12,7.05,1.87,10.61,1.33,6.54-.97,11.57-6.93,8.99-13.47-2.07-5.28-8.77-10.41-13.67-13.11-6.63-3.69-29.19-7.63-31.5,2.58-.37,1.57,0,3.23.6,4.75,1.82,4.68,5.39,8.17,9.64,10.91-3.5,7.46-5.86,15.92-8.68,23.5-1.1,2.95-2.17,5.91-3.09,8.92-20.48-5.68-46.96,2.45-58.65,26.81-6.72,14.01-4.05,31.72,4.97,44.36,5.52,7.77,13.36,13.64,21.83,18,5.72,2.94,15.44,4.05,21.87,4.49,14.36.95,28.17-8.07,35.65-20.35Zm-58.53-49.53c-2.01-2.67-2.47-6.54-.85-9.46,3.43-6.17,14.1-4.11,15.29,2.78.56,3.25-1.28,6.68-4.13,8.39-1.3.8-2.81,1.28-4.36,1.32-.64.01-1.29-.04-1.93-.21-1.6-.41-3.01-1.5-4.03-2.82Zm5.26,35.83c-5.04,2.58-11.7,1.42-15.63-2.64-3.92-4.07-4.88-10.7-2.3-15.76,5.48-10.69,22.44-7.02,24.8,4.17,1.16,5.54-1.82,11.67-6.87,14.23Z"/>
      <path class="cls-4" d="m183.16,87.67c1.2-17.36,16.32-49.59,38.79-37.91,8.07,4.2,11.74,12.9,13.27,21.44,1.23,6.85.43,26.63,12.27,19.38,8.54-5.23,9.2-22.19,13.46-30.31,4.76-9.08,13.62-16.84,24.37-16.98,9.58-.13,17.17,6.52,20.8,14.98,3.43,8,1.27,18.96,5.48,26.45,3.53,6.28,10.52,7.51,16.37,3.07,3.37-2.56,8.27-23.25,14.04-11.45,4.14,8.48-7.09,21.46-13.68,24.64-9.91,4.77-23.72,3.81-28.69-6.44-3.31-6.83-6.95-42.42-19.23-29.58-6.37,6.66-6.31,19.47-10.18,27.63-4.67,9.82-12.74,17.92-23.89,19.54-13.3,1.93-23.51-6.44-27.42-18.67-2.12-6.62.99-22.75-4.3-27.53-5.91-5.34-13.11,4.9-16.37,9.64-2.53,3.68-4.1,11.06-7.11,13.75-2.26,2.02-8.4,4.84-7.96-1.64Z"/>
    </g>
    <g>
      <g>
        <g>
          <g>
            <g>
              <path class="cls-10" d="m340.16,403.59c-3.01,5.89-7.55,10.86-12.04,15.74-9.69,10.55-19.64,21.31-32.3,28.03-2.82,1.5-5.77,2.79-8.88,3.48-10.33,2.28-21.48-2.67-27.94-11.04,1.86,18.15,1.49,33.35,1.22,39.36H113.3c-.79-18.12-2.57-119.68,58.56-133.81,4.61-1.06,9.56-1.64,14.91-1.64s11.13.19,17.44,1.18c15.8,2.48,34.7,10.08,56.66,32.65,7.87,8.07,13.54,17.41,18.24,27.66.02-.02,19.3-21.56,25.85-27.88l35.2,26.27Z"/>
              <path class="cls-12" d="m230.34,476.01c-.39.91-.86,1.86-1.71,2.38-.59.34-1.28.44-1.94.54-.64.08-1.28.15-1.92.22-6.28.71-12.65.69-18.94,0-1-.12-1.98-.24-2.97-.39-1.6-.24-3.38-.64-4.22-2.01-.57-.89-.59-2.01-.61-3.07-.2-19.3-.74-38.65-3.48-57.76-.95-6.62-2.16-13.19-3.7-19.69-1.35-5.69-2.94-11.31-4.85-16.85-.96-2.82-1.99-5.61-3.12-8.36-.62-1.57-7.07-16.11-11.03-25.68,4.61-1.06,9.56-1.64,14.91-1.64s11.13.19,17.44,1.18c3.95,7.65,7.48,15.25,8.71,18.24,7.45,18.12,12.61,37.04,16.14,56.31,1.86,10.18,3.63,20.41,4.32,30.75.61,8.73.39,17.78-3.04,25.83Z"/>
              <path class="cls-7" d="m341.37,401.71c-2.61-1.67-7.74,7-8.81,8.23-3.87,4.45-7.91,8.78-12.05,13-15.12-6.87-24.66-15.52-29.84-27.58.11-.14.22-.28.34-.41,1.66-1.97,10.76-11.11,12.5-13.01.98-1.08,3.5-2.85,3.46-4.58-.12-6.12-16.05,10.78-17.12,11.92-3.46,3.7-6.82,7.5-10.14,11.33-13.19-24.29-36.69-59.38-95.53-59.38-23.96,0-32.11,7.41-43.34,19.49-32.1,34.49-30.8,103.16-30.09,118.44h0s0,0,0,0c0,1.38,1.12,2.5,2.5,2.5h146.95c1.38,0,2.5-1.12,2.5-2.5,0,0,0,0,0,0h.06c.25-5.48.58-17.8-.57-32.95,3.13,2.44,6.61,4.51,7.67,4.99,16.55,7.46,30.84-2.91,42.65-13.82,3.37-3.11,34.09-32.33,28.85-35.68Zm-146.23,74.95h-79.39c-.56-18.24-.23-81.29,28.79-112.5,7.48-8.04,13.39-13.7,24.17-16.29,20.39,39.53,31.19,84.62,26.43,128.79Zm33.01,0h-25.58c1.58-28.35-3.93-57.69-10.22-85.35-2.39-10.49-13.88-37.58-18.08-44.46,3.06-.39,6.46-.6,10.33-.6,6.42,0,11.89.25,16.63.7,20.69,39.75,31.7,85.19,26.91,129.71Zm45.6-29.11c-3.32-1.11-6.44-2.87-9.14-5.1-.73-.6-1.83-2.1-3.05-3.31-1.62-15.7-4.92-33.55-11.39-49.7-.52-1.3-2.02-1.92-3.32-1.4-1.32.52-1.94,2.01-1.41,3.33,12.68,31.91,12.77,71.45,12.35,85.3h-22.2c1.58-28.35-3.93-57.69-10.22-85.35-2.29-10.07-12.98-35.45-17.54-43.54,14.62,2.33,21.1,7.1,29.2,12.56,13.2,8.9,24.25,20.96,32.96,34.22,1.57,2.4,3.07,4.84,4.45,7.35.77,1.39,1.31,3.62,2.42,4.73,2.44,2.45,3.92.8,5.67-1.3,1.54-1.85,3.05-3.73,4.56-5.6,1.98,4.06,4.7,7.87,7.64,11.28,5.92,6.87,13.42,12.39,21.78,15.93-.74.73-1.47,1.47-2.22,2.19-10.71,10.33-24.27,23.88-40.53,18.42Z"/>
            </g>
            <g>
              <path class="cls-10" d="m130.59,432.15c5.88,14.33,16.73,27.86,32.61,33.25,14.67,4.98,81.14,3.72,90.1,3.64,7.98-.08,14.87-2.96,18.41-10.12,3.54-7.16,3.27-24.64-2.14-30.52-5.52-5.99-13.92-5.29-22.06-5.53-8.14-.24-63.04,6.28-77.69-7.6-7.82-7.41-13.78-16.91-15.8-27.49"/>
              <path class="cls-7" d="m132.54,431.35c4.85,10.59,12,20.36,21.96,26.65,10.54,6.66,22.85,6.89,34.96,7.53,18.88.99,37.81.93,56.71.76,9.53-.08,19.94,0,23.89-10.5,1.75-4.65,1.8-18.63-.69-23.02-2.98-5.24-8.34-6.63-13.96-7-22.82-1.52-45.52,3.22-68.31-.97-10.21-1.88-17.45-5.36-24-13.38-3.46-4.24-6.34-8.93-8.42-14-1.04-2.53-2.43-5.68-2.57-8.44-.16-3.08,2.11-4.43,3.98-1.58,1.24,1.87,1.4,5.4,2.27,7.57.99,2.46,2.2,4.83,3.57,7.09,2.86,4.7,6.72,9.82,11.32,12.95,8.48,5.78,20.88,6.06,30.75,6.46,13.01.52,25.96-.39,38.95-1.08,7.58-.4,16.55-.97,23.46,2.4,10.99,5.36,12.84,28.42,7.25,38.35-5.64,10.01-16.24,10.68-26.52,10.83-21.74.31-43.59.62-65.29-.91-14.06-.99-26.53-3.65-37.14-13.53-4.72-4.4-8.65-9.58-11.77-15.22-1.28-2.32-4.34-6.61-4.31-9.34.03-2.2,2.37-4.35,3.91-1.6Z"/>
            </g>
          </g>
          <g>
            <g>
              <g>
                <path class="cls-7" d="m335.24,312.22c-12.69-5.42-25.87-9.15-39.6-10.58-6.43-.67-12.93-.62-19.4-.84-.98-.03-3.67-.28-3.97,1.26-.3,1.53,5.7,2.03,8.08,2.12,18.46.7,36.1,5.41,53.65,10.66,1.67.5,5.03,1.17,5.31.43s-2.54-2.39-4.07-3.04Z"/>
                <path class="cls-7" d="m336.13,275.25c.05-1.59-5.22-1.98-7.67-2.11-16.01-.86-31.83.21-47.23,5.04-2.11.66-4.14,1.6-6.18,2.46-1.72.79-2.97,1.97-2.61,2.9.36.92,1.33.74,1.89.62,2.59-.58,5.15-1.27,7.69-2.03,11.26-3.4,22.85-4.63,34.52-5.33,5.3-.32,10.61-.46,15.91-.76,1.09-.06,3.67-.03,3.7-.79Z"/>
                <path class="cls-7" d="m331.62,292.13c-6.6-2.47-13.54-3.33-20.48-4.01-12.12-1.2-24.18-.93-36.1,1.91-1.2.29-3.02.39-2.83,2.04.2,1.62,1.93,1.16,3.09,1.07,3.69-.3,7.38-.69,11.07-1.05,14.56-1.43,28.97-.05,43.33,2.35,1.92.32,5.43,1.47,5.81.57s-2.46-2.33-3.9-2.87Z"/>
              </g>
              <g>
                <g>
                  <path class="cls-10" d="m194.22,178.78s-32.07-74.53-36.41-106.06c-4.34-31.52,6.49-43.37,14.65-45.24,8.15-1.87,23.03-2.91,36.47,21.67,13.44,24.58,24.21,97.33,26.28,124.74"/>
                  <path class="cls-7" d="m192.6,179.48c-5.6-12.96-10.95-26-16.06-39.15-5.12-13.15-9.92-26.42-14.16-39.93-2.11-6.76-4.05-13.58-5.57-20.58-1.48-7.05-2.3-14.2-2.26-21.45.09-7.22,1.02-14.67,4.33-21.55,1.68-3.4,4.03-6.64,7.32-9.01,1.64-1.17,3.51-2.11,5.57-2.62,1.84-.44,3.69-.75,5.6-.9,3.81-.29,7.76.19,11.39,1.52,3.64,1.32,6.94,3.37,9.78,5.83,5.71,4.94,9.85,11.09,13.24,17.51,3.32,6.57,5.53,13.37,7.58,20.19,2.03,6.82,3.71,13.71,5.28,20.61,3.11,13.81,5.6,27.72,7.77,41.68,1.1,6.98,2.05,13.97,2.88,20.99.84,7.02,1.58,14.04,2.09,21.13.08,1.18-.81,2.21-1.99,2.3-1.17.08-2.19-.79-2.3-1.96v-.02c-1.21-13.92-3.26-27.84-5.4-41.7-2.2-13.86-4.73-27.68-7.84-41.33-1.57-6.82-3.26-13.61-5.26-20.28-2.01-6.64-4.23-13.29-7.29-19.29-3.14-6-7.01-11.76-11.96-16.07-4.92-4.35-11.16-6.82-17.6-6.28-1.6.11-3.24.38-4.82.75-1.36.33-2.7.98-3.93,1.84-2.46,1.74-4.43,4.33-5.87,7.22-2.88,5.84-3.86,12.71-3.96,19.51-.07,6.83.67,13.75,2.05,20.48,1.43,6.78,3.3,13.52,5.35,20.21,4.1,13.39,8.87,26.61,13.78,39.77,4.94,13.15,10.12,26.24,15.54,39.19h0c.38.91-.05,1.95-.95,2.32-.89.37-1.92-.04-2.3-.93Z"/>
                  <path class="cls-7" d="m182.26,63.17c-2.76.37-5.85.75-8.98.2-.54-.1-.92-.56-.95-1.17-.03-.77.34-1.4,1.06-1.61,2.9-.85,5.85-1.15,8.82-.32.73.2,1.14.78,1.27,1.49.13.67-.47.88-1.22,1.41Z"/>
                  <path class="cls-7" d="m179.14,56.46c-1.98.7-4.16.97-6.38.81-.85-.06-1.39-.63-1.53-1.47-.14-.86.26-1.53,1.07-1.79,2.14-.69,4.33-.8,6.53-.35.73.15,1.21.65,1.4,1.36.2.79-.52.99-1.1,1.44Z"/>
                  <path class="cls-7" d="m207.3,113.94c1.14-.11,1.51.17,1.18,1.3-.41,1.4-1.28,2.44-2.24,3.43-1.82,1.87-3.64,3.75-5.89,5.13-.81.5-1.81.9-2.52.09-.64-.72-.16-1.62.38-2.31,2.1-2.68,4.53-5.01,7.29-7,.57-.41,1.22-.64,1.81-.64Z"/>
                  <path class="cls-7" d="m194.4,117.23c-.91-.07-1.46-.58-1.02-1.49,1.44-2.97,3.66-5.19,6.66-6.61.37-.18.71-.21,1.04.1.34.32.28.66.07,1.02-1.63,2.7-3.65,5.04-6.27,6.82-.12.08-.28.09-.48.15Z"/>
                </g>
                <g>
                  <g>
                    <path class="cls-10" d="m232.4,161.92c-9.78-2.45-19.59-4.45-30.05-4.45-15.13,0-29.49,3.28-42.45,9.12-3.32-11.91-10.34-34.01-22.52-59.14-18.24-37.62-38.47-61.89-53.41-63.78-14.94-1.89-23.03,3.45-26.64,10.73-3.61,7.28-3.38,30.37,8.45,55.88,19.62,42.31,44.86,73.96,55.54,86.39-14,17.64-22.38,39.94-22.38,64.22,0,57.11,46.3,103.41,103.41,103.41s103.41-46.3,103.41-103.41c0-30.26-17.6-63.12-33.71-76.39-19.87-16.37-29.88-20.12-39.65-22.58Z"/>
                    <path class="cls-8" d="m305.43,252.39c.22,2.8.34,5.64.34,8.49,0,57.1-46.3,103.42-103.4,103.42s-103.42-46.31-103.42-103.42c0-2.85.12-5.67.35-8.46,4.27,53.17,48.78,94.99,103.06,94.99s98.79-41.84,103.06-95.03Z"/>
                    <path class="cls-8" d="m203.45,317.44c-.55.97-.2,2.21.41,3.15,1.01,1.54,2.78,2.64,4.62,2.57,1.84-.06,3.63-1.43,3.94-3.25.32-1.91-1.31-4-3.19-4.27-1.56-.23-4.96.37-5.78,1.8Z"/>
                    <path class="cls-8" d="m163.78,204.23c.71,4.44,2.39,8.81,5.32,12.22,2.93,3.41,7.21,5.79,11.71,5.89,1.79.04,3.6-.26,5.35.12,1.69.37,3.16,1.36,4.65,2.22,8.27,4.78,18.35,6.2,27.7,4.23,9.35-1.97,17.9-7.24,24.16-14.45,1.81-2.09,3.45-4.35,5.6-6.1,1.33-1.08,2.83-1.95,4.22-2.94,8.09-5.74,13.65-16.76,7.6-25.97-.85,4.7-1.73,9.48-3.95,13.7-2.22,4.23-6.04,7.88-10.74,8.7-1.75.3-3.86.38-4.78,1.9-.33.55-.43,1.2-.58,1.83-1.4,5.95-7.02,9.89-12.55,12.5-5.57,2.62-11.57,4.51-17.72,4.82-6.15.31-12.48-1.03-17.64-4.4-1.33-.87-2.66-1.9-4.24-2.02-1.34-.11-2.62.46-3.92.78-4.12,1.01-8.55-.5-11.92-3.07-3.37-2.57-5.87-6.11-8.2-9.65"/>
                    <path class="cls-5" d="m140.18,182.65c4.58-1.59.47-15.03-4.59-27.62-5.06-12.59-28.6-70.86-39.55-80.39-10.95-9.53-21.77-8.95-21.19,5.53.59,14.48,12.83,35.9,23.07,52.85,10.24,16.95,33.54,52.65,42.25,49.63Z"/>
                  </g>
                  <g>
                    <path class="cls-7" d="m276.26,185.63c7.39,7.28,13.57,15.49,18.48,24.64,10.09,18.81,14.54,38.88,12.18,60.13-4.54,40.88-25.8,69.99-62.89,87.33-13.9,6.5-27.62,8.91-42.51,8.93-51.93.05-96.21-37.66-104.25-89.22-4.48-28.76,1.88-55.19,18.88-78.88,1.58-2.2,1.37-3.36-.18-5.39-17-22.27-32.32-45.65-45.51-70.41-5.24-9.84-10.67-19.55-13.7-30.39-2.1-7.49-4.04-14.98-3.9-22.83.1-5.37,1.44-10.48,3.54-15.4,2.95-6.92,8.48-10.38,15.63-11.84,6.27-1.29,12.19-.51,17.92,2.23,9.35,4.47,16.96,11.02,23.12,19.31,8.19,11.01,15.39,22.72,21.21,35.08,8.21,17.43,16.2,35.01,22.6,53.23,1.04,2.97,2.05,5.95,2.98,8.95.38,1.21.74,1.74,2.19,1.19,11.67-4.48,23.78-6.86,36.27-7.23,10.04-.29,19.95.68,29.67,3.21,18.19,5.45,31.1,9.55,48.29,27.36Zm-48.45-23.08c-8.52-2.17-17.13-3.58-24.03-3.45-13.78-.11-25.16,2.45-36.33,6.17-1.73.58-3.88.98-4.93,2.23-1.23,1.45.6,3.38.8,5.16.15,1.33.28,2.61-1.35,2.9-1.58.29-2.03-.89-2.37-2.19-.56-2.15-1.16-4.3-1.89-6.4-5.54-15.89-12.12-31.34-18.63-46.85-6.85-16.32-15.15-31.75-24.6-46.62-6.17-9.7-13.58-18.25-23.9-23.83-3.55-1.92-7.2-3.63-11.25-3.77-9.48-.31-16.13,2.32-19.45,10.04-2.39,5.57-3.58,11.38-3.1,17.52.57,7.34,2.63,14.32,4.77,21.29,2.87,9.34,7.93,17.62,12.4,26.21,14.46,27.76,32.18,53.41,50.64,78.59.38.51.94.98.4,1.57-.59.65-1.38.33-1.85-.17-1.64-1.76-2.43-.63-3.4.76-10.72,15.45-16.87,32.52-18.15,51.32-1.58,23.1,4.19,44.29,17.18,63.34,23.37,34.26,63.55,50.28,104.11,41.85,42.36-8.8,75.21-45.81,78.84-88.82,1.55-18.34-1.48-35.87-9.28-52.53-4.77-10.19-11.09-19.32-18.97-27.34-11.36-11.24-22.7-20.81-45.65-26.97Z"/>
                    <path class="cls-7" d="m84.76,65.85c3.97.33,7.7,2.75,10.93,6.09,7.78,8.05,13.71,17.3,18.02,27.63,9.46,22.64,19.46,45.05,28.42,67.89,1.27,3.24,2.38,6.5,2.49,10,.08,2.57-.42,5.1-2.82,6.4-2.4,1.3-4.93.81-7.17-.78-3.97-2.82-7.49-6.11-10.66-9.81-10.3-12-18.71-25.31-26.84-38.82-7.28-12.1-14.75-24.1-19.75-37.42-1.94-5.17-3.95-10.32-4.47-15.9-.42-4.63,1.12-8.65,3.88-12.21,1.75-2.26,4.27-3.15,7.95-3.07Zm-.83,4.02c-2.11,0-3.52.65-4.5,2.1-2.14,3.18-3.16,6.63-2.43,10.48.49,2.57,1.14,5.1,2,7.57,4.11,11.8,9.72,22.85,16.24,33.49,9.63,15.73,19.01,31.61,30.87,45.83,3.01,3.62,6.28,6.95,9.96,9.89,1.06.85,2.35,1.66,3.56,1.02,1.27-.67,1.08-2.21.91-3.54-.29-2.3-.91-4.51-1.77-6.66-9.37-23.41-19.69-46.42-29.46-69.67-4.01-9.53-9.66-17.97-16.72-25.48-2.47-2.63-5.3-4.66-8.66-5.04Z"/>
                    <path class="cls-7" d="m192.32,215.79c5.29,3.1,10.86,4.33,16.67,4.48,7.56.19,14.55-1.88,21.05-5.71,3.12-1.84,5.46-4.41,7.24-7.56.72-1.27.77-1.82-.91-2.29-3.99-1.13-6.95-3.64-8.26-7.67-1.54-4.75,1.9-8.77,6.84-8.15,5.01.63,8.62,4.31,8.87,9.36.09,1.72.55,1.67,1.86,1.13,6.87-2.82,12.13-11.04,11.78-18.53-.02-.38-.1-.78-.04-1.15.12-.75.19-1.7,1.06-1.86.8-.15,1.43.53,1.83,1.19,1.15,1.92,1.61,4.06,1.09,6.22-2.26,9.32-7.05,16.49-16.87,19.15-.95.26-1.64.58-2.02,1.6-3.2,8.67-9.99,13.33-18.3,16.22-9.71,3.38-19.41,3.47-29.08-.2-1.07-.41-2.31-.7-3.12-1.44-2.57-2.35-5.31-2.01-8.46-1.48-9.24,1.56-18.58-5.12-19.97-13.97-.14-.92-.79-2.29.45-2.65,1.43-.42,1.46,1.22,1.85,2.09,3.26,7.18,9.65,11.05,17.31,10.51,1.64-.12,2.17-.38,1.36-2.18-1.29-2.85-1.66-5.91-.87-9.02,1.01-3.93,4.39-6.28,8.24-5.78,3.59.47,5.68,3.22,5.72,7.44.05,4.27-2.09,7.43-5.34,10.27Zm-4.05-4.74c.56,1.42,1.29,1.7,2.45.49,1.65-1.72,2.76-3.66,2.79-6.09.02-1.47-.37-2.84-2.01-3.18-1.71-.35-2.96.46-3.61,2.09-.58,1.46-.48,4.53.38,6.68Zm51.31-13.14c-.45-2.66-3.18-4.87-5.65-4.76-1.64.07-2.37,1.3-1.61,2.94.87,1.88,2.35,3.21,4.25,4.01.83.35,1.83,1,2.59.41.84-.65.41-1.83.43-2.6Z"/>
                    <path class="cls-7" d="m206.45,179.1c1.14-.11,1.51.17,1.18,1.3-.41,1.4-1.28,2.44-2.24,3.43-1.82,1.87-3.64,3.75-5.89,5.13-.81.5-1.81.9-2.52.09-.64-.72-.16-1.62.38-2.31,2.1-2.68,4.53-5.01,7.29-7,.57-.41,1.22-.64,1.81-.64Z"/>
                    <path class="cls-7" d="m76.01,58.98c-1.03,2.59-2.22,5.47-4.24,7.91-.35.42-.95.53-1.48.25-.69-.35-1.05-.99-.88-1.71.69-2.95,1.87-5.66,4.05-7.84.53-.53,1.24-.61,1.93-.37.65.22.54.85.63,1.76Z"/>
                    <path class="cls-7" d="m68.63,58.39c-.37,2.07-1.2,4.09-2.43,5.95-.47.71-1.23.9-2.03.61-.82-.3-1.2-.98-1.03-1.81.45-2.2,1.43-4.16,2.9-5.86.49-.57,1.17-.74,1.87-.55.79.21.61.94.71,1.66Z"/>
                    <path class="cls-7" d="m193.55,182.38c-.91-.07-1.46-.58-1.02-1.49,1.44-2.97,3.66-5.19,6.66-6.61.37-.18.71-.21,1.04.1.34.32.28.66.07,1.02-1.63,2.7-3.65,5.04-6.27,6.82-.12.08-.28.09-.48.15Z"/>
                  </g>
                </g>
              </g>
            </g>
            <g>
              <g>
                <g>
                  <path class="cls-2" d="m170.75,292.78c2.5,1.54,5.14,4.38,5.53,7.94.38,3.48-1.54,6-3.55,7.53-4.51,3.45-10.18,4.51-15.86,2.96-2.96-.81-6.32-2.8-7.7-6.71-2.87-8.14,3.77-11.38,7.59-13.07,4.2-1.86,9.35-1.51,13.99,1.35Z"/>
                  <path class="cls-2" d="m292.68,279.84c1.96,1.35,4.05,3.79,4.43,6.8.37,2.94-1.06,5.02-2.57,6.27-3.4,2.81-7.74,3.58-12.15,2.16-2.29-.74-4.93-2.49-6.08-5.81-2.38-6.91,2.66-9.5,5.57-10.84,3.2-1.48,7.17-1.08,10.8,1.43Z"/>
                  <path class="cls-7" d="m160.3,305.68c.27,1.12,1.22,1.72,2.25,1.41,1.12-.33,1.73-1.39,1.44-2.51-.25-.98-1.12-1.5-2.16-1.29-1.16.23-1.81,1.23-1.53,2.39Z"/>
                  <path class="cls-7" d="m155.31,299.38c.18,1.1,1.06,1.81,2.11,1.7,1.11-.13,1.78-1.12,1.59-2.35-.18-1.21-.94-1.83-2.05-1.66-1.16.17-1.84,1.13-1.65,2.31Z"/>
                  <path class="cls-7" d="m167.26,297.22c-.21-1.16-1.09-1.87-2.09-1.7-.98.17-1.65,1.22-1.46,2.3.19,1.09,1.16,1.85,2.14,1.69,1.04-.18,1.62-1.12,1.42-2.28Z"/>
                </g>
                <g>
                  <path class="cls-7" d="m290.41,290.19c-.25-1.15-1.1-1.76-2.16-1.56-1.2.23-1.86,1.31-1.56,2.58.24,1.04,1.24,1.68,2.26,1.44,1.1-.25,1.71-1.29,1.46-2.46Z"/>
                  <path class="cls-7" d="m293.46,283.71c-.22-1.03-1.11-1.63-2.06-1.39-.96.24-1.69,1.5-1.47,2.53.2.94,1.4,1.73,2.28,1.5.91-.24,1.5-1.48,1.25-2.64Z"/>
                  <path class="cls-7" d="m282.46,283.66c-.96.24-1.49,1.15-1.27,2.2.19.94,1.05,1.56,1.92,1.38,1.01-.2,1.59-1.25,1.31-2.36-.26-1.03-.96-1.47-1.96-1.23Z"/>
                </g>
              </g>
              <g>
                <path class="cls-10" d="m264.1,223.98c-18.17,2.48-21.4,19.07-19.78,27.9,1.81,9.88,8.66,22.82,28.97,21.2,20.3-1.61,22.14-20.61,21.11-28.1-1.03-7.5-7.8-24.07-30.3-21Z"/>
                <path class="cls-7" d="m293.81,259.78c-1.96,4.07-4.83,7.39-8.38,10.08-1.75,1.32-3.79,2.27-5.86,3.16-2.63,1.12-5.37,1.73-8.13,1.88-9.05.5-16.65-2.66-22.6-9.55-2.11-2.44-3.61-5.22-4.69-8.26-.95-2.66-1.55-5.39-1.56-8.2,0-2.58.25-5.12.91-7.66,1.11-4.3,3.24-7.99,6.13-11.27,1.75-1.99,3.86-3.59,6.18-4.95,1.54-.9,3.13-1.67,4.81-2.18,1.84-.56,3.76-.93,5.66-1.23,2.55-.4,5.15-.5,7.7-.06,5.4.95,10.12,3.3,14.13,7.05,8.96,9.66,9.37,23.32,5.71,31.19Zm-47.04-9.86c.1,2.7,1.05,5.12,2.12,7.51,1.95,4.35,5.06,7.68,9.17,10.06,2.28,1.32,4.73,2.25,7.37,2.66,1.47.23,2.91.56,4.41.39.25-.03.6.07.71-.25.1-.28-.15-.45-.32-.66-.68-.84-1.43-1.62-2.05-2.52-1.65-2.39-3.04-4.94-4.04-7.63-.66-1.77-1.32-3.56-1.71-5.44-.54-2.58-1.51-5.09-1.97-7.68-.63-3.59-1.06-7.23-.53-10.9.16-1.11.32-2.24.69-3.29.63-1.77,1.11-3.6,2.1-5.24.25-.41.09-.76-.56-.66-.5.07-.85.38-1.28.55-2.52,1-4.73,2.48-6.73,4.3-5.58,5.08-7.69,11.47-7.39,18.81Zm24.17-4.45c1.51-.13,1.66-.27,2.5-1.06,1.39-1.3,1.48-4.8.43-6.41-1.14-1.76-3.2-2.36-5.41-1.63-1.66.55-2.91,2.58-2.89,4.45.03,2.85,3.03,5.08,5.37,4.65Z"/>
                <g>
                  <path class="cls-10" d="m176.4,236.7c-14.17-.55-25.43,13.72-24.1,27.74,1.33,14.02,13.84,24.38,28.09,22.71,14.25-1.67,23.17-15.98,21.81-27-1.36-11.02-7.22-22.73-25.8-23.44Z"/>
                  <path class="cls-7" d="m204.17,260.03c.38,1.82.3,3.85,0,5.86-.88,5.68-9.98,29.6-33.45,22.53-6.54-1.69-11.68-5.33-15.52-10.73-1.89-2.65-3.24-5.63-3.96-8.9-.44-1.96-.8-3.91-.8-5.89,0-2.5.21-5,.94-7.45.94-3.17,2.24-6.15,4.18-8.8,2.46-3.34,5.48-6.08,9.24-7.95,4.51-2.23,9.33-3.15,14.3-3.08,2.79.04,5.51.71,8.16,1.77,5.22,2.09,9.4,5.39,12.52,10.02,1.15,1.71,2.07,3.52,2.81,5.47.87,2.27,1.44,4.54,1.59,7.15Zm-49.44,4.25c.13,2.07.67,4.02,1.38,5.97.97,2.67,2.49,4.95,4.33,7.05,2.85,3.26,6.4,5.44,10.55,6.63,2.53.73,5.12,1.09,7.78.8.83-.09.8-.38.39-.95-.35-.49-.65-1.01-.93-1.54-1.35-2.57-2.62-5.15-3.57-7.91-.94-2.72-1.55-5.5-1.99-8.3-.43-2.69-1.47-13.03.61-19.47.61-2.14,1.42-4.19,2.42-6.17.5-.98-.05-.85-.7-.86-3.41-.05-6.38,1.37-9.17,3.01-3.79,2.23-6.71,5.33-8.74,9.33-2,3.95-2.72,8.05-2.35,12.4Zm27.21-13.74c-2.11.08-5.33,1.21-4.68,5.44.41,2.64,3.04,3.69,5.73,3.31,2.51-.35,4.12-2.55,3.7-5.27-.36-2.32-1.82-3.85-4.75-3.48Z"/>
                </g>
              </g>
              <g>
                <g>
                  <path class="cls-10" d="m159.54,225.67c.69,7.8,24.61,10.49,25.42-1.31.81-11.8-26.18-7.29-25.42,1.31Z"/>
                  <path class="cls-7" d="m169.64,216.13c2.21-.48,4.47-.71,6.73-.81,2.16-.1,4.15.66,6.02,1.61,1.61.81,2.95,1.99,4.07,3.47,1.57,2.07,1.21,4.92.03,6.82-.83,1.33-1.96,2.4-3.22,3.33-2.11,1.57-4.55,2.26-7.07,2.64-4.39.65-8.78.65-13.04-.74-2.89-.94-5.54-3.35-5.42-6.92.2-6.16,8.9-8.73,11.91-9.39Zm11.94,10.95c.45-.41.93-.8,1.36-1.23.8-.83,1.08-2.34.61-3.11-1.46-2.37-3.79-3.42-6.38-3.64-2.68-.22-5.38.21-8.04.72-1.42.27-7.83,1.77-7.81,5.75.01,1.72,1.39,2.74,2.97,3.19,3.78,1.08,7.62,1.24,11.5.58,2.08-.35,4.15-.77,5.79-2.26Z"/>
                </g>
                <g>
                  <path class="cls-10" d="m250.11,205.84c1.54,7.68,25.6,7.75,25.12-4.07-.48-11.82-26.82-4.41-25.12,4.07Z"/>
                  <path class="cls-7" d="m259.12,195.26c2.14-.72,4.37-1.19,6.6-1.54,2.14-.33,4.19.21,6.16.95,1.69.63,3.15,1.66,4.42,3.01,1.79,1.89,1.74,4.76.77,6.77-.68,1.41-1.68,2.59-2.84,3.67-1.93,1.79-4.27,2.74-6.74,3.39-4.3,1.12-8.65,1.6-13.05.68-2.97-.62-5.87-2.72-6.14-6.29-.47-6.15,7.89-9.65,10.81-10.63Zm13.06,9.58c.41-.46.84-.89,1.21-1.37.71-.91.82-2.44.27-3.16-1.71-2.2-4.14-2.99-6.74-2.92-2.69.07-5.32.79-7.91,1.59-1.38.42-7.59,2.61-7.14,6.57.2,1.71,1.68,2.57,3.3,2.85,3.87.66,7.71.4,11.49-.67,2.03-.58,4.04-1.21,5.51-2.88Z"/>
                </g>
              </g>
              <g>
                <path class="cls-7" d="m88.35,316.02c11.94-6.91,16.47-8.44,29.93-11.52,6.3-1.44,23.21-3.95,23.91-1.76.48,1.49-5.41,2.71-7.76,3.08-18.24,2.92-27.74,5.31-44.53,12.64-1.6.7-4.85,1.76-5.22,1.07s2.24-2.68,3.67-3.51Z"/>
                <path class="cls-7" d="m75.55,283.86c-.25-1.57,4.94-2.6,7.36-3.02,15.79-2.79,31.62-3.64,47.5-.71,2.18.4,4.3,1.09,6.44,1.69,1.8.57,3.18,1.6,2.94,2.56-.24.96-1.23.9-1.8.84-2.64-.26-5.27-.64-7.88-1.09-11.59-2.01-23.24-1.83-34.91-1.11-5.3.33-10.58.82-15.88,1.17-1.09.07-3.65.41-3.77-.33Z"/>
                <path class="cls-7" d="m82.06,300.07c6.25-3.25,13.04-4.94,19.84-6.46,11.88-2.65,23.89-3.85,36.06-2.47,1.23.14,3.05.02,3.05,1.68,0,1.63-1.78,1.38-2.93,1.43-3.7.15-7.41.21-11.12.29-14.63.34-28.77,3.46-42.73,7.57-1.86.55-5.21,2.12-5.7,1.27s2.16-2.61,3.52-3.32Z"/>
              </g>
              <g>
                <g>
                  <path class="cls-9" d="m220.31,289.73c2.93,1.42,5.92,2.79,9.11,3.41,3.19.62,6.65.42,9.48-1.17,3.66-2.05,5.76-6.05,7.2-10,.5-1.39.96-2.83.94-4.31-.02-1.48-.57-3.02-1.75-3.91-.91-.68-2.07-.92-3.2-1.03-5.93-.56-12.54,1.18-17.97,3.63-3.08,1.38-5.32,3.68-7.37,6.47-2.27,3.08.91,5.63,3.56,6.91Z"/>
                  <path class="cls-3" d="m214.35,270.27c.66-4.86,2.63-9.71,6.31-12.96,3.67-3.25,9.23-4.6,13.68-2.53,1.8.84,3.33,2.17,4.64,3.66,2.17,2.49,3.75,5.48,4.8,8.61.73,2.18,1.21,4.44,1.44,6.72-7.69-1.06-15.7.32-22.59,3.89-1.64.85-6.15,5.4-7.5,3.37-1.7-2.55-1.16-7.92-.77-10.77Z"/>
                  <path class="cls-1" d="m225.46,280.34c-1.18.73-2.4,1.54-3.01,2.79-.61,1.25-.33,3.03.93,3.62.58.27,1.26.24,1.9.18,1.95-.2,3.87-.69,5.67-1.46,1.25-.53,2.5-1.24,3.25-2.38.74-1.14.81-2.82-.17-3.77-.78-.76-1.99-.88-3.08-.81-1.76.11-4,.92-5.5,1.84Z"/>
                </g>
                <path class="cls-7" d="m242.54,271.17c5.12.31,6.58,2.85,5.98,7.34-.65,4.9-2.82,9.17-6.28,12.69-2.71,2.75-6.26,3.7-10,3.82-5.73.18-10.73-2.06-15.27-5.26-3.42-2.41-3.69-6.16-.98-9.34,3.27-3.84,7.48-6.16,12.31-7.42,5.36-1.45,10.9-2.02,14.23-1.82Zm-9.26,4.77c-1.94.32-3.84.81-5.7,1.43-3.33,1.11-6.27,2.85-8.5,5.62-1.36,1.68-1.13,2.82.65,4.03,1.8,1.22,3.83,1.97,5.82,2.82,2.61,1.12,5.35,1.51,8.13,1.11,2.43-.35,4.73-1.21,6.33-3.25.75-.96,1.51-1.92,2.12-2.97,1.26-2.17,2.22-4.49,2.49-7,.22-2.04-.24-2.53-2.29-2.64-3.06-.17-6.07.15-9.05.86Z"/>
                <path class="cls-7" d="m227.99,265.5c1.57-.4,3.39-.36,5.21-.39.47,0,.94.07,1.4.17,1.37.3,2.06,1.05,2.03,2.13-.03.97-.64,1.5-2.16,1.67-1.47.16-2.95.25-4.43.3-1.99.06-3.85.53-5.63,1.43-.72.37-1.5.63-2.32.62-1.08-.01-1.6-.71-1.31-1.74.19-.67.62-1.17,1.14-1.63,1.49-1.29,3.1-2.01,6.07-2.57Z"/>
              </g>
              <path class="cls-7" d="m230.84,303.57c-11.46,5.69-25.13,2.72-33.2-7.19-1.18-1.48-3.61-.08-2.93,1.67,5.45,14.96,26.97,19.62,38.11,8.26,1.34-1.34-.3-3.59-1.98-2.74h0Z"/>
              <path class="cls-4" d="m306.93,239.96c-3.23-14.74-12.87-32.01-40.51-30.52-9.17.49-17.62,5.09-23.78,12.93-5.51,7.03-8.46,15.84-8.35,24.49-1.3-1.07-2.8-1.95-4.42-2.52-3.03-1.13-6.39-1.12-9.36-.56-1.51.25-2.93.7-4.31,1.15-1.34.46-2.75,1-4.14,1.76-1.38.76-2.74,1.76-3.8,3.06-.03.04-.06.09-.09.13-4.28-13.34-14.63-26.77-39.15-25.45-9.17.49-17.62,5.09-23.78,12.93-6.84,8.72-9.74,20.19-7.75,30.69,1.87,9.87,7.49,18.36,15.83,23.91,7.71,5.13,16.86,7.13,25.99,5.73.71-.11,1.41-.24,2.12-.39,9.16-1.94,17.16-7.6,22.54-15.93,5.31-8.22,7.39-18.1,5.57-26.42-.07-.3-.14-.61-.21-.91,1.29-1.51,2.82-2.49,4.7-3.2,1.12-.44,2.37-.78,3.67-1.16,1.27-.39,2.54-.68,3.76-.96,2.47-.5,4.84-.63,7.17-.16,2.08.42,4.07,1.35,5.97,2.65.08.62.18,1.23.29,1.84,1.87,9.87,7.49,18.36,15.83,23.91,7.71,5.13,16.86,7.13,25.99,5.73.71-.11,1.41-.24,2.12-.39,9.16-1.94,17.16-7.6,22.54-15.93,5.31-8.22,7.39-18.1,5.57-26.43Zm-107.22,38.67c-4.64,7.19-11.51,12.06-19.33,13.72-8.49,1.81-17.09.16-24.25-4.6-7.19-4.79-12.04-12.12-13.66-20.64-1.72-9.08.81-19.03,6.76-26.62,4.67-5.96,10.84-9.71,17.58-10.75.82-.13,1.65-.21,2.48-.26,19.34-1.04,31.21,7.89,35.29,26.54,1.54,7.03-.28,15.48-4.88,22.6Zm97.39-14.99c-4.64,7.19-11.5,12.06-19.33,13.72-8.48,1.81-17.09.16-24.25-4.6-7.19-4.79-12.04-12.12-13.66-20.64-1.72-9.08.81-19.03,6.76-26.62,4.67-5.96,10.84-9.71,17.58-10.75.82-.13,1.65-.21,2.48-.26,19.34-1.04,31.21,7.89,35.29,26.54,1.54,7.03-.28,15.48-4.88,22.6Z"/>
            </g>
          </g>
        </g>
        <g>
          <g>
            <g>
              <path class="cls-12" d="m251.85,468.89h146.23c7.74,0,14.29-5.7,15.37-13.36l12.52-88.97c1.31-9.34-5.94-17.68-15.37-17.68h-142.69c-7.51,0-13.94,5.37-15.27,12.76l-16.06,88.97c-1.72,9.52,5.6,18.27,15.27,18.27Z"/>
              <path class="cls-10" d="m331.29,374.22c-20.95.11-37.9,17.24-37.8,38.19.11,20.95,17.24,37.9,38.19,37.8,20.95-.11,37.91-17.24,37.8-38.19-.11-20.95-17.24-37.91-38.19-37.8Zm.37,71.51c-4.07.02-8.48-6.6-10.84-17.25,3.39.4,6.99.61,10.76.59,3.77-.02,7.36-.27,10.75-.7-2.25,10.67-6.6,17.34-10.67,17.36Zm-.11-21.13c-4.15.02-8.02-.26-11.58-.75-.53-3.55-.85-7.42-.87-11.57-.02-4.15.26-8.02.75-11.58,3.55-.53,7.42-.85,11.57-.87,4.15-.02,8.02.26,11.58.75.53,3.55.85,7.42.87,11.57.02,4.15-.26,8.02-.75,11.58-3.55.53-7.42.85-11.57.87Zm-16.22-1.55c-10.67-2.25-17.34-6.6-17.36-10.66-.02-4.07,6.6-8.48,17.25-10.84-.4,3.39-.61,6.99-.59,10.76.02,3.77.27,7.36.7,10.75Zm15.99-44.36c4.07-.02,8.48,6.6,10.84,17.25-3.39-.4-6.99-.61-10.76-.59s-7.36.27-10.75.7c2.25-10.67,6.6-17.34,10.66-17.36Zm16.33,22.68c10.67,2.25,17.34,6.6,17.36,10.66.02,4.07-6.6,8.48-17.25,10.84.4-3.39.61-6.99.59-10.76-.02-3.77-.27-7.36-.7-10.75Zm16.01,1.51c-3.97-2.79-9.75-4.96-16.75-6.24-1.35-6.99-3.58-12.75-6.42-16.69,11.14,3.11,19.94,11.83,23.17,22.93Zm-41.5-22.84c-2.79,3.97-4.96,9.75-6.24,16.75-6.99,1.35-12.75,3.58-16.69,6.42,3.11-11.14,11.83-19.94,22.93-23.17Zm-22.84,41.5c3.97,2.79,9.75,4.96,16.75,6.24,1.35,6.99,3.58,12.75,6.41,16.69-11.14-3.11-19.94-11.83-23.17-22.93Zm41.5,22.84c2.79-3.97,4.96-9.75,6.24-16.75,6.99-1.35,12.75-3.58,16.69-6.41-3.11,11.14-11.83,19.94-22.93,23.17Z"/>
              <path class="cls-1" d="m249.49,431.61c-.25,2.85-.41,5.76.32,8.52.73,2.76,2.49,5.39,5.13,6.49,3.43,1.42,7.53-.12,10.12-2.79,2.59-2.67,3.98-6.25,5.22-9.75,6.15-17.47,10.02-35.71,11.85-54.14.3-3,.54-6.06-.1-9.01-.64-2.95-2.29-5.82-4.95-7.24-12.48-6.68-16.53,15.97-18.39,22.47-4.25,14.87-7.88,30-9.22,45.45Z"/>
            </g>
            <path class="cls-7" d="m251.85,466.76c36.76-.24,73.51-.48,110.27-.72,8.31-.05,16.63-.11,24.94-.16,4.21-.03,9.15.49,13.26-.3,11.21-2.16,10.61-15.41,11.84-24.37,1.33-9.76,2.65-19.53,3.99-29.29,1.1-7.98,2.21-15.95,3.32-23.93,1.02-7.37,2.69-15.03,3.08-22.46.84-15.78-17.64-13.15-28.16-13.17-6.87-.01-13.73-.03-20.6-.04-34.39-.08-68.77-.26-103.16-.47-6.05-.04-11.72,1.47-14.39,7.6-1.71,3.93-2.01,8.97-2.79,13.14-1.57,8.4-3.14,16.8-4.72,25.2-2.92,15.61-5.84,31.21-8.76,46.82-.9,4.81-2.33,9.61-.25,14.31,2.13,4.78,6.92,7.78,12.12,7.84Zm0,4.27c-10.84-.13-18.61-9.59-17.55-20.15.51-5.04,1.73-10.14,2.6-15.15,1.65-9.49,3.3-18.98,4.95-28.47,1.55-8.91,3.1-17.82,4.65-26.73,1.28-7.38,1.65-15.92,4.36-22.88,4.47-11.49,15.69-11.7,26-11.76,11.07-.06,22.14-.12,33.21-.19,16.3-.09,32.6-.18,48.9-.21,16.23-.04,32.46-.12,48.7-.1,9.64.01,18.62,4.03,21.3,14.09,1.49,5.59-.14,11.8-.94,17.41-1.25,8.8-2.51,17.6-3.76,26.4-2.17,15.23-4.37,30.46-6.61,45.68-1.08,7.34-1.89,14.5-8.39,19.31-4.83,3.57-10.21,3.7-15.91,3.67-4.85-.03-9.71-.06-14.56-.1-41.26-.27-82.51-.54-123.77-.81-1.05,0-2.11-.01-3.16-.02Z"/>
          </g>
          <g>
            <rect class="cls-12" x="207.36" y="468.89" width="205.61" height="17.34" rx="4.57" ry="4.57"/>
            <path class="cls-7" d="m215.08,466.51c30.42-.09,60.84-.17,91.26-.26,23.66-.07,47.32-.08,70.98-.1,7.66,0,15.32-.02,22.98-.02,2.49,0,5.29-.28,7.71.39,6.48,1.79,9.37,9.32,6.97,15.33-2.74,6.86-9.48,6.5-15.47,6.5-7.07,0-14.13,0-21.2,0-28.19.01-56.37-.02-84.56.04-16.42.04-32.84.07-49.26.11-5.78.01-11.57.03-17.35.04-7.43.02-19.23,2.11-21.8-7.41-1.81-6.71,2.09-14.66,9.73-14.62Zm0,4.77c-6.43-.01-7.37,10.33-1.7,12.33,1.93.68,4.66.29,6.65.3,7.65.02,15.29.03,22.94.05,14.61.03,29.23.06,43.84.1,26.43.06,52.85.04,79.28.05,12.74,0,25.93,1,38.64.02,7.86-.61,7.15-12.11-.54-12.46-7.9-.36-15.9-.02-23.81-.02-22.04-.02-44.09-.02-66.13-.08-32.23-.09-64.45-.18-96.68-.27-.83,0-1.65,0-2.48,0Z"/>
          </g>
          <g>
            <g>
              <path class="cls-6" d="m338.47,327.22h53.71c3.63,0,6.58,2.95,6.58,6.58v57.25c0,5.71-4.64,10.35-10.35,10.35h-46.17c-5.71,0-10.35-4.64-10.35-10.35v-57.25c0-3.63,2.95-6.58,6.58-6.58Z"/>
              <path class="cls-1" d="m343,369.96c.04,4.28.35,8.56.94,12.8.34,2.44.87,5.05,2.7,6.7,1.93,1.74,4.77,1.91,7.36,1.85,2.61-.06,5.44-.37,7.35-2.14,2.12-1.97,2.49-5.14,2.59-8.03.14-4.28-.04-8.58-.55-12.84-.63-5.29-3.96-11-10.12-10.49-7.19.59-10.33,5.4-10.27,12.16Z"/>
              <path class="cls-1" d="m341.17,343.95c-.12,3.62,2,7.17,5.12,9.02,3.12,1.85,7.1,2.03,10.49.74,2.5-.95,4.74-2.71,6.01-5.07,1.27-2.36,1.49-5.32.33-7.73-1.58-3.28-5.23-4.98-8.74-5.97-5.8-1.62-13,2.6-13.21,9.01Z"/>
            </g>
            <g>
              <path class="cls-7" d="m381.28,403.63h-31.92c-10.87,0-19.71-8.84-19.71-19.71v-45.59c0-7.36,5.99-13.34,13.34-13.34h44.66c7.36,0,13.34,5.98,13.34,13.34v45.59c0,10.87-8.84,19.71-19.71,19.71Zm-38.29-74.17c-4.89,0-8.87,3.98-8.87,8.86v45.59c0,8.4,6.83,15.24,15.24,15.24h31.92c8.4,0,15.24-6.83,15.24-15.24v-45.59c0-4.89-3.98-8.86-8.87-8.86h-44.66Z"/>
              <g>
                <path class="cls-7" d="m382.54,381.2h-34.42c-1.24,0-2.24-1-2.24-2.24s1-2.24,2.24-2.24h34.42c1.24,0,2.24,1,2.24,2.24s-1,2.24-2.24,2.24Z"/>
                <path class="cls-7" d="m382.54,366.54h-34.42c-1.24,0-2.24-1-2.24-2.24s1-2.24,2.24-2.24h34.42c1.24,0,2.24,1,2.24,2.24s-1,2.24-2.24,2.24Z"/>
                <path class="cls-7" d="m382.54,351.88h-34.42c-1.24,0-2.24-1-2.24-2.24s1-2.24,2.24-2.24h34.42c1.24,0,2.24,1,2.24,2.24s-1,2.24-2.24,2.24Z"/>
              </g>
            </g>
          </g>
        </g>
      </g>
      <g>
        <g>
          <g>
            <path class="cls-6" d="m382.25,250.78c-2.47,0-4.83-1.09-6.45-2.99l-80.15-93.81c-3.01-3.56-2.56-8.89,1-11.9,3.56-3.01,8.89-2.56,11.9,1l72.45,84.7,54.59-93.16-64.7-53.53c-3.59-2.97-4.09-8.29-1.12-11.89,2.97-3.59,8.29-4.1,11.89-1.12l70.24,58.11c3.19,2.64,4,7.2,1.9,10.77l-64.25,109.65c-1.39,2.36-3.83,3.91-6.56,4.14-.24.02-.48.03-.73.03Z"/>
            <path class="cls-1" d="m324.21,180.17c-1.1,1.93-.48,4.65,1.35,5.91s4.59.88,6.01-.82,1.28-4.49-.3-6.05-4.36-1.67-6.06-.24"/>
            <path class="cls-1" d="m403.34,195.15c-.78,1.15-1.57,2.34-1.86,3.69-.29,1.36.03,2.94,1.14,3.77,1.22.92,3.03.63,4.28-.25s2.07-2.23,2.85-3.54c6.76-11.34,13.56-22.66,20.28-34.03,2.61-4.41.04-4.88-3.73-2.41-4.42,2.9-7.31,9.58-10.22,13.89-4.24,6.29-8.49,12.58-12.73,18.87Z"/>
          </g>
          <path class="cls-7" d="m382.25,253.02c-3.15,0-6.12-1.38-8.16-3.79l-80.14-93.8c-3.81-4.51-3.24-11.26,1.26-15.06,4.5-3.8,11.25-3.23,15.05,1.26l70.4,82.3,52.04-88.81-63.24-52.32c-4.54-3.75-5.17-10.5-1.42-15.04,1.82-2.2,4.38-3.55,7.22-3.83,2.84-.26,5.62.58,7.81,2.41l70.24,58.11c4.06,3.36,5.07,9.09,2.4,13.63l-64.25,109.65c-1.75,2.99-4.85,4.94-8.3,5.24-.3.03-.61.04-.92.04Zm-80.16-110.69c-1.41,0-2.84.48-4,1.46-2.61,2.21-2.94,6.13-.73,8.74l80.14,93.8c1.3,1.54,3.25,2.37,5.27,2.18,2.01-.17,3.81-1.31,4.83-3.05l64.25-109.65c1.55-2.64.96-5.97-1.4-7.92l-70.24-58.11c-1.28-1.06-2.89-1.55-4.54-1.4-1.65.16-3.14.94-4.2,2.22-2.18,2.64-1.81,6.56.83,8.74l64.7,53.53c.84.7,1.06,1.91.5,2.85l-54.59,93.16c-.37.62-1.01,1.03-1.73,1.1-.72.06-1.43-.22-1.9-.77l-72.45-84.69c-1.23-1.46-2.99-2.2-4.76-2.2Z"/>
        </g>
        <g>
          <g>
            <circle class="cls-9" cx="302.1" cy="148.53" r="31.3"/>
            <path class="cls-1" d="m280.53,145.21c-.26,7.15,4.46,14.22,11.17,16.71,6.71,2.49,14.9.23,19.37-5.36,4.47-5.59,4.89-14.07.99-20.07-8.89-13.68-30.93-7.57-31.53,8.72Z"/>
          </g>
          <path class="cls-7" d="m302.1,182.07c-18.5,0-33.54-15.05-33.54-33.54s15.05-33.54,33.54-33.54,33.54,15.05,33.54,33.54-15.05,33.54-33.54,33.54Zm0-62.61c-16.03,0-29.07,13.04-29.07,29.07s13.04,29.07,29.07,29.07,29.07-13.04,29.07-29.07-13.04-29.07-29.07-29.07Z"/>
        </g>
        <g>
          <g>
            <circle class="cls-12" cx="446.5" cy="132.69" r="27.45"/>
            <path class="cls-1" d="m428.59,133.35c1.78,6.44,9.13,10.77,15.63,9.2,6.5-1.57,11.06-8.78,9.7-15.32-3.57-17.16-30.01-10.86-25.33,6.12Z"/>
          </g>
          <path class="cls-7" d="m446.5,162.38c-16.37,0-29.68-13.32-29.68-29.69s13.32-29.68,29.68-29.68,29.68,13.32,29.68,29.68-13.32,29.69-29.68,29.69Zm0-54.9c-13.9,0-25.21,11.31-25.21,25.21s11.31,25.21,25.21,25.21,25.21-11.31,25.21-25.21-11.31-25.21-25.21-25.21Z"/>
        </g>
        <g>
          <g>
            <circle class="cls-11" cx="376.27" cy="74.58" r="21.59"/>
            <path class="cls-1" d="m369.32,82.41c4.25,1.74,9.56.57,12.61-2.86,13.04-14.65-20.01-28.54-19.79-7.75.05,4.51,3.01,8.9,7.18,10.61Z"/>
          </g>
          <path class="cls-7" d="m376.27,98.41c-13.14,0-23.83-10.69-23.83-23.83s10.69-23.83,23.83-23.83,23.83,10.69,23.83,23.83-10.69,23.83-23.83,23.83Zm0-43.18c-10.67,0-19.35,8.68-19.35,19.35s8.68,19.35,19.35,19.35,19.35-8.68,19.35-19.35-8.68-19.35-19.35-19.35Z"/>
        </g>
        <g>
          <g>
            <circle class="cls-4" cx="382.25" cy="242.34" r="38.67"/>
            <path class="cls-1" d="m355.13,232.16c-2.28,4.84-2.56,10.72-.19,15.52,3.16,6.4,10.5,9.95,17.63,10.22,9.16.36,18.56-4.42,22.91-12.49,4.35-8.07,2.88-19.1-4-25.15-11.42-10.05-30.68-.15-36.34,11.89Z"/>
          </g>
          <path class="cls-7" d="m382.25,283.25c-22.56,0-40.91-18.35-40.91-40.91s18.35-40.91,40.91-40.91,40.91,18.35,40.91,40.91-18.35,40.91-40.91,40.91Zm0-77.34c-20.09,0-36.43,16.34-36.43,36.43s16.34,36.43,36.43,36.43,36.43-16.34,36.43-36.43-16.34-36.43-36.43-36.43Z"/>
        </g>
      </g>
    </g>
  </g>
</svg>