<?xml version="1.0" encoding="UTF-8"?>
<svg id="_02" data-name="02" xmlns="http://www.w3.org/2000/svg" xmlns:xlink="http://www.w3.org/1999/xlink" viewBox="0 0 512 512">
  <defs>
    <style>
      .cls-1 {
        opacity: .4;
      }

      .cls-1, .cls-2, .cls-3, .cls-4, .cls-5, .cls-6, .cls-7, .cls-8, .cls-9, .cls-10, .cls-11, .cls-12, .cls-13 {
        stroke-width: 0px;
      }

      .cls-1, .cls-10 {
        fill: #fff;
      }

      .cls-2, .cls-8 {
        fill: #e38372;
      }

      .cls-3 {
        fill: #edbf71;
      }

      .cls-4 {
        fill: url(#Unnamed_Pattern_3);
      }

      .cls-6 {
        fill: #e3e3e3;
      }

      .cls-7, .cls-12 {
        fill: #e88572;
      }

      .cls-8, .cls-12 {
        opacity: .3;
      }

      .cls-9 {
        fill: none;
      }

      .cls-11 {
        fill: #eaa471;
      }

      .cls-13 {
        fill: #91bfe2;
      }
    </style>
    <pattern id="Unnamed_Pattern_3" data-name="Unnamed Pattern 3" x="0" y="0" width="35.02" height="35.02" patternTransform="translate(-1275.71 180.74) rotate(1.58)" patternUnits="userSpaceOnUse" viewBox="0 0 35.02 35.02">
      <g>
        <rect class="cls-9" width="35.02" height="35.02"/>
        <rect class="cls-5" width="35.02" height="35.02"/>
      </g>
    </pattern>
  </defs>
  <path class="cls-10" d="m349.77,399.72c.11-1.25.12-2.37.18-3.75,47.16-16.33,62.83-62.03,65.14-76.48,60.13-22.79,73.54-104.71,24.17-145.86,36.19-41.41-7.92-112.49-40.08-147.2-34.96-36.74-91.62-38.07-109.45,16.8-23.97-7.2-48.03-7.5-71.97-.62-6.6-22.44-31.65-47.55-58.83-41.75C93.27,10.49,39.95,112.94,54.05,184.59c-24.42,15.38-5.87,49.9,18.08,48.49l25.62,46.17c-13.83,18.97-12.13,43.95-.7,63.19-16.22,19.04-11.28,42.91,2.88,63.22-9.76,21.05-8.47,47.37-7.86,59.99-.9,12.36,10.25,31.83,29.62,30.59,14.85-.77,28.06-4.85,41.88-8.45,12.33,37.1,69.72,27.9,69.29-11.75,0-5.5-1.41-19.96,19.49-19.96s19.49,14.46,19.49,19.96c9.88,72.22,118.21,26.36,48.64-55.74,15.37,2,28.12-6.95,29.27-20.6Z"/>
  <g>
    <g>
      <path class="cls-3" d="m436.09,195.18c-20.97-26.17-68.99-38.89-96.9-19.25-27.11,19.09-37.35,63.17-22.7,93.8,17.88,37.4,66.53,49.78,101.25,29.12,37.58-22.35,46.28-68.83,18.35-103.66Zm-35.36-17.58c5.23.72,4.05,6.41,2.52,9.84-.81,1.8-1.61,3.6-2.41,5.4-.96,2.15-2.27,4.57-4.6,4.91-2.24.34-4.3-1.63-4.84-3.83-.54-2.19.07-4.5.81-6.62,1.26-3.62,3.54-10.4,8.52-9.7Zm-64.73,47.47c-2.19.54-4.5-.07-6.62-.81-3.63-1.25-10.4-3.53-9.72-8.51.74-5.24,6.43-4.06,9.86-2.53,1.8.81,3.6,1.61,5.39,2.42,2.14.94,4.57,2.27,4.92,4.59.34,2.24-1.64,4.32-3.83,4.84Zm27.67,60.65c-.81,1.8-1.61,3.6-2.41,5.4-.96,2.13-2.27,4.57-4.6,4.91-2.24.33-4.3-1.63-4.84-3.83-.54-2.19.07-4.5.82-6.64,1.26-3.62,3.54-10.4,8.52-9.7,5.23.73,4.05,6.42,2.52,9.85Zm41.19-32.92c-2.19.54-19.41-5.96-21.51-6.8-9.19-3.7-10.83-4.36-10.56-7.64.19-2.25,5.92-17.25,6.66-19.38,1.26-3.62,3.54-10.4,8.52-9.7,5.23.72,4.05,6.41,2.52,9.84-.61,1.36-4.46,10.78-6.63,16.01,3.01,1.3,18.19,7.47,19.9,8.25,2.14.94,4.57,2.27,4.92,4.59.34,2.24-1.64,4.32-3.83,4.84Zm32.28,13c-2.21.54-4.5-.07-6.64-.82-3.63-1.25-10.4-3.53-9.71-8.5.74-5.24,6.43-4.06,9.86-2.53,1.8.81,3.6,1.61,5.38,2.42,2.15.95,4.59,2.28,4.93,4.59.33,2.24-1.64,4.32-3.83,4.84Z"/>
      <path class="cls-11" d="m159.52,391.18c.78-7.21-.08-17.35-3.09-24.11-2.73-6.13-6.29-12.01-11.34-16.42-5.05-4.41-11.74-7.23-18.42-6.62-11.16,1.02-22.5,13.75-22.47,24.65.03,9.14,3.94,17.99,8.96,25.63,2.31,3.51,5.28,6.6,8.69,9.07-14.16,15.78-13.22,45.59-12.45,61.45.21,4.25,1.02,8.9,4.28,11.64,3.65,3.07,9,2.66,13.7,1.91,14.88-2.39,29.4-6.6,43.88-10.81,8.18-2.38,16.44-4.79,23.89-8.93,2.9-1.61,5.75-3.57,7.43-6.43,2.8-4.77,1.71-10.89-.49-15.97-2.71-6.24-21.46-39.4-42.57-45.05Z"/>
      <path class="cls-13" d="m117.31,166.73l3.66-2.04c5.31-2.93,11.99-1.03,14.94,4.28,2.93,5.31,1.03,11.99-4.28,14.94l-3.66,2.02,18.77,33.84,34.24,61.73c8.07,14.51-5.94,28.29-1.41,36.44,1.69,3.03,1.79,5.58,1.27,7.6-1.15,4.31-5.68,6.81-9.94,5.49-1.96-.61-4.09-2.04-5.76-5.08-4.51-8.15-23.62-3.57-31.67-18.07l-53.03-95.57-3.68,2.04c-5.31,2.95-11.99,1.03-14.92-4.28-2.95-5.31-1.03-11.97,4.28-14.92l3.66-2.04c-7.29-13.13-2.56-29.66,10.57-36.95,13.11-7.27,29.66-2.54,36.95,10.57Z"/>
    </g>
    <g>
      <g>
        <g>
          <g>
            <path class="cls-10" d="m209.13,272.31c-30.35-18.36-77.25-8.85-96.4,20-16.83,25.35,9.47,74.89,62,62.62,0,0,3.24-31.32,12.95-50.17,9.7-18.85,21.45-32.45,21.45-32.45Z"/>
            <path class="cls-5" d="m208.38,269.5c-24.19-13.52-55.56-11.03-78.82,3.42-11.66,7.54-23.4,19.27-24.18,34.05-1.77,30.57,26.33,54.05,55.88,51.98,4.02-.17,7.99-.77,11.9-1.58,1.12-.23,1.82-1.35,1.56-2.47v-.05c-.26-1.07-1.31-1.73-2.39-1.52-8.03,1.55-16.32,1.86-24.34.23-8.59-1.69-16.66-5.7-23.09-11.57-.81-.73-1.6-1.49-2.36-2.29.7-15.36,5.59-27.47,14.21-35.05,7.69-6.76,18.38-9.91,30.18-8.91,6.12,5.23,12.99,12.96,18.71,24.17.12.23.28.43.46.6.62.55,1.53.7,2.31.3,1.01-.52,1.41-1.76.9-2.77-8.27-16.2-18.71-25.5-26.42-30.59l5.09-8.56c.58-.98.26-2.25-.72-2.82-.98-.58-2.24-.26-2.82.72l-5.06,8.52c-4.12-2.33-6.91-3.24-7.22-3.33-1.08-.34-2.23.27-2.57,1.35-.34,1.08.26,2.23,1.35,2.58.09.03,4.18,1.37,9.91,5.21-10.46.37-19.88,3.88-27.04,10.18-8.62,7.58-13.87,19.06-15.37,33.43-8.15-11.41-11.48-26.97-4.62-39.36,1.22-2.24,3.15-4.42,4.68-6.58.72-.76,2.64-2.79,3.38-3.57,21.66-20.97,57.82-26.25,84.49-12.06.97.51,2.16.21,2.73-.74l.03-.04c.6-.98.27-2.29-.73-2.85Z"/>
          </g>
          <g>
            <path class="cls-10" d="m294.65,272.31c30.35-18.36,77.25-8.85,96.4,20,16.83,25.35-9.47,74.89-62,62.62,0,0-3.24-31.32-12.95-50.17-9.7-18.85-21.45-32.45-21.45-32.45Z"/>
            <path class="cls-5" d="m398.4,306.97c-.77-14.78-12.52-26.51-24.18-34.05-23.84-14.81-56.22-17.05-80.64-2.36,0,0,2.13,3.52,2.13,3.52,26.82-15.36,64.07-10.31,86.2,11.11.74.78,2.68,2.82,3.38,3.57,1.53,2.16,3.46,4.34,4.68,6.58,6.92,12.51,3.46,28.24-4.85,39.68-1.12-15.03-5.99-26.88-14.27-34.5-5.96-5.49-13.69-8.63-22.18-9.2,2.59-1.88,4.28-2.72,4.36-2.76,1.02-.49,1.45-1.72.97-2.74-.49-1.03-1.72-1.46-2.74-.97-.3.14-2.93,1.44-6.67,4.33l-6.23-7.7c-.71-.88-2.01-1.02-2.89-.31-.89.7-1.02,2.01-.31,2.89l6.26,7.74c-6.9,6.14-15.9,16.84-21.76,34.06-.37,1.08.21,2.25,1.29,2.61.83.28,1.71,0,2.24-.63.16-.19.28-.41.37-.66,5.29-15.55,13.37-25.52,19.74-31.44,9.6-.66,18.08,2.1,24.53,8.05,8.24,7.6,12.73,20.11,13.05,36.24-.65.67-1.31,1.32-2,1.93-6.42,5.87-14.5,9.87-23.09,11.57-8.66,1.77-17.64,1.26-26.27-.63,0,0-.94,4.01-.94,4.01,18.32,4.63,39.2,1.7,53.43-11.5,10.63-9.59,17.48-23.95,16.39-38.47Z"/>
          </g>
        </g>
        <g>
          <path class="cls-10" d="m329.79,400.31h-155.69c-.91-20.65-3.01-143.54,77.85-143.54s78.75,122.89,77.83,143.54Z"/>
          <path class="cls-5" d="m300.61,274.79c-12.78-13.74-29.15-20.7-48.65-20.7s-35.89,6.96-48.67,20.7c-34.01,36.56-32.73,107.1-31.98,123.29,0,0,.31,4.89,5.26,4.89h150.67c4.78,0,5.25-4.91,5.25-4.91.75-16.19,2.13-86.71-31.88-123.26Zm-3.92,3.65c2.03,2.18,3.92,4.53,5.69,6.98l-9.78,23.22-18.06-5.43c-.85-.25-1.76-.03-2.39.59-.63.62-.87,1.54-.62,2.39l5.8,20.19-22.76,20.43v-87.31c16.8.59,30.96,6.95,42.13,18.93Zm-89.48,0c11.12-11.96,25.27-18.31,42.04-18.92v87.22l-22.66-20.34,5.8-20.19c.24-.85,0-1.76-.62-2.39-.63-.62-1.55-.85-2.39-.59l-18.06,5.43-9.79-23.24c1.77-2.45,3.65-4.79,5.68-6.97Zm-30.6,115.57c-.33-20.38,1.16-70.83,21.7-103.79l9.39,22.31c.48,1.14,1.74,1.73,2.92,1.38l15.9-4.78-4.99,17.39c-.26.89.02,1.85.71,2.46l27.01,24.25v44.42h-68.92c-2.03,0-3.69-1.61-3.72-3.64Zm150.68-.28c-.03,2.18-1.82,3.92-4,3.92h-68.73v-44.33l27.12-24.34c.69-.62.96-1.57.71-2.46l-4.99-17.39,15.9,4.78c1.18.35,2.44-.24,2.92-1.38l9.39-22.3c20.43,32.81,21.99,82.94,21.69,103.5Z"/>
        </g>
        <g>
          <g>
            <g>
              <path class="cls-10" d="m431.92,121.61c-4.33-19.82-21.45-59.37-46.73-81.82-25.28-22.45-44.24-23.99-57.21-17.9-12.28,5.77-21.42,27.08-25.05,47.68-15.13-7.88-32.3-12.36-50.54-12.36-17.18,0-33.42,3.96-47.89,11-.66-3.89-2.47-32.35-26.27-46.19-4.32-2.51-9.57-3.02-14.55-2.66-4.98.36-10.33,1.42-14.85,3.54-15.18,7.11-30.11,19.53-40.4,32.76-9.51,12.23-15.01,25.58-21.53,39.64-6.52,14.06-10.79,29.31-11.07,44.81-.15,8.11,1.36,17.28,8.01,21.94,5.18,3.64,12.34,3.45,18.15.93,5.81-2.52,10.5-7.04,14.74-11.74,19.12-21.19,30.9-47.84,42.63-73.86,3.19,5.76,6.79,10.89,10.58,16.64-17.9,19.51-27.13,44.22-27.13,72.78,0,60.52,49.07,109.59,109.59,109.59s109.59-49.07,109.59-109.59c0-27.85-10.41-53.26-27.52-72.59,4.34-3.94,10.29-10.15,13.8-17.17,0,0,7.98,21.73,20.62,41.47,12.64,19.73,22.95,43.18,44.07,45.01,21.12,1.83,23.29-22.09,18.96-41.91Z"/>
              <path class="cls-6" d="m298.79,89.46c.69,5.72-1.43,11.72-5.57,15.73-4.13,4.02-10.19,5.96-15.89,5.11-1.04-.16-2.13-.39-3.1-.01-1.01.39-1.67,1.35-2.33,2.21-3.13,4.07-7.68,6.93-12.58,8.47-4.9,1.54-10.14,1.82-15.25,1.33-6.16-.59-12.66-2.57-16.4-7.5-.56-.74-1.07-1.56-1.84-2.08-1.54-1.04-3.59-.6-5.45-.48-5.6.37-11.14-2.7-14.36-7.3-3.22-4.6-4.25-10.52-3.45-16.07-1.16,6.69-1.85,13.91,1.06,20.06,2.9,6.14,9.31,10.97,16.08,10.41,1.04-.09,2.1-.29,3.11-.06,1.68.39,2.84,1.86,3.97,3.16,5.31,6.1,12.92,10.25,20.98,10.97,8.05.72,16.45-2.12,22.11-7.89,2.03-2.07,3.74-4.51,6.14-6.15,3.25-2.21,7.34-2.68,11-4.11,9.04-3.53,15.02-13.63,13.76-23.25-.2-1.57-.43-2.8-1.99-2.55Z"/>
              <path class="cls-8" d="m159.35,77.38s13.63,29.24,28,19.7c14.37-9.53-13.59-36.09-19.84-39.69l-8.16,19.98Z"/>
              <path class="cls-8" d="m348.27,77.04l-7.21-20.41s-16.99,12.08-22.61,25.96c-5.62,13.88,3.11,15.91,8.5,15.43,5.38-.48,17.76-12.31,21.32-20.99Z"/>
              <path class="cls-6" d="m361.62,157.85c.25,2.95.38,5.94.38,8.95,0,60.53-49.08,109.59-109.59,109.59s-109.59-49.06-109.59-109.59c0-3.02.13-6.01.38-8.96,4.53,56.36,51.69,100.66,109.22,100.66s104.69-44.3,109.22-100.65Z"/>
            </g>
            <g>
              <path class="cls-5" d="m348.09,80.77c-2.53,4.4-4.92,8.33-8.01,11.83-1.65,1.87-.84,3.57.61,5.46,19.7,25.6,27.4,54.53,22.5,86.43-4.72,30.79-19.92,55.6-45.16,73.88-37.39,27.08-86.31,28.69-125.25,4.23-18.37-11.54-32.56-27.07-41.52-46.9-17.62-39.02-14.51-76.52,9.27-112.17,2.03-3.04,4.54-5.75,6.86-8.59.58-.71,1.24-1.26.27-2.23-1.63-1.61-2.92-3.5-4.14-5.43-1.16-1.85-2.28-3.72-3.42-5.59-.76.14-.74.84-.94,1.31-7.45,17.79-16.9,34.52-26.85,50.97-5.81,9.61-13.47,17.77-22.13,24.94-4.07,3.37-8.52,5.94-13.89,6.67-10.96,1.49-18.93-3.71-21.85-14.45-2.14-7.85-1.87-15.82-.79-23.78,2.82-20.73,11.72-38.98,22.98-56.26,8.1-12.44,16.38-24.71,27.39-34.88,10.67-9.85,23.03-16.12,37.38-18.18,9.39-1.35,17.89.91,25.15,7.31,7.57,6.68,11.98,15.31,15.41,24.58,1.62,4.36,2.86,8.83,3.64,13.42.25,1.48.72,1.88,2.23,1.23,29.77-12.83,59.59-12.64,89.43-.22,4.45,1.85,4.31,1.86,5.34-2.87,2.4-11,6.11-21.51,13.12-30.49,9.28-11.89,21.28-16.13,36.1-12.53,13.52,3.28,25.23,9.74,34.69,19.84,19.01,20.3,34.02,43.23,43.35,69.58,3.79,10.72,5.69,21.88,5.14,33.34-.16,3.27-.62,6.49-1.51,9.64-3.14,11.16-12.38,16.55-23.69,13.93-4.65-1.08-8.56-3.48-12.16-6.48-10.87-9.09-19.72-19.85-26.53-32.28-8.06-14.71-16.59-29.17-23.03-45.23Zm-8.24-21.28c-.45.36-.67.48-.83.66-7.56,8.02-14.52,16.51-20.02,26.11-.32.56-.64,1.17-1.1,1.59-.62.57-1.45.85-2.23.33-.66-.43-.93-1.18-.75-1.93.16-.7.5-1.37.81-2.03,2.72-5.78,6.31-11.03,10.34-15.95,2.99-3.65,6.12-7.25,9.89-10.11,1.9-1.44,3.21-2.51,2.13-5.18-.48-1.2-.41-3.32,1.25-3.73,1.61-.4,1.85,1.55,2.24,2.69,8.67,25.29,20.44,49.12,33.77,72.24,5.75,9.97,12.73,18.9,21.05,26.81,2.95,2.81,6.01,5.55,9.67,7.4,8.1,4.09,19.15,3.82,22.83-8.35,1.04-3.45,1.51-7.01,1.59-10.6.25-11.64-2.13-22.83-6.18-33.66-7.84-20.93-20.14-39.24-33.99-56.51-9.59-11.96-21.25-21.3-36.46-25.4-6.53-1.76-13.05-2.93-19.7-.88-8.47,2.61-13.93,8.79-18.19,16.14-4.87,8.4-7.65,17.57-9.51,27.07-.69,3.54-.26,7.14-.96,10.67-.25,1.26-.76,2.28-2.04,2.39-1.43.12-1.88-1-2.01-2.24-.1-.97-.36-1.96-.26-2.91.18-1.66-.54-2.48-1.98-3.17-5.81-2.8-11.76-5.21-17.97-6.95-24.76-6.95-48.95-5.22-72.58,4.86-1.52.65-2.12,1.42-1.91,3.11.22,1.77.21,3.57-.14,5.36-.23,1.19-.48,2.45-1.87,2.45-1.53,0-2.3-1.24-2.31-2.66-.03-3.03-.54-6-.93-8.98-1.52-11.83-5.31-22.86-12.16-32.63-7.24-10.34-17.03-14.96-29.8-12.41-13.61,2.72-25.17,9.1-34.8,19.01-15.31,15.76-26.91,34.12-36.6,53.69-6.87,13.87-10.9,28.59-10.6,44.23.1,5.07.75,10.09,3.35,14.62,2.33,4.05,5.84,6.2,10.51,6.53,6.36.44,11.54-2.19,16.22-6.15,8.45-7.16,15.88-15.26,21.62-24.74,14.71-24.3,27.43-49.57,36.7-76.5.4-1.15.78-2.34,1.44-3.35.81-1.24,1.78-1.07,2.3.32.56,1.49.53,3.06-.08,4.53-.43,1.03-.25,1.6.74,2.16,2.15,1.21,3.84,3,5.55,4.74,3.83,3.9,7.12,8.24,10.57,12.47,2.74,3.36,4.57,7.05,6.32,10.87.54,1.18.73,2.57-.61,3.23-1.32.66-2.24-.29-2.91-1.46-2.96-5.16-6.34-10.05-9.96-14.76-3.36-4.37-7.06-8.46-11.09-12.67-2.4,5.52-3.64,11.1-6.18,16.17-.32.64-.05,1.26.32,1.84,4.12,6.42,7.77,13.24,14.69,17.27.98.57,1.91,1.25,2.87,1.85,1.01.63,2.08,1.39,1.44,2.69-.63,1.27-1.95.99-3.04.6-2.01-.72-3.75-1.97-5.43-3.25-1.17-.89-1.88-.78-2.78.4-2.52,3.31-4.95,6.67-7.21,10.16-30.37,46.71-20.18,108.66,23.53,143.03,55.36,43.54,137.94,21.85,164-43.63,15.15-38.04,9.46-73.84-14.97-106.67-1.35-1.82-2.59-2.83-4.64-1.02-.35.31-.87.47-1.34.56-1.11.23-2.41.58-2.9-.88-.41-1.24.49-1.93,1.54-2.4,3.7-1.67,6.77-4.42,9.34-7.3,3.14-3.54,5.84-7.6,8.17-11.82.37-.67.68-1.33.3-2.07-2.53-5-3.73-10.53-6.08-15.85Z"/>
              <path class="cls-5" d="m296.41,90.93c.02-.79.01-1.85.07-2.9.04-.73.14-1.53,1.03-1.73.86-.2,1.41.43,1.75,1.06,1.46,2.66,1.99,5.48,1.3,8.48-2.26,9.84-11.84,17.03-22.15,16.45-1.71-.09-2.72.43-3.96,1.58-13.92,12.81-27.77,14.68-44.18,5.87-2.09-1.12-3.84-2.77-5.31-4.63-.8-1-1.62-1.34-2.91-1.19-2.67.31-5.38.27-8.02-.31-7.1-1.57-11.03-6.16-12.26-13.21-.61-3.46-.95-6.94-.55-10.45.1-.88.2-1.95,1.38-1.96,1.08,0,1.1,1.04,1.24,1.82.52,3.05.9,6.12,1.54,9.14,1.61,7.66,6.26,11.23,14.05,11.06,1.54-.03,2.01-.32,1.37-1.93-1.37-3.48-1.82-7.06-.82-10.77,1.43-5.29,6.09-8.35,10.79-7.01,4.79,1.37,7.56,6.6,6.14,11.68-1.08,3.85-3.31,6.97-6.73,8.96-2.1,1.22-1.46,1.9-.14,3.06,4.42,3.87,9.84,5.17,15.39,6.25,9.76,1.91,17.26-2.92,24.63-8.18,1.2-.85,1-1.4-.16-2.29-4.06-3.08-6.99-6.84-6.4-12.38.32-3.02,1.51-5.53,4.36-6.87,2.76-1.3,5.26-.29,7.53,1.34,4.37,3.13,5.97,8.19,4.1,13.69-.68,2-.18,2.21,1.68,2.31,6.37.34,16.64-8.72,15.25-16.93Zm-72.79,9.77c.14,2.43.63,4.63,1.57,6.74.43.96.89,1.21,1.84.7,3.17-1.72,5.35-4.25,6.05-7.82.53-2.72-1.19-5.39-3.53-5.88-2.5-.52-4.71,1.08-5.48,4-.21.78-.32,1.59-.45,2.26Zm52.2.99c0-3.07-1.44-5.25-4.02-6.73-1.63-.94-2.77-.39-3.52,1.22-1.4,2.98-.04,5.35,1.78,7.53,1.06,1.27,2.37,3.3,3.91,2.7,1.54-.59,1.63-2.96,1.86-4.72Z"/>
              <path class="cls-5" d="m394.31,110.76c.93-3.21,2.69-6.44,5.07-9.34.43-.52,1.14-.58,1.79-.2.64.38.94,1.04.78,1.66-.94,3.64-2.66,6.91-5.13,9.75-.43.49-1.12.65-1.78.28-.67-.37-.69-1.04-.73-2.15Z"/>
              <path class="cls-5" d="m113.67,111.18c0,1.1.01,1.88-.78,2.26-.77.37-1.53.06-1.97-.51-2.2-2.83-3.93-5.92-4.87-9.4-.19-.7.09-1.45.84-1.86.67-.36,1.37-.24,1.78.28,2.27,2.87,4.06,6.01,4.99,9.23Z"/>
              <path class="cls-5" d="m409.06,109.18c-.97,2.93-2.71,6.01-5.08,8.73-.48.56-1.26.84-1.99.34-.85-.58-.66-1.36-.33-2.17,1.28-3.11,3.31-5.77,5.13-8.56.35-.54.93-.98,1.66-.59.68.36.71,1.03.61,2.25Z"/>
              <path class="cls-5" d="m358.7,56.93c-1.19-3.12-1.72-6.77-1.56-10.52.03-.67.56-1.15,1.31-1.24.73-.08,1.37.26,1.62.86,1.44,3.48,2.03,7.12,1.76,10.88-.05.65-.5,1.19-1.25,1.3-.76.11-1.18-.41-1.88-1.28Z"/>
              <path class="cls-5" d="m369.55,46.8c.98,2.92,1.45,6.44,1.19,10.03-.05.73-.5,1.43-1.39,1.47-1.02.05-1.34-.69-1.57-1.54-.85-3.26-.83-6.6-1.05-9.92-.04-.65.16-1.34.97-1.47.76-.12,1.19.39,1.84,1.44Z"/>
              <path class="cls-5" d="m263.33,82.93c-3.31-.47-6.76-1.77-9.96-3.72-.57-.35-.74-1.05-.45-1.74.28-.68.9-1.08,1.53-1,3.74.43,7.21,1.67,10.37,3.71.55.35.8,1.02.53,1.72-.27.72-.93.83-2.03,1.02Z"/>
              <path class="cls-5" d="m259.7,68.53c3.03.56,6.33,1.84,9.36,3.81.62.4,1.01,1.13.61,1.92-.46.92-1.25.84-2.1.63-3.26-.83-6.18-2.47-9.19-3.88-.59-.28-1.1-.79-.82-1.56.26-.72.92-.85,2.14-.91Z"/>
              <path class="cls-5" d="m99.83,107.29c.75-.01,1.17.38,1.48.86,1.72,2.66,3.63,5.21,4.9,8.13.36.82.81,1.76-.18,2.41-1.05.7-1.94.03-2.52-.76-1.84-2.48-3.51-5.1-4.5-8.05-.32-.96-.52-2.13.81-2.59Z"/>
            </g>
          </g>
          <g>
            <g>
              <g>
                <path class="cls-2" d="m317.2,179.91c-2.59,1.28-5.51,3.78-6.43,7.12-.9,3.26.52,5.78,2.17,7.36,3.71,3.58,8.87,4.97,14.46,3.9,2.91-.56,6.38-2.2,8.29-5.8,3.96-7.49-1.78-11.02-5.11-12.88-3.67-2.05-8.56-2.08-13.37.3Z"/>
                <path class="cls-5" d="m325.67,193.17c-.13,1.21-1.06,1.97-2.19,1.78-1.22-.2-2-1.24-1.84-2.45.14-1.06.98-1.72,2.1-1.64,1.25.09,2.06,1.06,1.92,2.31Z"/>
                <path class="cls-5" d="m330.09,185.89c-.05,1.18-.88,2.05-2,2.06-1.18.01-2.01-.94-1.98-2.27.03-1.29.75-2.04,1.94-2.01,1.24.03,2.09.95,2.04,2.22Z"/>
                <path class="cls-5" d="m317.24,185.18c.07-1.24.9-2.11,1.98-2.06,1.05.05,1.9,1.07,1.84,2.23-.06,1.17-.98,2.1-2.03,2.05-1.12-.05-1.85-.96-1.79-2.21Z"/>
              </g>
              <g>
                <path class="cls-2" d="m176.57,186.22c-2.2,1.68-4.37,4.57-4.3,7.88.07,3.24,2.22,5.34,4.33,6.53,4.74,2.68,10.29,3.04,15.53,1,2.73-1.06,5.7-3.25,6.53-6.99,1.73-7.78-5.02-10.04-8.89-11.18-4.25-1.26-9.13-.38-13.21,2.75Z"/>
                <path class="cls-5" d="m183.56,196.29c.11-1.24.93-1.99,2.07-1.92,1.29.08,2.12,1.14,1.98,2.51-.12,1.13-1.09,1.93-2.19,1.81-1.19-.12-1.97-1.13-1.86-2.4Z"/>
                <path class="cls-5" d="m179.52,189.87c.1-1.12.95-1.86,1.98-1.73,1.04.13,1.98,1.35,1.88,2.47-.09,1.01-1.25,2-2.2,1.88-.99-.13-1.77-1.36-1.66-2.61Z"/>
                <path class="cls-5" d="m191.08,188.39c1.04.13,1.71,1.02,1.62,2.15-.08,1.01-.9,1.77-1.84,1.71-1.09-.08-1.84-1.11-1.69-2.31.14-1.12.82-1.68,1.9-1.54Z"/>
              </g>
            </g>
            <g>
              <g>
                <path class="cls-10" d="m179.09,120.8c1.85,8.09,27.35,7.46,26.49-5.05-.85-12.5-28.54-3.88-26.49,5.05Z"/>
                <path class="cls-5" d="m188.32,109.33c12.2-3.62,16.89.66,18.28,2.05,1.95,1.95,1.98,4.99,1.01,7.15-.68,1.52-1.71,2.8-2.9,3.97-1.99,1.95-4.45,3.03-7.05,3.79-4.52,1.32-9.12,1.95-13.8,1.1-3.17-.57-6.3-2.71-6.69-6.49-.68-6.5,8.08-10.45,11.14-11.57Zm15.55,4.92c-1.87-2.28-4.47-3.05-7.22-2.9-2.85.15-5.62,1-8.34,1.91-1.45.49-7.97,2.99-7.37,7.17.26,1.8,1.86,2.68,3.58,2.92,4.12.58,8.23.37,12.16-1.05,8.92-3.21,7.8-7.31,7.19-8.06Z"/>
              </g>
              <g>
                <path class="cls-10" d="m294.9,108.46c-2.28,7.98,20.36,19.72,25.64,8.35,5.28-11.37-23.13-17.16-25.64-8.35Z"/>
                <path class="cls-5" d="m308.52,102.86c2.37.36,11.96,1.59,15.02,10.61.77,2.65-.67,5.33-2.56,6.76-1.33,1-2.84,1.63-4.45,2.08-2.69.75-5.36.51-8-.08-4.59-1.03-8.93-2.69-12.62-5.69-2.5-2.03-4.21-5.41-2.73-8.91,2.54-6.02,12.12-5.26,15.34-4.76Zm11.25,11.81c0-2.98-2.45-4.82-4.93-6.02-2.57-1.24-5.4-1.83-8.23-2.34-1.5-.27-8.42-1.22-9.91,2.72-.64,1.7.34,3.24,1.73,4.29,3.33,2.5,7.07,4.12,11.15,4.95,2.2.44,9.4,1.87,10.18-3.59Z"/>
              </g>
            </g>
            <g>
              <g>
                <path class="cls-10" d="m199.41,125.73c-14.96-1.48-27.78,12.89-27.26,27.8.51,14.91,13.08,26.67,28.26,25.82,15.18-.85,25.53-15.42,24.79-27.17-.74-11.75-6.18-24.5-25.79-26.45Z"/>
                <path class="cls-5" d="m190.46,180.14c-11.86-3.72-20.18-14.95-19.86-27.43.33-13.11,8.87-24.64,21.87-27.66,11.99-2.79,24.83,2.7,31,13.35,4.58,7.9,4.8,18.39,1.21,26.77-5.52,12.85-21.25,19.04-34.21,14.97Zm-3.96-48.06c-4.81,2.81-8.26,7.07-10.42,12.17-1.06,2.51-1.61,5-1.49,7.73.06,1.31-.1,2.65,1.34,2.04,1.87-.79,3.59-2.99,5.37-4.07,3.33-2.03,7.07-3.29,10.91-3.9,8.93-1.43,18.42.2,25.71,5.75.73.56,2.84,3.24,3.71,3.35,1.49.19,1.02-4.14.93-5.03-.32-3.13-1.37-6.25-2.87-9-6.38-11.68-21.77-15.7-33.19-9.04Zm-.96,32.38c7.25.67,6.91-11.29-.21-10.05-5.11.89-5.23,9.55.21,10.05Z"/>
              </g>
              <g>
                <path class="cls-10" d="m304.18,125.73c-14.96-1.48-27.78,12.89-27.26,27.8.51,14.91,13.08,26.67,28.26,25.82,15.18-.85,25.53-15.42,24.79-27.17-.74-11.75-6.18-24.5-25.79-26.45Z"/>
                <path class="cls-5" d="m295.23,180.14c-11.86-3.72-20.18-14.95-19.86-27.43.33-13.11,8.87-24.64,21.87-27.66,11.99-2.79,24.83,2.7,31,13.35,4.58,7.9,4.8,18.39,1.21,26.77-5.52,12.85-21.25,19.04-34.21,14.97Zm-3.96-48.06c-4.81,2.81-8.26,7.07-10.42,12.17-1.06,2.51-1.61,5-1.49,7.73.06,1.31-.1,2.65,1.34,2.04,1.87-.79,3.59-2.99,5.37-4.07,3.33-2.03,7.07-3.29,10.91-3.9,8.93-1.43,18.42.2,25.71,5.75.73.56,2.84,3.24,3.71,3.35,1.49.19,1.02-4.14.93-5.03-.32-3.13-1.37-6.25-2.87-9-6.38-11.68-21.77-15.7-33.19-9.04Zm-.96,32.38c7.25.67,6.91-11.29-.21-10.05-5.11.89-5.23,9.55.21,10.05Z"/>
              </g>
            </g>
            <g>
              <g>
                <g>
                  <path class="cls-7" d="m238.75,177.01c2.7,2.14,5.48,4.25,8.64,5.62,3.16,1.37,6.78,1.95,10.08.96,4.26-1.28,7.35-4.94,9.74-8.69.84-1.32,1.64-2.71,1.96-4.24.32-1.53.1-3.25-.91-4.44-.78-.92-1.93-1.43-3.08-1.8-6.01-1.94-13.24-1.65-19.42-.37-3.5.73-6.35,2.59-9.11,5-3.05,2.67-.35,6.03,2.1,7.97Z"/>
                  <path class="cls-12" d="m240.88,149.38c4.55-5.19,12.66-7.32,18.77-4.09,3.51,1.86,6.08,5.22,7.54,8.91,1.46,3.69,1.91,7.72,1.94,11.69-.01-1.28-12.57-1.29-13.84-1.21-4.95.31-9.3,2.4-14.06,3.08-9.66,1.38-3.46-14.84-.35-18.38Z"/>
                  <path class="cls-1" d="m246.24,168.48c-1.39.48-2.84,1.05-3.75,2.2-.92,1.15-1.03,3.06.13,3.96.54.41,1.25.54,1.93.62,2.06.24,4.16.17,6.21-.21,1.42-.26,2.88-.71,3.9-1.72,1.03-1.01,1.48-2.73.69-3.94-.63-.97-1.85-1.37-3-1.55-1.84-.29-4.35.03-6.11.64Z"/>
                </g>
                <g>
                  <path class="cls-4" d="m293.34,194.73c-1.7,4.46-5.62,14.79-8.33,21.68-1.31,3.31-2.33,5.82-2.69,6.49-8.33,15.77-19.78,18.05-35.79,16.41-9.55-.98-19.14-11.32-26.01-22.73-4.35-7.21-7.61-14.85-9.07-20.84.64-1.13,2.3-.87,3.54-.51,8.36,2.41,17.63,1.97,25.65-1.35,3.6-1.49,6.95-3.57,9.86-6.23.5-.47,1.03-.96,1.7-1.12,1.32-.32,2.5.8,3.46,1.78,2.68,2.76,5.84,5.1,9.28,6.84,2.68,1.35,5.56,2.34,8.51,2.88,6.75,1.26,13.97.17,19.89-3.32Z"/>
                  <path class="cls-10" d="m264.94,195.17c-.41,1.74-1.11,3.42-1.98,4.99-.68,1.2-1.44,2.38-2.52,3.22-1.21.95-2.72,1.43-4.25,1.69-2.54.43-5.15.29-7.61-.43-.99-.28-1.95-.64-2.79-1.24-1.65-1.17-2.64-3.04-3.43-4.91-.66-1.5-1.22-3.04-1.7-4.61,3.6-1.49,6.95-3.57,9.86-6.23.5-.47,1.03-.96,1.7-1.12,1.32-.32,2.5.8,3.46,1.78,2.68,2.76,5.84,5.1,9.28,6.84Z"/>
                  <path class="cls-7" d="m285.01,216.41c-1.31,3.31-2.33,5.82-2.69,6.49-8.33,15.77-19.78,18.05-35.79,16.41-9.55-.98-19.14-11.32-26.01-22.73.65-.68,1.38-1.3,2.18-1.84,1.75-1.19,3.78-1.94,5.83-2.47,7.36-1.89,15.48-.68,21.98,3.29,5.45-4.97,13.18-7.31,20.47-6.24,5.28.77,10.24,3.34,14.02,7.08Z"/>
                  <path class="cls-1" d="m232.75,221.93c.47,2.27,2.06,4.13,3.73,5.74,2.8,2.71,6.47,5.17,10.3,4.49,1.1-.2,2.2-.68,2.91-1.55,1.46-1.76.92-4.43-.09-6.48-1.44-2.91-3.69-5.41-6.43-7.14-4.09-2.59-11.76-1.53-10.42,4.93Z"/>
                </g>
              </g>
              <g>
                <path class="cls-5" d="m257.07,185.38c-.11.61.17.86.42,1.11,4.34,4.42,9.44,7.45,15.68,8.24,3.4.43,6.79,1.14,10.27.58,5.6-.91,10.56-3.12,14.63-7.14.82-.81,1.62-1.62,2.74-2.04.81-.3,1.23.01,1.35.82.13.89-.18,1.68-.57,2.47-1.28,2.61-3.35,4.5-5.8,5.89-1.97,1.12-2.96,2.46-3.51,4.83-2.31,9.95-6.1,19.37-11.46,28.11-3.38,5.5-8,9.36-14.21,11.51-7.64,2.65-15.24,3.11-23.02.88-5.25-1.51-9.57-4.46-13.26-8.42-5.06-5.42-9.44-11.33-12.98-17.85-2.61-4.8-4.45-9.92-6.01-15.14-.44-1.45-1.05-2.5-2.46-3.24-2.62-1.36-4.91-3.23-7.05-5.25-.62-.59-1.18-1.25-1.69-1.94-.44-.61-.59-1.37-.05-1.99.54-.63,1.3-.51,1.99-.24,1.01.4,1.82,1.12,2.68,1.76,3.17,2.36,6.44,4.6,10.32,5.61,8.06,2.1,16.13,2.58,24.11-.32,3.69-1.34,6.78-3.71,9.46-6.56,1.34-1.42,1.27-1.62-.51-2.19-4.85-1.53-8.82-4.42-12.29-8.03-3.48-3.62-3.04-7.63,1.01-10.64,3.06-2.27,6.53-3.65,10.25-4.2,5.64-.83,11.3-.68,16.9.43,1.48.29,2.91.75,4.28,1.39,2.11.98,3.11,2.62,3,4.98-.08,1.54-.52,2.96-1.13,4.34-1.86,4.15-4.74,7.47-8.37,10.17-1.44,1.07-3.17,1.53-4.73,2.07Zm-3.87,52.2c1.95-.04,3.96-.09,5.92-.58,3.48-.87,7.02-1.59,10.16-3.39,5.78-3.31,8.69-8.96,11.58-14.59.27-.53.09-.95-.24-1.38-1.15-1.49-2.49-2.76-4.25-3.53-3.81-1.65-7.79-2.44-11.92-2.48-3.05-.03-6.01.38-8.59,2.25-2.15,1.56-2.04,1.62-.3,3.29,2,1.93,3.37,4.26,4.15,6.93.21.71.34,1.44-.34,1.97-.74.58-1.5.32-2.19-.15-.9-.62-1.58-1.45-2.2-2.34-1.15-1.65-2.57-3.07-3.95-4.52-6.05-6.34-17.35-8.23-25.97-2.75-1.27.81-1.32.88-.44,2.14,2.95,4.24,6.23,8.22,9.96,11.81,2.62,2.52,5.6,4.43,9.07,5.6,3.09,1.04,6.27,1.5,9.56,1.71Zm35.47-38.75c-3.2.83-5.97,1.33-8.77,1.13-4.36-.31-8.73-.64-12.9-2.1-1.05-.37-1.58-.15-1.86.97-.48,1.98-1.47,3.73-2.82,5.25-1.68,1.88-3.7,3.17-6.32,3.2-2.59.02-5.15-.19-7.68-.77-3.6-.83-5.88-3.11-7.13-6.48-.68-1.84-.62-1.81-2.63-1.34-6.34,1.49-12.71,2.11-19.16.71-1.59-.35-3.2-.63-4.99-.98.47,1.9,1.27,3.41,1.92,4.98,1.2,2.92,2.57,5.75,4.09,8.51,1.08,1.96,1.09,1.94,2.83.76,1.77-1.21,3.62-2.35,5.72-2.91,7.07-1.89,13.89-1.37,20.36,2.24q1.61.9,2.79-.38c2.39-2.59,5.39-4.02,8.85-4.37,2.57-.26,5.15-.22,7.72.08,5.3.6,10.26,1.97,14.26,5.77.13.13.39.13.64.2,1.99-4.59,3.57-9.29,5.08-14.46Zm-33.01-33.15c-1.86.07-3.72.12-5.58.2-3.75.16-7.15,1.39-10.26,3.42-2.57,1.68-2.69,3.26-.45,5.31,1.8,1.65,3.75,3.15,5.82,4.39,2.99,1.8,6.25,2.74,9.85,2.29,2.31-.29,4.14-1.26,5.88-2.79,2.54-2.23,4.47-4.84,5.74-7.92.97-2.34.56-3.05-1.85-3.7-2.99-.81-6.05-1.16-9.15-1.21Zm-.62,24.26c-.48,1.04-.33,1.83-.38,2.6-.08,1.21-.01,2.46-.4,3.62-.27.81-.27,2.12-1.52,2.01-1.17-.1-1.16-1.29-1.26-2.19-.18-1.53-.3-3.06-.49-5.03-2.51,2.24-4.77,4.2-7.38,5.68-.45.25-.42.72-.16,1.13,1.44,2.26,2.94,4.47,5.87,4.95,1.77.29,3.53.6,5.31.77,1.82.18,3.42-.44,4.63-1.82,1.29-1.48,2.1-3.23,2.59-5.13.14-.54.14-1.02-.37-1.33-2.32-1.43-4.23-3.38-6.43-5.26Z"/>
                <path class="cls-5" d="m250.72,153.2c2.73-.1,5.43.08,7.94,1.3.51.25,1.02.52,1.48.86.98.72,1.34,1.8.92,2.58-.44.84-1.45,1.17-2.63.76-1.54-.54-3.02-1.23-4.69-1.42-2.35-.27-4.55-.05-6.66,1.06-.63.33-1.31.56-1.96.85-.87.39-1.72.46-2.26-.45-.53-.9-.03-1.69.61-2.29,1.65-1.53,3.51-2.69,5.76-3.13.49-.1,1-.08,1.49-.11Z"/>
              </g>
            </g>
          </g>
          <path class="cls-3" d="m342.89,151.89c-1-15.96-8.32-35.6-37.51-38.49-9.68-.97-19.28,2.49-26.99,9.71-6.9,6.47-11.41,15.23-12.7,24.3-1.06-2.05-4.52-6.22-13.85-6.22s-13.95,5.14-13.99,5.18c-2.33-14.66-11.01-30.4-36.9-32.97-9.68-.97-19.28,2.49-26.99,9.71-8.57,8.03-13.45,19.58-13.06,30.89.37,10.64,4.88,20.44,12.72,27.59,7.24,6.62,16.51,10.19,26.29,10.19.76,0,1.52-.02,2.28-.06,9.91-.56,19.2-5.19,26.18-13.05,6.89-7.76,10.66-17.77,10.09-26.78-.02-.33-.05-.66-.07-.99,1.59-1.37,7.15-3.61,13.57-3.61,9.22,0,11.58,3.06,13.36,4.73-.01.66-.01,1.32.01,1.98.37,10.64,4.88,20.44,12.72,27.59,7.24,6.62,16.51,10.19,26.29,10.19.76,0,1.52-.02,2.28-.06,9.91-.56,19.2-5.19,26.17-13.05,6.89-7.76,10.66-17.77,10.09-26.78Zm-118.54,23.22c-6.02,6.78-13.99,10.77-22.46,11.25-9.18.53-17.92-2.58-24.65-8.73-6.76-6.18-10.66-14.63-10.98-23.82-.34-9.79,3.92-19.8,11.37-26.79,5.85-5.48,12.92-8.42,20.15-8.42.88,0,1.76.04,2.64.13,20.42,2.03,31.42,13.3,32.68,33.49.48,7.61-2.79,16.17-8.75,22.88Zm104.43,0c-6.02,6.78-13.99,10.77-22.46,11.25-9.18.53-17.92-2.58-24.65-8.73-6.76-6.18-10.66-14.63-10.98-23.82-.34-9.78,3.91-19.8,11.37-26.79,5.85-5.48,12.92-8.42,20.15-8.42.88,0,1.76.04,2.64.13,20.42,2.03,31.42,13.3,32.68,33.49.48,7.61-2.79,16.17-8.75,22.88Z"/>
          <g>
            <g>
              <path class="cls-5" d="m107.5,225.6c12.65-7.33,18.44-10.3,32.7-13.56,6.68-1.53,13.52-2.31,20.3-3.38,1.02-.16,3.82-.76,4.34.81s-5.74,2.87-8.23,3.27c-19.33,3.1-29.67,7.68-47.46,15.45-1.69.74-5.14,1.87-5.53,1.13-.39-.74,2.37-2.84,3.89-3.72Z"/>
              <path class="cls-5" d="m94.22,189.47c-.26-1.66,5.24-2.75,7.8-3.2,16.73-2.95,33.51-3.86,50.33-.75,2.31.43,4.56,1.16,6.82,1.8,1.91.61,3.37,1.7,3.12,2.71-.26,1.02-1.3.95-1.9.89-2.79-.28-5.58-.67-8.35-1.15-12.28-2.13-24.63-1.94-37-1.18-5.61.35-11.22.87-16.83,1.24-1.16.08-3.87.44-3.99-.35Z"/>
              <path class="cls-5" d="m101.12,206.65c6.63-3.44,13.81-5.23,21.03-6.84,12.59-2.81,25.32-4.08,38.22-2.62,1.3.15,3.23.02,3.23,1.78,0,1.73-1.88,1.47-3.11,1.52-3.92.16-7.85.22-11.78.31-15.5.36-30.48,3.66-45.28,8.03-1.97.58-5.52,2.24-6.04,1.35s2.29-2.77,3.73-3.52Z"/>
            </g>
            <g>
              <path class="cls-5" d="m403.66,228.42c-12.47-7.63-25.72-13.57-39.9-17.18-6.64-1.69-13.46-2.64-20.21-3.87-1.02-.19-3.8-.85-4.35.71-.55,1.56,5.66,3.01,8.15,3.47,19.25,3.57,37.02,11.23,54.61,19.43,1.67.78,5.09,1.99,5.5,1.27.41-.73-2.3-2.9-3.8-3.82Z"/>
              <path class="cls-5" d="m410.28,189.8c.3-1.65-5.17-2.88-7.72-3.39-16.65-3.36-33.41-4.67-50.3-1.98-2.32.37-4.58,1.05-6.86,1.63-1.92.56-3.41,1.61-3.18,2.64.23,1.02,1.28.98,1.88.94,2.8-.21,5.6-.54,8.37-.95,12.33-1.83,24.67-1.34,37.02-.27,5.6.48,11.19,1.15,16.79,1.65,1.16.1,3.86.53,4-.26Z"/>
              <path class="cls-5" d="m402.97,206.8c-6.54-3.6-13.68-5.57-20.86-7.36-12.52-3.12-25.21-4.7-38.14-3.55-1.3.12-3.23-.06-3.28,1.7-.04,1.73,1.85,1.51,3.07,1.59,3.92.26,7.85.41,11.77.6,15.49.74,30.39,4.41,45.07,9.13,1.96.63,5.47,2.38,6.01,1.5s-2.22-2.82-3.65-3.61Z"/>
            </g>
          </g>
        </g>
      </g>
      <g>
        <g>
          <g>
            <rect class="cls-11" x="204.79" y="332.07" width="95.16" height="14.61"/>
            <path class="cls-5" d="m299.94,348.88h-95.16c-1.21,0-2.19-.98-2.19-2.19v-14.61c0-1.21.98-2.19,2.19-2.19h95.16c1.21,0,2.19.98,2.19,2.19v14.61c0,1.21-.98,2.19-2.19,2.19Zm-92.96-4.38h90.77v-10.23h-90.77v10.23Z"/>
          </g>
          <g>
            <rect class="cls-11" x="204.79" y="362.19" width="95.16" height="14.61"/>
            <path class="cls-5" d="m299.94,379h-95.16c-1.21,0-2.19-.98-2.19-2.19v-14.61c0-1.21.98-2.19,2.19-2.19h95.16c1.21,0,2.19.98,2.19,2.19v14.61c0,1.21-.98,2.19-2.19,2.19Zm-92.96-4.38h90.77v-10.23h-90.77v10.23Z"/>
          </g>
          <g>
            <g>
              <g>
                <path class="cls-3" d="m213.33,353.42c0,17.4,18.49,29.72,46.69,46.54,29.8,17.77,63.58,37.9,63.58,76.1,0,8.89-7.21,16.1-16.1,16.1s-16.1-7.21-16.1-16.1c0-18.52-18.95-31.2-47.86-48.44-29.25-17.44-62.41-37.2-62.41-74.2"/>
                <path class="cls-1" d="m217.5,398.35c14.59,11.11,31.42,18.89,46.57,29.22,15.14,10.34,29.13,24.19,33.69,41.95.76,2.96,1.75,6.56,4.71,7.33,3.31.86,6.16-2.69,6.91-6.03,1.67-7.38-1.88-14.9-6.01-21.23-9.4-14.41-22.27-26.34-36.43-36.12-14.16-9.77-29.64-17.49-45.32-24.57-2.28-1.03-8.99-3.97-10.59-.52-1.58,3.41,4.27,8.29,6.47,9.96Z"/>
              </g>
              <path class="cls-5" d="m307.5,494.35c-10.09,0-18.29-8.21-18.29-18.29,0-17.36-18.53-29.71-46.79-46.56-29.76-17.74-63.48-37.84-63.48-76.08,0-1.21.98-2.19,2.19-2.19s2.19.98,2.19,2.19c0,35.75,32.59,55.18,61.34,72.32,29.56,17.62,48.93,30.64,48.93,50.32,0,7.67,6.24,13.91,13.91,13.91s13.91-6.24,13.91-13.91c0-36.96-33.21-56.76-62.51-74.22-28.85-17.2-47.76-29.86-47.76-48.42,0-1.21.98-2.19,2.19-2.19s2.19.98,2.19,2.19c0,16.24,18.07,28.22,45.62,44.65,30.3,18.06,64.65,38.54,64.65,77.99,0,10.09-8.21,18.29-18.29,18.29Z"/>
            </g>
            <g>
              <g>
                <path class="cls-2" d="m197.23,492.16c-8.89,0-16.1-7.21-16.1-16.1,0-38.2,33.78-58.34,63.58-76.1,28.21-16.81,46.69-29.14,46.69-46.54s-18.49-29.72-46.69-46.54c-29.8-17.76-63.58-37.9-63.58-76.1,0-8.89,7.21-16.1,16.1-16.1s16.1,7.21,16.1,16.1c0,18.52,18.95,31.2,47.86,48.44,29.25,17.44,62.41,37.2,62.41,74.2s-33.16,56.76-62.41,74.2c-28.91,17.23-47.86,29.92-47.86,48.44,0,8.89-7.21,16.1-16.1,16.1Z"/>
                <path class="cls-1" d="m257.22,398.66c-14.63,8.3-29.74,15.99-42.82,26.58-13.07,10.58-24.17,24.56-27.7,41.01-.73,3.4-1.11,7.04.16,10.27,1.28,3.23,4.65,5.85,8.07,5.22,2.41-.44,4.33-2.37,5.47-4.54s1.64-4.61,2.29-6.97c5.41-19.85,21.03-35.39,38.08-46.92,17.04-11.53,36-20.03,52.91-31.76,6.07-4.21,12.19-9.3,14.26-16.4.96-3.29.77-7.29-1.79-9.57-3.61-3.22-7.23.29-9.41,3.03-3.33,4.18-7.14,7.85-11.26,11.28-8.71,7.26-18.42,13.19-28.26,18.77Z"/>
                <path class="cls-1" d="m298.05,352.46c.67,3.32,3.91,5.92,7.3,5.88,3.39-.04,6.56-2.68,7.23-6,.68-3.32-1.19-6.98-4.26-8.41-5.2-2.42-11.35,3.18-10.27,8.53Z"/>
                <path class="cls-1" d="m197.11,257.96c4.88,8.47,11.59,15.81,19.22,21.93,1.71,1.37,3.54,2.71,5.68,3.15,2.14.44,4.67-.28,5.7-2.21.9-1.68.43-3.82-.64-5.4-1.07-1.58-2.64-2.73-4.14-3.91-10.86-8.51-19.52-20.57-21.35-34.25-.34-2.51-.45-5.09-1.42-7.43-3.2-7.74-11.64-3.86-11,3.32.78,8.73,3.59,17.2,7.96,24.79Z"/>
              </g>
              <path class="cls-5" d="m197.23,494.35c-10.09,0-18.29-8.21-18.29-18.29,0-39.45,34.35-59.92,64.65-77.99,27.56-16.43,45.63-28.41,45.63-44.65s-18.07-28.23-45.62-44.65c-30.3-18.06-64.65-38.53-64.65-77.99,0-10.09,8.21-18.29,18.29-18.29s18.29,8.21,18.29,18.29c0,17.36,18.53,29.71,46.79,46.56,29.76,17.74,63.48,37.84,63.48,76.08s-33.72,58.35-63.48,76.08c-28.27,16.85-46.8,29.19-46.8,46.56,0,10.09-8.21,18.29-18.29,18.29Zm0-277.49c-7.67,0-13.91,6.24-13.91,13.91,0,36.96,33.21,56.76,62.51,74.22,28.85,17.2,47.76,29.86,47.76,48.42s-18.91,31.22-47.76,48.42c-29.3,17.47-62.51,37.26-62.51,74.22,0,7.67,6.24,13.91,13.91,13.91s13.91-6.24,13.91-13.91c0-19.68,19.37-32.7,48.93-50.32,28.75-17.14,61.34-36.56,61.34-72.32s-32.59-55.18-61.34-72.32c-29.56-17.62-48.93-30.64-48.93-50.32,0-7.67-6.24-13.91-13.91-13.91Z"/>
            </g>
            <g>
              <g>
                <path class="cls-3" d="m181.12,353.42c0-37,33.16-56.76,62.41-74.2,28.91-17.23,47.86-29.91,47.86-48.44,0-8.89,7.21-16.1,16.1-16.1s16.1,7.21,16.1,16.1c0,38.21-33.78,58.34-63.58,76.1-28.21,16.81-46.69,29.14-46.69,46.54"/>
                <path class="cls-1" d="m199.97,319.81c-1.84,2.08-3.67,4.35-4.24,7.07-.58,2.72.51,5.99,3.09,7.03,3.63,1.46,7.22-1.98,9.73-4.99,11.19-13.38,24.5-24.98,39.28-34.23,14.42-9.02,30.44-15.99,42.42-28.05,4.67-4.7,6.25-15.03-2.78-9.75-7.27,4.25-13.84,9.98-20.95,14.55-14.82,9.53-30.29,18.1-44.48,28.58-7.96,5.88-15.5,12.36-22.06,19.77Z"/>
              </g>
              <path class="cls-5" d="m213.33,355.61c-1.21,0-2.19-.98-2.19-2.19,0-18.56,18.91-31.22,47.76-48.42,29.3-17.46,62.51-37.26,62.51-74.22,0-7.67-6.24-13.91-13.91-13.91s-13.91,6.24-13.91,13.91c0,19.68-19.37,32.7-48.93,50.32-28.75,17.14-61.34,36.57-61.34,72.32,0,1.21-.98,2.19-2.19,2.19s-2.19-.98-2.19-2.19c0-38.24,33.72-58.35,63.48-76.08,28.27-16.85,46.8-29.19,46.8-46.56,0-10.09,8.21-18.29,18.29-18.29s18.29,8.21,18.29,18.29c0,39.45-34.35,59.93-64.65,77.99-27.56,16.43-45.62,28.41-45.62,44.65,0,1.21-.98,2.19-2.19,2.19Z"/>
            </g>
          </g>
        </g>
        <g>
          <path class="cls-10" d="m311.69,307.71c-.8.49-1.64,1.04-2.47,1.64-1.76,1.27-2.1,3.75-.79,5.47l4,5.27h.04c-6.05,3.7-10.88,8.41-13.48,11.22-2.03,2.2-3.39,4.93-3.88,7.89-.02.13-.03.21-.03.21-1.48,5.53-1.09,12.32.62,18.26h0s0,0,0,0c.59,2.06,1.34,4.03,2.22,5.79,3.13,6.24,8.53,12,14.88,15.18,13.56,6.81,32.53-.08,41.61-6.61,6.05-4.35,11.45-9.92,14.25-16.83,2.53-6.24,2.78-13.28,1.32-19.86-1.46-6.58-4.55-12.71-8.44-18.21-13.48-19.09-39.58-15.66-49.85-9.43Z"/>
          <g>
            <path class="cls-5" d="m310.76,306.18c-.86.52-1.73,1.1-2.59,1.72-1.23.89-2.04,2.21-2.26,3.72-.23,1.53.16,3.05,1.09,4.28l2.83,3.74c-15.56,9.14-17.98,20.42-17.98,20.42-1.99,7.56-.79,17.68,3,25.23,3.41,6.79,9.26,12.76,15.67,15.98,14.61,7.33,35.88-1.27,44.93-7.77,4.11-2.95,7.49-6.14,10.13-9.53,2.01-2.58,3.59-5.28,4.73-8.08,2.52-6.21,3.02-13.64,1.41-20.91-1.39-6.29-4.33-12.63-8.72-18.86-14.36-20.34-41.54-16.42-52.24-9.93Zm49.32,11.99c4.12,5.84,6.86,11.75,8.15,17.57,1.46,6.57,1.02,13.25-1.23,18.8-2.37,5.84-6.96,11.24-13.64,16.05-8.99,6.46-27.27,12.73-39.76,6.46-1.64-.82-2.04-.98-3.57-2.17,15.73-7.98,18.8-11,21.21-13.13,2.38-2.17,4.57-4.62,6.22-7.44.27-.47.25-1.07-.1-1.52-.46-.59-1.32-.7-1.91-.24l-.04.03c-2.41,1.87-4.77,3.64-7.2,5.36-2.46,1.69-4.97,3.31-7.51,4.93-4.76,2.97-9.71,5.77-14.61,8.72-2.64-2.59-4.93-5.64-6.58-8.92-.65-1.29-.71-1.25-1.19-2.7,7.77-3.27,12.61-6.7,15.34-8.33,2.72-1.66,5.32-3.54,7.74-5.67,2.38-2.17,4.57-4.62,6.22-7.44.27-.47.25-1.07-.1-1.52-.46-.59-1.32-.7-1.91-.24l-.04.03c-2.41,1.87-4.77,3.64-7.2,5.36-2.46,1.69-4.97,3.31-7.51,4.93-4.53,2.83-9.23,5.5-13.9,8.3-1.23-5.31-1.37-11-.17-15.49.02-.07.06-.31.07-.38.36-2.22,1.28-4.29,2.66-6.07.24-.31.49-.61.76-.89,2.51-2.71,7.14-7.24,12.9-10.82.11-.05.21-.11.31-.19,0,0,0,0,0,0,5.32-3.25,11.59-5.66,18.05-5.09.98.09,1.85-.64,1.94-1.63.09-.98-.64-1.85-1.63-1.94-6.84-.6-14.31.46-19.92,3.66l-2.11-2.79c-.35-.46-.49-1.02-.4-1.59.08-.55.37-1.03.82-1.35.79-.57,1.59-1.1,2.35-1.56,10.34-6.27,35.04-8.65,47.46,8.93Z"/>
            <path class="cls-5" d="m337.25,330.53c-1.93-.09-2.64,1.53-1.56,3.38,1.59,2.74,3.32,5.4,4.97,8.11,1.02,1.66,1.96,3.37,3.02,5.01.44.68,1.2,1.33,2.05.96.82-.36.88-1.26.72-2.11-1.1-5.8-4.29-10.46-8.12-14.75-.3-.33-.83-.46-1.09-.59Z"/>
            <path class="cls-5" d="m355.4,341.19c-1.2-4.23-3.35-8.7-7.18-12.22-.64-.59-1.48-.7-2.22-.08-.58.5-.55,1.16-.21,1.78,2.19,3.98,4.09,8.12,6.75,11.83.49.69,1.24,1.47,2.21,1.11.59-.22.79-.99.64-2.42Z"/>
          </g>
        </g>
        <g>
          <path class="cls-10" d="m193.04,307.71c.8.49,1.64,1.04,2.47,1.64,1.76,1.27,2.1,3.75.79,5.47l-4,5.27h-.04c6.05,3.7,10.88,8.41,13.48,11.22,2.03,2.2,3.39,4.93,3.88,7.89.02.13.03.21.03.21,1.48,5.53,1.09,12.32-.62,18.26h0s0,0,0,0c-.59,2.06-1.34,4.03-2.22,5.79-3.13,6.24-8.53,12-14.88,15.18-13.56,6.81-32.53-.08-41.61-6.61-6.05-4.35-11.45-9.92-14.25-16.83-2.53-6.24-2.78-13.28-1.32-19.86,1.46-6.58,4.55-12.71,8.44-18.21,13.48-19.09,39.58-15.66,49.85-9.43Z"/>
          <g>
            <path class="cls-5" d="m141.73,316.11c-4.4,6.23-7.33,12.57-8.72,18.86-1.61,7.27-1.11,14.7,1.41,20.91,1.14,2.8,2.72,5.5,4.73,8.08,2.64,3.39,6.03,6.57,10.13,9.53,9.05,6.5,30.32,15.11,44.93,7.77,6.41-3.22,12.27-9.19,15.67-15.98,3.78-7.55,4.98-17.67,3-25.23,0,0-2.42-11.28-17.98-20.42l2.83-3.74c.93-1.23,1.32-2.75,1.09-4.28-.23-1.51-1.03-2.83-2.26-3.72-.86-.62-1.73-1.2-2.59-1.72-10.7-6.49-37.88-10.41-52.24,9.93Zm50.38-6.87c.77.46,1.56.99,2.35,1.56.44.32.73.8.82,1.35.08.57-.06,1.13-.4,1.59l-2.11,2.79c-5.61-3.2-13.08-4.27-19.92-3.66-.98.09-1.71.96-1.63,1.94.09.99.96,1.71,1.94,1.63,6.46-.57,12.73,1.84,18.05,5.09,0,0,0,0,0,0,.1.07.2.14.31.19,5.77,3.58,10.39,8.11,12.9,10.82.27.29.52.59.76.89,1.38,1.78,2.3,3.85,2.66,6.07.01.07.05.31.07.38,1.2,4.49,1.06,10.18-.17,15.49-4.66-2.8-9.37-5.47-13.9-8.3-2.54-1.61-5.05-3.24-7.51-4.93-2.44-1.72-4.8-3.49-7.2-5.36l-.04-.03c-.59-.46-1.45-.35-1.91.24-.35.45-.37,1.06-.1,1.52,1.65,2.82,3.85,5.27,6.22,7.44,2.41,2.13,5.02,4.01,7.74,5.67,2.73,1.63,7.58,5.06,15.34,8.33-.48,1.45-.54,1.41-1.19,2.7-1.65,3.28-3.93,6.34-6.58,8.92-4.9-2.95-9.85-5.75-14.61-8.72-2.54-1.61-5.05-3.24-7.51-4.93-2.44-1.72-4.8-3.49-7.2-5.36l-.04-.03c-.59-.46-1.45-.35-1.91.24-.35.45-.37,1.06-.1,1.52,1.65,2.82,3.85,5.27,6.22,7.44,2.41,2.13,5.48,5.15,21.21,13.13-1.52,1.19-1.92,1.35-3.57,2.17-12.5,6.27-30.78,0-39.76-6.46-6.68-4.8-11.27-10.2-13.64-16.05-2.25-5.55-2.69-12.22-1.23-18.8,1.29-5.82,4.03-11.73,8.15-17.57,12.42-17.58,37.12-15.21,47.46-8.93Z"/>
            <path class="cls-5" d="m167.48,330.53c1.93-.09,2.64,1.53,1.56,3.38-1.59,2.74-3.32,5.4-4.97,8.11-1.02,1.66-1.96,3.37-3.02,5.01-.44.68-1.2,1.33-2.05.96-.82-.36-.88-1.26-.72-2.11,1.1-5.8,4.29-10.46,8.12-14.75.3-.33.83-.46,1.09-.59Z"/>
            <path class="cls-5" d="m149.33,341.19c1.2-4.23,3.35-8.7,7.18-12.22.64-.59,1.48-.7,2.22-.08.58.5.55,1.16.21,1.78-2.19,3.98-4.09,8.12-6.75,11.83-.49.69-1.24,1.47-2.21,1.11-.59-.22-.79-.99-.64-2.42Z"/>
          </g>
        </g>
      </g>
    </g>
  </g>
</svg>